SplineFontDB: 3.2
FontName: FiraSans-Medium
FullName: Fira Sans Medium
FamilyName: Fira Sans Medium
Weight: Medium
Copyright: Digitized data copyright 2012-2016, The Mozilla Foundation and Telefonica S.A.
Version: 4.203
ItalicAngle: 0
UnderlinePosition: -100
UnderlineWidth: 50
Ascent: 800
Descent: 200
InvalidEm: 0
sfntRevision: 0x000433f7
LayerCount: 2
Layer: 0 1 "Back" 1
Layer: 1 1 "Fore" 0
XUID: [1021 100 46251809 14849314]
StyleMap: 0x0040
FSType: 0
OS2Version: 4
OS2_WeightWidthSlopeOnly: 0
OS2_UseTypoMetrics: 1
CreationTime: 1476947922
ModificationTime: 1480667555
PfmFamily: 17
TTFWeight: 500
TTFWidth: 5
LineGap: 0
VLineGap: 0
Panose: 2 11 6 3 5 0 0 2 0 4
OS2TypoAscent: 935
OS2TypoAOffset: 0
OS2TypoDescent: -265
OS2TypoDOffset: 0
OS2TypoLinegap: 0
OS2WinAscent: 935
OS2WinAOffset: 0
OS2WinDescent: 265
OS2WinDOffset: 0
HheadAscent: 935
HheadAOffset: 0
HheadDescent: -265
HheadDOffset: 0
OS2SubXSize: 650
OS2SubYSize: 600
OS2SubXOff: 0
OS2SubYOff: 75
OS2SupXSize: 650
OS2SupYSize: 600
OS2SupXOff: 0
OS2SupYOff: 350
OS2StrikeYSize: 50
OS2StrikeYPos: 317
OS2CapHeight: 691
OS2XHeight: 529
OS2Vendor: 'CTDB'
OS2CodePages: 2000019f.00000000
OS2UnicodeRanges: 600002ff.00000001.00000000.00000000
Lookup: 1 0 0 "'aalt' Access All Alternates lookup 0" { "'aalt' Access All Alternates lookup 0 subtable"  } ['aalt' ('DFLT' <'dflt' > 'cyrl' <'dflt' > 'grek' <'dflt' > 'latn' <'AFK ' 'AZE ' 'CAT ' 'CRT ' 'KAZ ' 'MOL ' 'PLK ' 'ROM ' 'TAT ' 'TRK ' 'dflt' > ) ]
Lookup: 3 0 0 "'aalt' Access All Alternates lookup 1" { "'aalt' Access All Alternates lookup 1 subtable"  } ['aalt' ('DFLT' <'dflt' > 'cyrl' <'dflt' > 'grek' <'dflt' > 'latn' <'AFK ' 'AZE ' 'CAT ' 'CRT ' 'KAZ ' 'MOL ' 'PLK ' 'ROM ' 'TAT ' 'TRK ' 'dflt' > ) ]
Lookup: 1 0 0 "'locl' Localized Forms in Latin lookup 2" { "'locl' Localized Forms in Latin lookup 2 subtable"  } ['locl' ('latn' <'TAT ' > ) ]

StartChar: .notdef
Encoding: 65536 -1 0
Width: 666
GlyphClass: 1
Flags: W
LayerCount: 2
Fore
SplineSet
543 1050 m 1,0,-1
 543 -350 l 1,1,-1
 123 -350 l 1,2,-1
 123 1050 l 1,3,-1
 543 1050 l 1,0,-1
489 998 m 1,4,-1
 178 998 l 1,5,-1
 178 -298 l 1,6,-1
 489 -298 l 1,7,-1
 489 998 l 1,4,-1
409.5 419 m 128,-1,9
 435 387 435 387 435 336 c 0,10,11
 435 283 435 283 412.5 254 c 128,-1,12
 390 225 390 225 340 218 c 1,13,-1
 340 173 l 2,14,15
 340 162 340 162 332.5 155.5 c 128,-1,16
 325 149 325 149 315 149 c 256,17,18
 305 149 305 149 297.5 155.5 c 128,-1,19
 290 162 290 162 290 173 c 2,20,-1
 290 257 l 1,21,22
 343 260 343 260 362 276.5 c 128,-1,23
 381 293 381 293 381 334 c 0,24,25
 381 367 381 367 368 385 c 128,-1,26
 355 403 355 403 320 403 c 0,27,28
 291 403 291 403 268 392 c 0,29,30
 260 389 260 389 255 389 c 0,31,32
 244 389 244 389 237.5 395.5 c 128,-1,33
 231 402 231 402 231 412 c 0,34,35
 231 431 231 431 260.5 441 c 128,-1,36
 290 451 290 451 324 451 c 0,37,8
 384 451 384 451 409.5 419 c 128,-1,9
340 110 m 128,-1,39
 350 100 350 100 350 85 c 0,40,41
 350 69 350 69 340 58.5 c 128,-1,42
 330 48 330 48 315 48 c 256,43,44
 300 48 300 48 290 58.5 c 128,-1,45
 280 69 280 69 280 85 c 0,46,47
 280 100 280 100 290 110 c 128,-1,48
 300 120 300 120 315 120 c 256,49,38
 330 120 330 120 340 110 c 128,-1,39
EndSplineSet
EndChar

StartChar: A
Encoding: 65 65 3
Width: 583
GlyphClass: 2
Flags: W
AnchorPoint: "Anchor-18" 0 0 basechar 0
AnchorPoint: "Anchor-17" 0 0 basechar 0
AnchorPoint: "Anchor-16" 292 691 basechar 0
AnchorPoint: "Anchor-15" 533 0 basechar 0
AnchorPoint: "Anchor-14" 292 0 basechar 0
LayerCount: 2
Fore
SplineSet
447 0 m 1,0,-1
 404 160 l 1,1,-1
 175 160 l 1,2,-1
 132 0 l 1,3,-1
 -5 0 l 1,4,-1
 210 691 l 1,5,-1
 373 691 l 1,6,-1
 587 0 l 1,7,-1
 447 0 l 1,0,-1
201 260 m 1,8,-1
 377 260 l 1,9,-1
 289 590 l 1,10,-1
 201 260 l 1,8,-1
EndSplineSet
Substitution2: "Single Substitution lookup 45 subtable" ordfeminine
Substitution2: "'c2sc' Capitals to Small Capitals lookup 26 subtable" a.sc
AlternateSubs2: "'aalt' Access All Alternates lookup 1 subtable" ordfeminine a.sc
Position2: "'cpsp' Capital Spacing lookup 0 subtable" dx=5 dy=0 dh=10 dv=0
EndChar

StartChar: uni2C6D
Encoding: 11373 11373 27
Width: 689
GlyphClass: 2
Flags: W
AnchorPoint: "Anchor-18" 0 0 basechar 0
AnchorPoint: "Anchor-17" 0 0 basechar 0
AnchorPoint: "Anchor-16" 345 691 basechar 0
AnchorPoint: "Anchor-15" 0 0 basechar 0
AnchorPoint: "Anchor-14" 345 0 basechar 0
LayerCount: 2
Fore
SplineSet
611.5 109.5 m 128,-1,1
 621 93 621 93 647 81 c 1,2,-1
 606 -15 l 1,3,4
 558 -5 558 -5 529.5 13.5 c 128,-1,5
 501 32 501 32 486 64 c 1,6,7
 419 -15 419 -15 314 -15 c 0,8,9
 236 -15 236 -15 174.5 25 c 128,-1,10
 113 65 113 65 78 143.5 c 128,-1,11
 43 222 43 222 43 332 c 0,12,13
 43 448 43 448 78.5 532.5 c 128,-1,14
 114 617 114 617 176 661.5 c 128,-1,15
 238 706 238 706 318 706 c 0,16,17
 413 706 413 706 478 636 c 1,18,-1
 488 691 l 1,19,-1
 602 691 l 1,20,-1
 602 162 l 2,21,0
 602 126 602 126 611.5 109.5 c 128,-1,1
409.5 101 m 128,-1,23
 442 117 442 117 470 148 c 1,24,-1
 470 545 l 1,25,26
 417 605 417 605 341 605 c 0,27,28
 182 605 182 605 182 332 c 0,29,30
 182 85 182 85 336 85 c 0,31,22
 377 85 377 85 409.5 101 c 128,-1,23
EndSplineSet
Substitution2: "'c2sc' Capitals to Small Capitals lookup 26 subtable" uni0251.sc
Substitution2: "'aalt' Access All Alternates lookup 0 subtable" uni0251.sc
Position2: "'cpsp' Capital Spacing lookup 0 subtable" dx=5 dy=0 dh=10 dv=0
EndChar

StartChar: Aogonek
Encoding: 260 260 29
Width: 583
GlyphClass: 2
Flags: W
AnchorPoint: "Anchor-18" 0 0 basechar 0
AnchorPoint: "Anchor-17" 0 0 basechar 0
AnchorPoint: "Anchor-16" 292 691 basechar 0
AnchorPoint: "Anchor-15" 533 0 basechar 0
AnchorPoint: "Anchor-14" 292 0 basechar 0
LayerCount: 2
Fore
SplineSet
428 -54 m 128,-1,1
 402 -80 402 -80 402 -108 c 0,2,3
 402 -154 402 -154 457 -154 c 0,4,5
 484 -154 484 -154 518 -147 c 1,6,-1
 508 -232 l 1,7,8
 471 -239 471 -239 441 -239 c 0,9,10
 380 -239 380 -239 342 -209 c 128,-1,11
 304 -179 304 -179 304 -130 c 0,12,13
 304 -79 304 -79 338.5 -42 c 128,-1,14
 373 -5 373 -5 441 22 c 1,15,-1
 404 160 l 1,16,-1
 175 160 l 1,17,-1
 132 0 l 1,18,-1
 -5 0 l 1,19,-1
 210 691 l 1,20,-1
 373 691 l 1,21,-1
 587 0 l 1,22,-1
 523 0 l 1,23,0
 454 -28 454 -28 428 -54 c 128,-1,1
201 260 m 1,24,-1
 377 260 l 1,25,-1
 289 590 l 1,26,-1
 201 260 l 1,24,-1
EndSplineSet
Substitution2: "'c2sc' Capitals to Small Capitals lookup 26 subtable" aogonek.sc
Substitution2: "'aalt' Access All Alternates lookup 0 subtable" aogonek.sc
Position2: "'cpsp' Capital Spacing lookup 0 subtable" dx=5 dy=0 dh=10 dv=0
EndChar

StartChar: uni023A
Encoding: 570 570 32
Width: 583
GlyphClass: 2
Flags: W
AnchorPoint: "Anchor-18" 0 0 basechar 0
AnchorPoint: "Anchor-17" 0 0 basechar 0
AnchorPoint: "Anchor-16" 291 691 basechar 0
AnchorPoint: "Anchor-15" 0 0 basechar 0
AnchorPoint: "Anchor-14" 291 0 basechar 0
LayerCount: 2
Fore
SplineSet
456 0 m 1,0,-1
 412 160 l 1,1,-1
 286 160 l 1,2,-1
 224 -72 l 1,3,-1
 172 -60 l 1,4,-1
 230 160 l 1,5,-1
 167 160 l 1,6,-1
 123 0 l 1,7,-1
 -5 0 l 1,8,-1
 210 691 l 1,9,-1
 372 691 l 1,10,-1
 388 753 l 1,11,-1
 440 741 l 1,12,-1
 402 598 l 1,13,-1
 587 0 l 1,14,-1
 456 0 l 1,0,-1
193 254 m 1,15,-1
 255 254 l 1,16,-1
 319 494 l 1,17,-1
 289 604 l 1,18,-1
 193 254 l 1,15,-1
311 254 m 1,19,-1
 386 254 l 1,20,-1
 347 393 l 1,21,-1
 311 254 l 1,19,-1
EndSplineSet
Substitution2: "'c2sc' Capitals to Small Capitals lookup 26 subtable" uni2C65.sc
Substitution2: "'aalt' Access All Alternates lookup 0 subtable" uni2C65.sc
Position2: "'cpsp' Capital Spacing lookup 0 subtable" dx=5 dy=0 dh=10 dv=0
EndChar

StartChar: AE
Encoding: 198 198 34
Width: 832
GlyphClass: 2
Flags: W
AnchorPoint: "Anchor-18" 0 0 basechar 0
AnchorPoint: "Anchor-17" 0 0 basechar 0
AnchorPoint: "Anchor-16" 479 691 basechar 0
AnchorPoint: "Anchor-15" 0 0 basechar 0
AnchorPoint: "Anchor-14" 416 0 basechar 0
LayerCount: 2
Fore
SplineSet
560 99 m 1,0,-1
 790 99 l 1,1,-1
 790 0 l 1,2,-1
 451 0 l 1,3,-1
 419 160 l 1,4,-1
 179 160 l 1,5,-1
 122 0 l 1,6,-1
 -18 0 l 1,7,-1
 255 691 l 1,8,-1
 751 691 l 1,9,-1
 736 593 l 1,10,-1
 448 593 l 1,11,-1
 492 399 l 1,12,-1
 742 399 l 1,13,-1
 742 301 l 1,14,-1
 514 301 l 1,15,-1
 560 99 l 1,0,-1
214 260 m 1,16,-1
 399 260 l 1,17,-1
 332 591 l 1,18,-1
 214 260 l 1,16,-1
EndSplineSet
Substitution2: "'c2sc' Capitals to Small Capitals lookup 26 subtable" ae.sc
Substitution2: "'aalt' Access All Alternates lookup 0 subtable" ae.sc
Position2: "'cpsp' Capital Spacing lookup 0 subtable" dx=5 dy=0 dh=10 dv=0
EndChar

StartChar: B
Encoding: 66 66 37
Width: 613
GlyphClass: 2
Flags: W
AnchorPoint: "Anchor-18" 0 0 basechar 0
AnchorPoint: "Anchor-17" 0 0 basechar 0
AnchorPoint: "Anchor-16" 298 691 basechar 0
AnchorPoint: "Anchor-15" 0 0 basechar 0
AnchorPoint: "Anchor-14" 310 0 basechar 0
LayerCount: 2
Fore
SplineSet
534.5 315 m 128,-1,1
 578 277 578 277 578 199 c 0,2,3
 578 91 578 91 502 45.5 c 128,-1,4
 426 0 426 0 289 0 c 2,5,-1
 81 0 l 1,6,-1
 81 691 l 1,7,-1
 262 691 l 2,8,9
 548 691 548 691 548 515 c 0,10,11
 548 454 548 454 511 415.5 c 128,-1,12
 474 377 474 377 420 366 c 1,13,0
 491 353 491 353 534.5 315 c 128,-1,1
213 594 m 1,14,-1
 213 407 l 1,15,-1
 294 407 l 2,16,17
 349 407 349 407 381 431.5 c 128,-1,18
 413 456 413 456 413 504 c 0,19,20
 413 554 413 554 379.5 574 c 128,-1,21
 346 594 346 594 275 594 c 2,22,-1
 213 594 l 1,14,-1
401.5 121 m 128,-1,24
 440 143 440 143 440 204 c 0,25,26
 440 263 440 263 403.5 289 c 128,-1,27
 367 315 367 315 304 315 c 2,28,-1
 213 315 l 1,29,-1
 213 99 l 1,30,-1
 290 99 l 2,31,23
 363 99 363 99 401.5 121 c 128,-1,24
EndSplineSet
Substitution2: "'c2sc' Capitals to Small Capitals lookup 26 subtable" b.sc
Substitution2: "'aalt' Access All Alternates lookup 0 subtable" b.sc
Position2: "'cpsp' Capital Spacing lookup 0 subtable" dx=5 dy=0 dh=10 dv=0
EndChar

StartChar: uniA7B4
Encoding: 42932 42932 40
Width: 613
GlyphClass: 2
Flags: W
AnchorPoint: "Anchor-18" 0 0 basechar 0
AnchorPoint: "Anchor-17" 0 0 basechar 0
AnchorPoint: "Anchor-16" 306 691 basechar 0
AnchorPoint: "Anchor-15" 0 0 basechar 0
AnchorPoint: "Anchor-14" 306 -206 basechar 0
LayerCount: 2
Fore
SplineSet
534.5 316 m 128,-1,1
 578 279 578 279 578 204 c 0,2,3
 578 100 578 100 507 50 c 128,-1,4
 436 0 436 0 326 0 c 0,5,6
 270 0 270 0 213 13 c 1,7,-1
 213 -206 l 1,8,-1
 81 -206 l 1,9,-1
 81 691 l 1,10,-1
 262 691 l 2,11,12
 548 691 548 691 548 515 c 0,13,14
 548 454 548 454 511 415.5 c 128,-1,15
 474 377 474 377 420 366 c 1,16,0
 491 353 491 353 534.5 316 c 128,-1,1
405.5 125 m 128,-1,18
 440 151 440 151 440 209 c 0,19,20
 440 264 440 264 405 289.5 c 128,-1,21
 370 315 370 315 311 315 c 2,22,-1
 271 315 l 1,23,-1
 281 407 l 1,24,-1
 301 407 l 2,25,26
 351 407 351 407 382 431.5 c 128,-1,27
 413 456 413 456 413 502 c 0,28,29
 413 554 413 554 379.5 574 c 128,-1,30
 346 594 346 594 275 594 c 2,31,-1
 213 594 l 1,32,-1
 213 108 l 1,33,34
 271 99 271 99 314 99 c 0,35,17
 371 99 371 99 405.5 125 c 128,-1,18
EndSplineSet
Substitution2: "'c2sc' Capitals to Small Capitals lookup 26 subtable" uniA7B5.sc
Substitution2: "'aalt' Access All Alternates lookup 0 subtable" uniA7B5.sc
Position2: "'cpsp' Capital Spacing lookup 0 subtable" dx=5 dy=0 dh=10 dv=0
EndChar

StartChar: uni0181
Encoding: 385 385 41
Width: 728
GlyphClass: 2
Flags: W
AnchorPoint: "Anchor-18" 0 0 basechar 0
AnchorPoint: "Anchor-17" 0 0 basechar 0
AnchorPoint: "Anchor-16" 413 691 basechar 0
AnchorPoint: "Anchor-15" 0 0 basechar 0
AnchorPoint: "Anchor-14" 425 0 basechar 0
LayerCount: 2
Fore
SplineSet
649.5 315.5 m 128,-1,1
 693 278 693 278 693 199 c 0,2,3
 693 91 693 91 617 45.5 c 128,-1,4
 541 0 541 0 404 0 c 2,5,-1
 196 0 l 1,6,-1
 196 593 l 1,7,-1
 166 593 l 2,8,9
 116 593 116 593 116 548 c 0,10,11
 116 531 116 531 120 516 c 128,-1,12
 124 501 124 501 133 479 c 1,13,-1
 49 440 l 1,14,15
 29 470 29 470 18 496.5 c 128,-1,16
 7 523 7 523 7 554 c 0,17,18
 7 617 7 617 51 654 c 128,-1,19
 95 691 95 691 173 691 c 2,20,-1
 377 691 l 2,21,22
 663 691 663 691 663 515 c 0,23,24
 663 454 663 454 626 415.5 c 128,-1,25
 589 377 589 377 535 366 c 1,26,0
 606 353 606 353 649.5 315.5 c 128,-1,1
328 594 m 1,27,-1
 328 407 l 1,28,-1
 409 407 l 2,29,30
 464 407 464 407 496 431.5 c 128,-1,31
 528 456 528 456 528 504 c 0,32,33
 528 554 528 554 494.5 574 c 128,-1,34
 461 594 461 594 390 594 c 2,35,-1
 328 594 l 1,27,-1
516.5 121 m 128,-1,37
 555 143 555 143 555 204 c 0,38,39
 555 263 555 263 518.5 289 c 128,-1,40
 482 315 482 315 419 315 c 2,41,-1
 328 315 l 1,42,-1
 328 99 l 1,43,-1
 405 99 l 2,44,36
 478 99 478 99 516.5 121 c 128,-1,37
EndSplineSet
Substitution2: "'ss02' Style Set 2 lookup 34 subtable" uni0181.ss02
Substitution2: "'salt' Stylistic Alternatives lookup 32 subtable" uni0181.ss02
Substitution2: "'c2sc' Capitals to Small Capitals lookup 26 subtable" uni0253.sc
AlternateSubs2: "'aalt' Access All Alternates lookup 1 subtable" uni0253.sc uni0181.ss02
Position2: "'cpsp' Capital Spacing lookup 0 subtable" dx=5 dy=0 dh=10 dv=0
EndChar

StartChar: uni0243
Encoding: 579 579 43
Width: 626
GlyphClass: 2
Flags: W
AnchorPoint: "Anchor-18" 0 0 basechar 0
AnchorPoint: "Anchor-17" 0 0 basechar 0
AnchorPoint: "Anchor-16" 311 691 basechar 0
AnchorPoint: "Anchor-15" 0 0 basechar 0
AnchorPoint: "Anchor-14" 323 0 basechar 0
LayerCount: 2
Fore
SplineSet
547.5 315.5 m 128,-1,1
 591 278 591 278 591 199 c 0,2,3
 591 91 591 91 515 45.5 c 128,-1,4
 439 0 439 0 302 0 c 2,5,-1
 94 0 l 1,6,-1
 94 172 l 1,7,-1
 17 172 l 1,8,-1
 17 248 l 1,9,-1
 94 248 l 1,10,-1
 94 691 l 1,11,-1
 275 691 l 2,12,13
 561 691 561 691 561 515 c 0,14,15
 561 454 561 454 524 415.5 c 128,-1,16
 487 377 487 377 433 366 c 1,17,0
 504 353 504 353 547.5 315.5 c 128,-1,1
226 594 m 1,18,-1
 226 407 l 1,19,-1
 307 407 l 2,20,21
 362 407 362 407 394 431.5 c 128,-1,22
 426 456 426 456 426 504 c 0,23,24
 426 554 426 554 392.5 574 c 128,-1,25
 359 594 359 594 288 594 c 2,26,-1
 226 594 l 1,18,-1
414.5 121 m 128,-1,28
 453 143 453 143 453 204 c 0,29,30
 453 263 453 263 416.5 289 c 128,-1,31
 380 315 380 315 317 315 c 2,32,-1
 226 315 l 1,33,-1
 226 248 l 1,34,-1
 361 248 l 1,35,-1
 361 172 l 1,36,-1
 226 172 l 1,37,-1
 226 99 l 1,38,-1
 303 99 l 2,39,27
 376 99 376 99 414.5 121 c 128,-1,28
EndSplineSet
Substitution2: "'c2sc' Capitals to Small Capitals lookup 26 subtable" uni0180.sc
Substitution2: "'aalt' Access All Alternates lookup 0 subtable" uni0180.sc
Position2: "'cpsp' Capital Spacing lookup 0 subtable" dx=5 dy=0 dh=10 dv=0
EndChar

StartChar: C
Encoding: 67 67 45
Width: 568
GlyphClass: 2
Flags: W
AnchorPoint: "Anchor-18" 353 349 basechar 0
AnchorPoint: "Anchor-17" 0 0 basechar 0
AnchorPoint: "Anchor-16" 351 691 basechar 0
AnchorPoint: "Anchor-15" 0 0 basechar 0
AnchorPoint: "Anchor-14" 344 0 basechar 0
LayerCount: 2
Fore
SplineSet
455 688 m 128,-1,1
 502 670 502 670 547 633 c 1,2,-1
 480 555 l 1,3,4
 419 604 419 604 352 604 c 0,5,6
 275 604 275 604 228.5 542 c 128,-1,7
 182 480 182 480 182 347 c 0,8,9
 182 217 182 217 228 154 c 128,-1,10
 274 91 274 91 352 91 c 0,11,12
 393 91 393 91 425 105.5 c 128,-1,13
 457 120 457 120 493 147 c 1,14,-1
 555 69 l 1,15,16
 520 33 520 33 466.5 9 c 128,-1,17
 413 -15 413 -15 347 -15 c 0,18,19
 257 -15 257 -15 188 27 c 128,-1,20
 119 69 119 69 81 150.5 c 128,-1,21
 43 232 43 232 43 347 c 0,22,23
 43 460 43 460 82.5 541 c 128,-1,24
 122 622 122 622 190.5 664 c 128,-1,25
 259 706 259 706 345 706 c 0,26,0
 408 706 408 706 455 688 c 128,-1,1
EndSplineSet
Substitution2: "'c2sc' Capitals to Small Capitals lookup 26 subtable" c.sc
Substitution2: "'aalt' Access All Alternates lookup 0 subtable" c.sc
Position2: "'cpsp' Capital Spacing lookup 0 subtable" dx=5 dy=0 dh=10 dv=0
EndChar

StartChar: Ccedilla
Encoding: 199 199 49
Width: 568
GlyphClass: 2
Flags: W
AnchorPoint: "Anchor-18" 353 349 basechar 0
AnchorPoint: "Anchor-17" 0 0 basechar 0
AnchorPoint: "Anchor-16" 351 691 basechar 0
AnchorPoint: "Anchor-15" 0 0 basechar 0
AnchorPoint: "Anchor-14" 362 -253 basechar 0
LayerCount: 2
Fore
SplineSet
479.5 15.5 m 128,-1,1
 435 -7 435 -7 380 -13 c 1,2,-1
 380 -52 l 1,3,4
 430 -57 430 -57 454.5 -81.5 c 128,-1,5
 479 -106 479 -106 479 -144 c 0,6,7
 479 -194 479 -194 441 -223.5 c 128,-1,8
 403 -253 403 -253 342 -253 c 0,9,10
 311 -253 311 -253 284 -245.5 c 128,-1,11
 257 -238 257 -238 239 -225 c 1,12,-1
 270 -162 l 1,13,14
 300 -178 300 -178 333 -178 c 0,15,16
 382 -178 382 -178 382 -144 c 0,17,18
 382 -124 382 -124 360.5 -115 c 128,-1,19
 339 -106 339 -106 291 -106 c 1,20,-1
 303 -12 l 1,21,22
 184 3 184 3 113.5 96 c 128,-1,23
 43 189 43 189 43 347 c 0,24,25
 43 460 43 460 82.5 541 c 128,-1,26
 122 622 122 622 190.5 664 c 128,-1,27
 259 706 259 706 345 706 c 0,28,29
 408 706 408 706 455 688 c 128,-1,30
 502 670 502 670 547 633 c 1,31,-1
 480 555 l 1,32,33
 419 604 419 604 352 604 c 0,34,35
 275 604 275 604 228.5 542 c 128,-1,36
 182 480 182 480 182 347 c 0,37,38
 182 217 182 217 228 154 c 128,-1,39
 274 91 274 91 352 91 c 0,40,41
 393 91 393 91 425 105.5 c 128,-1,42
 457 120 457 120 493 147 c 1,43,-1
 555 69 l 1,44,0
 524 38 524 38 479.5 15.5 c 128,-1,1
EndSplineSet
Substitution2: "'c2sc' Capitals to Small Capitals lookup 26 subtable" ccedilla.sc
Substitution2: "'aalt' Access All Alternates lookup 0 subtable" ccedilla.sc
Position2: "'cpsp' Capital Spacing lookup 0 subtable" dx=5 dy=0 dh=10 dv=0
EndChar

StartChar: uniA7B3
Encoding: 42931 42931 52
Width: 554
GlyphClass: 2
Flags: W
AnchorPoint: "Anchor-18" 0 0 basechar 0
AnchorPoint: "Anchor-17" 0 0 basechar 0
AnchorPoint: "Anchor-16" 277 691 basechar 0
AnchorPoint: "Anchor-15" 0 0 basechar 0
AnchorPoint: "Anchor-14" 277 -206 basechar 0
LayerCount: 2
Fore
SplineSet
354 303 m 1,0,-1
 554 -147 l 1,1,-1
 407 -147 l 1,2,-1
 274 212 l 1,3,-1
 141 -147 l 1,4,-1
 0 -147 l 1,5,-1
 195 297 l 1,6,-1
 16 691 l 1,7,-1
 163 691 l 1,8,-1
 276 382 l 1,9,-1
 393 691 l 1,10,-1
 534 691 l 1,11,-1
 354 303 l 1,0,-1
EndSplineSet
Substitution2: "'c2sc' Capitals to Small Capitals lookup 26 subtable" uniAB53.sc
Substitution2: "'aalt' Access All Alternates lookup 0 subtable" uniAB53.sc
Position2: "'cpsp' Capital Spacing lookup 0 subtable" dx=5 dy=0 dh=10 dv=0
EndChar

StartChar: uni0187
Encoding: 391 391 53
Width: 568
GlyphClass: 2
Flags: W
AnchorPoint: "Anchor-18" 0 0 basechar 0
AnchorPoint: "Anchor-17" 0 0 basechar 0
AnchorPoint: "Anchor-16" 274 708 basechar 0
AnchorPoint: "Anchor-15" 0 0 basechar 0
AnchorPoint: "Anchor-14" 284 0 basechar 0
LayerCount: 2
Fore
SplineSet
716 805 m 1,1,-1
 675 724 l 1,2,3
 656 735 656 735 640 740 c 128,-1,4
 624 745 624 745 604 745 c 0,5,6
 547 745 547 745 547 678 c 2,7,-1
 547 633 l 1,8,-1
 488 564 l 1,9,10
 421 604 421 604 351 604 c 0,11,12
 274 604 274 604 228 542 c 128,-1,13
 182 480 182 480 182 347 c 0,14,15
 182 216 182 216 228 153.5 c 128,-1,16
 274 91 274 91 353 91 c 0,17,18
 393 91 393 91 424 106 c 128,-1,19
 455 121 455 121 493 149 c 1,20,-1
 555 69 l 1,21,22
 520 33 520 33 466.5 9 c 128,-1,23
 413 -15 413 -15 347 -15 c 0,24,25
 257 -15 257 -15 188 27 c 128,-1,26
 119 69 119 69 81 150.5 c 128,-1,27
 43 232 43 232 43 347 c 0,28,29
 43 459 43 459 82.5 540.5 c 128,-1,30
 122 622 122 622 188.5 664 c 128,-1,31
 255 706 255 706 335 706 c 0,32,33
 389 706 389 706 429 689 c 1,34,35
 432 763 432 763 473 803 c 128,-1,36
 514 843 514 843 590 843 c 0,37,0
 660 843 660 843 716 805 c 1,1,-1
EndSplineSet
Substitution2: "'c2sc' Capitals to Small Capitals lookup 26 subtable" uni0188.sc
Substitution2: "'aalt' Access All Alternates lookup 0 subtable" uni0188.sc
Position2: "'cpsp' Capital Spacing lookup 0 subtable" dx=5 dy=0 dh=10 dv=0
EndChar

StartChar: uni023B
Encoding: 571 571 54
Width: 568
GlyphClass: 2
Flags: W
AnchorPoint: "Anchor-18" 353 349 basechar 0
AnchorPoint: "Anchor-17" 0 0 basechar 0
AnchorPoint: "Anchor-16" 284 691 basechar 0
AnchorPoint: "Anchor-15" 0 0 basechar 0
AnchorPoint: "Anchor-14" 284 0 basechar 0
LayerCount: 2
Fore
SplineSet
555 69 m 1,0,1
 520 33 520 33 466.5 9 c 128,-1,2
 413 -15 413 -15 347 -15 c 0,3,4
 309 -15 309 -15 271 -7 c 1,5,-1
 254 -72 l 1,6,-1
 202 -60 l 1,7,-1
 221 10 l 1,8,9
 137 47 137 47 90 133 c 128,-1,10
 43 219 43 219 43 347 c 0,11,12
 43 460 43 460 82.5 541 c 128,-1,13
 122 622 122 622 190.5 664 c 128,-1,14
 259 706 259 706 345 706 c 0,15,16
 374 706 374 706 404 701 c 1,17,-1
 418 753 l 1,18,-1
 469 741 l 1,19,-1
 455 688 l 1,20,21
 501 671 501 671 547 633 c 1,22,-1
 480 555 l 1,23,24
 457 574 457 574 428 587 c 1,25,-1
 299 99 l 1,26,27
 326 91 326 91 352 91 c 0,28,29
 393 91 393 91 425 105.5 c 128,-1,30
 457 120 457 120 493 147 c 1,31,-1
 555 69 l 1,0,1
252 127 m 1,33,-1
 378 602 l 1,34,35
 360 604 360 604 352 604 c 0,36,37
 275 604 275 604 228.5 542 c 128,-1,38
 182 480 182 480 182 347 c 0,39,32
 182 189 182 189 252 127 c 1,33,-1
EndSplineSet
Substitution2: "'c2sc' Capitals to Small Capitals lookup 26 subtable" uni023C.sc
Substitution2: "'aalt' Access All Alternates lookup 0 subtable" uni023C.sc
Position2: "'cpsp' Capital Spacing lookup 0 subtable" dx=5 dy=0 dh=10 dv=0
EndChar

StartChar: D
Encoding: 68 68 55
Width: 648
GlyphClass: 2
Flags: W
AnchorPoint: "Anchor-18" 325 346 basechar 0
AnchorPoint: "Anchor-17" 0 0 basechar 0
AnchorPoint: "Anchor-16" 299 691 basechar 0
AnchorPoint: "Anchor-15" 0 0 basechar 0
AnchorPoint: "Anchor-14" 303 0 basechar 0
LayerCount: 2
Fore
SplineSet
508.5 618 m 128,-1,1
 605 545 605 545 605 349 c 0,2,3
 605 157 605 157 510 78.5 c 128,-1,4
 415 0 415 0 269 0 c 2,5,-1
 81 0 l 1,6,-1
 81 691 l 1,7,-1
 251 691 l 2,8,0
 412 691 412 691 508.5 618 c 128,-1,1
213 592 m 1,9,-1
 213 99 l 1,10,-1
 278 99 l 2,11,12
 366 99 366 99 416 153.5 c 128,-1,13
 466 208 466 208 466 349 c 0,14,15
 466 447 466 447 440.5 500.5 c 128,-1,16
 415 554 415 554 373.5 573 c 128,-1,17
 332 592 332 592 274 592 c 2,18,-1
 213 592 l 1,9,-1
EndSplineSet
Substitution2: "'c2sc' Capitals to Small Capitals lookup 26 subtable" d.sc
Substitution2: "'aalt' Access All Alternates lookup 0 subtable" d.sc
Position2: "'cpsp' Capital Spacing lookup 0 subtable" dx=5 dy=0 dh=10 dv=0
EndChar

StartChar: Eth
Encoding: 208 208 59
Width: 661
GlyphClass: 2
Flags: W
AnchorPoint: "Anchor-18" 338 346 basechar 0
AnchorPoint: "Anchor-17" 0 0 basechar 0
AnchorPoint: "Anchor-16" 312 691 basechar 0
AnchorPoint: "Anchor-15" 0 0 basechar 0
AnchorPoint: "Anchor-14" 316 0 basechar 0
LayerCount: 2
Fore
SplineSet
521.5 618 m 128,-1,1
 618 545 618 545 618 349 c 0,2,3
 618 157 618 157 523 78.5 c 128,-1,4
 428 0 428 0 282 0 c 2,5,-1
 94 0 l 1,6,-1
 94 310 l 1,7,-1
 17 310 l 1,8,-1
 17 396 l 1,9,-1
 94 396 l 1,10,-1
 94 691 l 1,11,-1
 264 691 l 2,12,0
 425 691 425 691 521.5 618 c 128,-1,1
429 153.5 m 128,-1,14
 479 208 479 208 479 349 c 0,15,16
 479 447 479 447 453.5 500.5 c 128,-1,17
 428 554 428 554 386.5 573 c 128,-1,18
 345 592 345 592 287 592 c 2,19,-1
 226 592 l 1,20,-1
 226 396 l 1,21,-1
 371 396 l 1,22,-1
 371 310 l 1,23,-1
 226 310 l 1,24,-1
 226 99 l 1,25,-1
 291 99 l 2,26,13
 379 99 379 99 429 153.5 c 128,-1,14
EndSplineSet
Substitution2: "'c2sc' Capitals to Small Capitals lookup 26 subtable" eth.sc
Substitution2: "'aalt' Access All Alternates lookup 0 subtable" eth.sc
Position2: "'cpsp' Capital Spacing lookup 0 subtable" dx=5 dy=0 dh=10 dv=0
EndChar

StartChar: uni018A
Encoding: 394 394 65
Width: 763
GlyphClass: 2
Flags: W
AnchorPoint: "Anchor-18" 440 346 basechar 0
AnchorPoint: "Anchor-17" 0 0 basechar 0
AnchorPoint: "Anchor-16" 414 691 basechar 0
AnchorPoint: "Anchor-15" 0 0 basechar 0
AnchorPoint: "Anchor-14" 418 0 basechar 0
LayerCount: 2
Fore
SplineSet
623.5 618 m 128,-1,1
 720 545 720 545 720 349 c 0,2,3
 720 157 720 157 625 78.5 c 128,-1,4
 530 0 530 0 384 0 c 2,5,-1
 196 0 l 1,6,-1
 196 593 l 1,7,-1
 166 593 l 2,8,9
 116 593 116 593 116 548 c 0,10,11
 116 531 116 531 120 516 c 128,-1,12
 124 501 124 501 133 479 c 1,13,-1
 49 440 l 1,14,15
 29 470 29 470 18 496.5 c 128,-1,16
 7 523 7 523 7 554 c 0,17,18
 7 617 7 617 51 654 c 128,-1,19
 95 691 95 691 173 691 c 2,20,-1
 366 691 l 2,21,0
 527 691 527 691 623.5 618 c 128,-1,1
531 153.5 m 128,-1,23
 581 208 581 208 581 349 c 0,24,25
 581 447 581 447 555.5 500.5 c 128,-1,26
 530 554 530 554 488.5 573 c 128,-1,27
 447 592 447 592 389 592 c 2,28,-1
 328 592 l 1,29,-1
 328 99 l 1,30,-1
 393 99 l 2,31,22
 481 99 481 99 531 153.5 c 128,-1,23
EndSplineSet
Substitution2: "'c2sc' Capitals to Small Capitals lookup 26 subtable" uni0257.sc
Substitution2: "'aalt' Access All Alternates lookup 0 subtable" uni0257.sc
Position2: "'cpsp' Capital Spacing lookup 0 subtable" dx=5 dy=0 dh=10 dv=0
EndChar

StartChar: uni018B
Encoding: 395 395 67
Width: 588
GlyphClass: 2
Flags: W
AnchorPoint: "Anchor-18" 0 0 basechar 0
AnchorPoint: "Anchor-17" 0 0 basechar 0
AnchorPoint: "Anchor-16" 294 691 basechar 0
AnchorPoint: "Anchor-15" 0 0 basechar 0
AnchorPoint: "Anchor-14" 294 0 basechar 0
LayerCount: 2
Fore
SplineSet
507 690 m 1,0,-1
 507 0 l 1,1,-1
 285 0 l 2,2,3
 165 0 165 0 94 53.5 c 128,-1,4
 23 107 23 107 23 218 c 0,5,6
 23 324 23 324 94.5 381.5 c 128,-1,7
 166 439 166 439 293 439 c 2,8,-1
 375 439 l 1,9,-1
 375 588 l 1,10,-1
 107 588 l 1,11,-1
 107 691 l 1,12,-1
 508 691 l 1,13,-1
 507 690 l 1,0,-1
375 99 m 1,14,-1
 375 343 l 1,15,-1
 300 343 l 2,16,17
 231 343 231 343 196.5 312.5 c 128,-1,18
 162 282 162 282 162 218 c 0,19,20
 162 153 162 153 197 126 c 128,-1,21
 232 99 232 99 297 99 c 2,22,-1
 375 99 l 1,14,-1
EndSplineSet
Substitution2: "'c2sc' Capitals to Small Capitals lookup 26 subtable" uni018C.sc
Substitution2: "'aalt' Access All Alternates lookup 0 subtable" uni018C.sc
Position2: "'cpsp' Capital Spacing lookup 0 subtable" dx=5 dy=0 dh=10 dv=0
EndChar

StartChar: E
Encoding: 69 69 70
Width: 530
GlyphClass: 2
Flags: W
AnchorPoint: "Anchor-18" 0 0 basechar 0
AnchorPoint: "Anchor-17" 0 0 basechar 0
AnchorPoint: "Anchor-16" 284 691 basechar 0
AnchorPoint: "Anchor-15" 456 0 basechar 0
AnchorPoint: "Anchor-14" 284 0 basechar 0
LayerCount: 2
Fore
SplineSet
482 691 m 1,0,-1
 468 593 l 1,1,-1
 213 593 l 1,2,-1
 213 400 l 1,3,-1
 435 400 l 1,4,-1
 435 302 l 1,5,-1
 213 302 l 1,6,-1
 213 99 l 1,7,-1
 486 99 l 1,8,-1
 486 0 l 1,9,-1
 81 0 l 1,10,-1
 81 691 l 1,11,-1
 482 691 l 1,0,-1
EndSplineSet
Substitution2: "'c2sc' Capitals to Small Capitals lookup 26 subtable" e.sc
Substitution2: "'aalt' Access All Alternates lookup 0 subtable" e.sc
Position2: "'cpsp' Capital Spacing lookup 0 subtable" dx=5 dy=0 dh=10 dv=0
EndChar

StartChar: uni0228
Encoding: 552 552 74
Width: 530
GlyphClass: 2
Flags: W
AnchorPoint: "Anchor-18" 0 0 basechar 0
AnchorPoint: "Anchor-17" 0 0 basechar 0
AnchorPoint: "Anchor-16" 284 691 basechar 0
AnchorPoint: "Anchor-15" 456 0 basechar 0
AnchorPoint: "Anchor-14" 284 0 basechar 0
LayerCount: 2
Fore
SplineSet
320 0 m 1,0,-1
 320 -52 l 1,1,2
 370 -57 370 -57 394.5 -81.5 c 128,-1,3
 419 -106 419 -106 419 -144 c 0,4,5
 419 -194 419 -194 381 -223.5 c 128,-1,6
 343 -253 343 -253 282 -253 c 0,7,8
 251 -253 251 -253 224 -245.5 c 128,-1,9
 197 -238 197 -238 179 -225 c 1,10,-1
 210 -162 l 1,11,12
 240 -178 240 -178 273 -178 c 0,13,14
 322 -178 322 -178 322 -144 c 0,15,16
 322 -124 322 -124 300.5 -115 c 128,-1,17
 279 -106 279 -106 231 -106 c 1,18,-1
 244 0 l 1,19,-1
 81 0 l 1,20,-1
 81 691 l 1,21,-1
 482 691 l 1,22,-1
 468 593 l 1,23,-1
 213 593 l 1,24,-1
 213 400 l 1,25,-1
 435 400 l 1,26,-1
 435 302 l 1,27,-1
 213 302 l 1,28,-1
 213 99 l 1,29,-1
 486 99 l 1,30,-1
 486 0 l 1,31,-1
 320 0 l 1,0,-1
EndSplineSet
Substitution2: "'c2sc' Capitals to Small Capitals lookup 26 subtable" uni0229.sc
Substitution2: "'aalt' Access All Alternates lookup 0 subtable" uni0229.sc
Position2: "'cpsp' Capital Spacing lookup 0 subtable" dx=5 dy=0 dh=10 dv=0
EndChar

StartChar: Eogonek
Encoding: 280 280 89
Width: 530
GlyphClass: 2
Flags: W
AnchorPoint: "Anchor-18" 0 0 basechar 0
AnchorPoint: "Anchor-17" 0 0 basechar 0
AnchorPoint: "Anchor-16" 284 691 basechar 0
AnchorPoint: "Anchor-15" 456 0 basechar 0
AnchorPoint: "Anchor-14" 284 0 basechar 0
LayerCount: 2
Fore
SplineSet
486 99 m 1,0,-1
 486 0 l 1,1,-1
 446 0 l 1,2,3
 377 -28 377 -28 351 -54 c 128,-1,4
 325 -80 325 -80 325 -108 c 0,5,6
 325 -154 325 -154 380 -154 c 0,7,8
 407 -154 407 -154 441 -147 c 1,9,-1
 431 -232 l 1,10,11
 394 -239 394 -239 364 -239 c 0,12,13
 303 -239 303 -239 265 -209 c 128,-1,14
 227 -179 227 -179 227 -130 c 0,15,16
 227 -50 227 -50 317 0 c 1,17,-1
 81 0 l 1,18,-1
 81 691 l 1,19,-1
 482 691 l 1,20,-1
 468 593 l 1,21,-1
 213 593 l 1,22,-1
 213 400 l 1,23,-1
 435 400 l 1,24,-1
 435 302 l 1,25,-1
 213 302 l 1,26,-1
 213 99 l 1,27,-1
 486 99 l 1,0,-1
EndSplineSet
Substitution2: "'c2sc' Capitals to Small Capitals lookup 26 subtable" eogonek.sc
Substitution2: "'aalt' Access All Alternates lookup 0 subtable" eogonek.sc
Position2: "'cpsp' Capital Spacing lookup 0 subtable" dx=5 dy=0 dh=10 dv=0
EndChar

StartChar: uni0190
Encoding: 400 400 90
Width: 532
GlyphClass: 2
Flags: W
AnchorPoint: "Anchor-18" 0 0 basechar 0
AnchorPoint: "Anchor-17" 0 0 basechar 0
AnchorPoint: "Anchor-16" 266 691 basechar 0
AnchorPoint: "Anchor-15" 0 0 basechar 0
AnchorPoint: "Anchor-14" 266 0 basechar 0
LayerCount: 2
Fore
SplineSet
510 617 m 1,1,-1
 443 546 l 1,2,3
 376 606 376 606 299 606 c 0,4,5
 245 606 245 606 219 580 c 128,-1,6
 193 554 193 554 193 513 c 0,7,8
 193 467 193 467 224.5 440.5 c 128,-1,9
 256 414 256 414 310 414 c 2,10,-1
 381 414 l 1,11,-1
 364 315 l 1,12,-1
 312 315 l 2,13,14
 244 315 244 315 209.5 285.5 c 128,-1,15
 175 256 175 256 175 202 c 256,16,17
 175 148 175 148 209.5 118 c 128,-1,18
 244 88 244 88 306 88 c 0,19,20
 351 88 351 88 387 104 c 128,-1,21
 423 120 423 120 455 152 c 1,22,-1
 529 81 l 1,23,24
 441 -15 441 -15 295 -15 c 0,25,26
 220 -15 220 -15 161 11.5 c 128,-1,27
 102 38 102 38 68.5 86 c 128,-1,28
 35 134 35 134 35 196 c 0,29,30
 35 272 35 272 80.5 316 c 128,-1,31
 126 360 126 360 202 368 c 1,32,33
 132 383 132 383 94.5 424 c 128,-1,34
 57 465 57 465 57 527 c 0,35,36
 57 578 57 578 84.5 618.5 c 128,-1,37
 112 659 112 659 164 682.5 c 128,-1,38
 216 706 216 706 286 706 c 0,39,0
 416 706 416 706 510 617 c 1,1,-1
EndSplineSet
Substitution2: "'c2sc' Capitals to Small Capitals lookup 26 subtable" uni025B.sc
Substitution2: "'aalt' Access All Alternates lookup 0 subtable" uni025B.sc
Position2: "'cpsp' Capital Spacing lookup 0 subtable" dx=5 dy=0 dh=10 dv=0
EndChar

StartChar: uni018E
Encoding: 398 398 91
Width: 530
GlyphClass: 2
Flags: W
AnchorPoint: "Anchor-18" 0 0 basechar 0
AnchorPoint: "Anchor-17" 0 0 basechar 0
AnchorPoint: "Anchor-16" 237 691 basechar 0
AnchorPoint: "Anchor-15" 0 0 basechar 0
AnchorPoint: "Anchor-14" 235 0 basechar 0
LayerCount: 2
Fore
SplineSet
50 691 m 1,0,-1
 449 691 l 1,1,-1
 449 0 l 1,2,-1
 44 0 l 1,3,-1
 44 99 l 1,4,-1
 317 99 l 1,5,-1
 317 302 l 1,6,-1
 95 302 l 1,7,-1
 95 400 l 1,8,-1
 317 400 l 1,9,-1
 317 593 l 1,10,-1
 50 593 l 1,11,-1
 50 691 l 1,0,-1
EndSplineSet
Substitution2: "'c2sc' Capitals to Small Capitals lookup 26 subtable" uni0258.sc
Substitution2: "'aalt' Access All Alternates lookup 0 subtable" uni0258.sc
Position2: "'cpsp' Capital Spacing lookup 0 subtable" dx=5 dy=0 dh=10 dv=0
EndChar

StartChar: uni0246
Encoding: 582 582 93
Width: 530
GlyphClass: 2
Flags: W
AnchorPoint: "Anchor-18" 0 0 basechar 0
AnchorPoint: "Anchor-17" 0 0 basechar 0
AnchorPoint: "Anchor-16" 265 691 basechar 0
AnchorPoint: "Anchor-15" 456 0 basechar 0
AnchorPoint: "Anchor-14" 265 0 basechar 0
LayerCount: 2
Fore
SplineSet
486 99 m 1,0,-1
 486 0 l 1,1,-1
 247 0 l 1,2,-1
 228 -72 l 1,3,-1
 175 -60 l 1,4,-1
 191 0 l 1,5,-1
 81 0 l 1,6,-1
 81 691 l 1,7,-1
 375 691 l 1,8,-1
 391 753 l 1,9,-1
 443 741 l 1,10,-1
 430 691 l 1,11,-1
 482 691 l 1,12,-1
 468 593 l 1,13,-1
 404 593 l 1,14,-1
 353 400 l 1,15,-1
 435 400 l 1,16,-1
 435 302 l 1,17,-1
 327 302 l 1,18,-1
 273 99 l 1,19,-1
 486 99 l 1,0,-1
213 593 m 1,20,-1
 213 400 l 1,21,-1
 297 400 l 1,22,-1
 348 593 l 1,23,-1
 213 593 l 1,20,-1
213 99 m 1,24,-1
 217 99 l 1,25,-1
 271 302 l 1,26,-1
 213 302 l 1,27,-1
 213 99 l 1,24,-1
EndSplineSet
Substitution2: "'c2sc' Capitals to Small Capitals lookup 26 subtable" uni0247.sc
Substitution2: "'aalt' Access All Alternates lookup 0 subtable" uni0247.sc
Position2: "'cpsp' Capital Spacing lookup 0 subtable" dx=5 dy=0 dh=10 dv=0
EndChar

StartChar: uni01B7
Encoding: 439 439 95
Width: 533
GlyphClass: 2
Flags: W
AnchorPoint: "Anchor-18" 0 0 basechar 0
AnchorPoint: "Anchor-17" 0 0 basechar 0
AnchorPoint: "Anchor-16" 255 691 basechar 0
AnchorPoint: "Anchor-15" 0 0 basechar 0
AnchorPoint: "Anchor-14" 266 0 basechar 0
LayerCount: 2
Fore
SplineSet
440.5 347 m 128,-1,1
 498 295 498 295 498 202 c 0,2,3
 498 140 498 140 466.5 90.5 c 128,-1,4
 435 41 435 41 376 13 c 128,-1,5
 317 -15 317 -15 236 -15 c 0,6,7
 159 -15 159 -15 103.5 9.5 c 128,-1,8
 48 34 48 34 7 82 c 1,9,-1
 78 151 l 1,10,11
 112 117 112 117 147 102 c 128,-1,12
 182 87 182 87 229 87 c 0,13,14
 292 87 292 87 326 118.5 c 128,-1,15
 360 150 360 150 360 206 c 0,16,17
 360 265 360 265 325.5 291 c 128,-1,18
 291 317 291 317 221 317 c 2,19,-1
 127 317 l 1,20,-1
 127 398 l 1,21,-1
 318 591 l 1,22,-1
 42 591 l 1,23,-1
 42 691 l 1,24,-1
 468 691 l 1,25,-1
 468 593 l 1,26,-1
 273 400 l 1,27,0
 383 399 383 399 440.5 347 c 128,-1,1
EndSplineSet
Substitution2: "'c2sc' Capitals to Small Capitals lookup 26 subtable" uni0292.sc
Substitution2: "'aalt' Access All Alternates lookup 0 subtable" uni0292.sc
Position2: "'cpsp' Capital Spacing lookup 0 subtable" dx=5 dy=0 dh=10 dv=0
EndChar

StartChar: uni01B8
Encoding: 440 440 97
Width: 533
GlyphClass: 2
Flags: W
AnchorPoint: "Anchor-18" 0 0 basechar 0
AnchorPoint: "Anchor-17" 0 0 basechar 0
AnchorPoint: "Anchor-16" 266 691 basechar 0
AnchorPoint: "Anchor-15" 0 0 basechar 0
AnchorPoint: "Anchor-14" 266 0 basechar 0
LayerCount: 2
Fore
SplineSet
526 82 m 1,0,1
 484 33 484 33 427.5 9 c 128,-1,2
 371 -15 371 -15 290 -15 c 0,3,4
 213 -15 213 -15 155 12 c 128,-1,5
 97 39 97 39 66 87.5 c 128,-1,6
 35 136 35 136 35 197 c 0,7,8
 35 287 35 287 94.5 342.5 c 128,-1,9
 154 398 154 398 259 400 c 1,10,-1
 65 593 l 1,11,-1
 65 691 l 1,12,-1
 490 691 l 1,13,-1
 490 591 l 1,14,-1
 216 591 l 1,15,-1
 406 397 l 1,16,-1
 406 317 l 1,17,-1
 312 317 l 2,18,19
 172 317 172 317 172 200 c 0,20,21
 172 148 172 148 205 117.5 c 128,-1,22
 238 87 238 87 297 87 c 0,23,24
 348 87 348 87 384.5 102 c 128,-1,25
 421 117 421 117 455 151 c 1,26,-1
 526 82 l 1,0,1
EndSplineSet
Substitution2: "'c2sc' Capitals to Small Capitals lookup 26 subtable" uni01B9.sc
Substitution2: "'aalt' Access All Alternates lookup 0 subtable" uni01B9.sc
Position2: "'cpsp' Capital Spacing lookup 0 subtable" dx=5 dy=0 dh=10 dv=0
EndChar

StartChar: F
Encoding: 70 70 98
Width: 489
GlyphClass: 2
Flags: W
AnchorPoint: "Anchor-18" 0 0 basechar 0
AnchorPoint: "Anchor-17" 0 0 basechar 0
AnchorPoint: "Anchor-16" 287 691 basechar 0
AnchorPoint: "Anchor-15" 0 0 basechar 0
AnchorPoint: "Anchor-14" 147 0 basechar 0
LayerCount: 2
Fore
SplineSet
81 0 m 1,0,-1
 81 691 l 1,1,-1
 472 691 l 1,2,-1
 458 593 l 1,3,-1
 213 593 l 1,4,-1
 213 386 l 1,5,-1
 426 386 l 1,6,-1
 426 288 l 1,7,-1
 213 288 l 1,8,-1
 213 0 l 1,9,-1
 81 0 l 1,0,-1
EndSplineSet
Substitution2: "'c2sc' Capitals to Small Capitals lookup 26 subtable" f.sc
Substitution2: "'aalt' Access All Alternates lookup 0 subtable" f.sc
Position2: "'cpsp' Capital Spacing lookup 0 subtable" dx=5 dy=0 dh=10 dv=0
EndChar

StartChar: uni0191
Encoding: 401 401 100
Width: 489
GlyphClass: 2
Flags: W
AnchorPoint: "Anchor-18" 0 0 basechar 0
AnchorPoint: "Anchor-17" 0 0 basechar 0
AnchorPoint: "Anchor-16" 287 691 basechar 0
AnchorPoint: "Anchor-15" 0 0 basechar 0
AnchorPoint: "Anchor-14" 147 0 basechar 0
LayerCount: 2
Fore
SplineSet
213 593 m 1,0,-1
 213 386 l 1,1,-1
 426 386 l 1,2,-1
 426 288 l 1,3,-1
 213 288 l 1,4,-1
 213 -43 l 2,5,6
 213 -129 213 -129 165.5 -173.5 c 128,-1,7
 118 -218 118 -218 35 -218 c 0,8,9
 -40 -218 -40 -218 -94 -177 c 1,10,-1
 -48 -97 l 1,11,12
 -28 -108 -28 -108 -13 -113 c 128,-1,13
 2 -118 2 -118 23 -118 c 0,14,15
 81 -118 81 -118 81 -51 c 2,16,-1
 81 691 l 1,17,-1
 472 691 l 1,18,-1
 458 593 l 1,19,-1
 213 593 l 1,0,-1
EndSplineSet
Substitution2: "'c2sc' Capitals to Small Capitals lookup 26 subtable" uni0191.sc
Substitution2: "'aalt' Access All Alternates lookup 0 subtable" uni0191.sc
Position2: "'cpsp' Capital Spacing lookup 0 subtable" dx=5 dy=0 dh=10 dv=0
EndChar

StartChar: G
Encoding: 71 71 101
Width: 638
GlyphClass: 2
Flags: W
AnchorPoint: "Anchor-18" 0 0 basechar 0
AnchorPoint: "Anchor-17" 0 0 basechar 0
AnchorPoint: "Anchor-16" 353 691 basechar 0
AnchorPoint: "Anchor-15" 0 0 basechar 0
AnchorPoint: "Anchor-14" 345 0 basechar 0
LayerCount: 2
Fore
SplineSet
480.5 685.5 m 128,-1,1
 533 665 533 665 580 625 c 1,2,-1
 509 551 l 1,3,4
 472 580 472 580 439.5 593 c 128,-1,5
 407 606 407 606 364 606 c 0,6,7
 284 606 284 606 233 542 c 128,-1,8
 182 478 182 478 182 346 c 0,9,10
 182 208 182 208 222.5 147 c 128,-1,11
 263 86 263 86 346 86 c 0,12,13
 409 86 409 86 456 113 c 1,14,-1
 456 293 l 1,15,-1
 352 293 l 1,16,-1
 338 391 l 1,17,-1
 586 391 l 1,18,-1
 586 53 l 1,19,20
 474 -15 474 -15 348 -15 c 0,21,22
 200 -15 200 -15 121.5 77 c 128,-1,23
 43 169 43 169 43 346 c 0,24,25
 43 459 43 459 85.5 540.5 c 128,-1,26
 128 622 128 622 200 664 c 128,-1,27
 272 706 272 706 360 706 c 0,28,0
 428 706 428 706 480.5 685.5 c 128,-1,1
EndSplineSet
Substitution2: "'c2sc' Capitals to Small Capitals lookup 26 subtable" g.sc
Substitution2: "'aalt' Access All Alternates lookup 0 subtable" g.sc
Position2: "'cpsp' Capital Spacing lookup 0 subtable" dx=5 dy=0 dh=10 dv=0
EndChar

StartChar: uni0194
Encoding: 404 404 103
Width: 562
GlyphClass: 2
Flags: W
AnchorPoint: "Anchor-18" 0 0 basechar 0
AnchorPoint: "Anchor-17" 0 0 basechar 0
AnchorPoint: "Anchor-16" 281 691 basechar 0
AnchorPoint: "Anchor-15" 0 0 basechar 0
AnchorPoint: "Anchor-14" 281 -206 basechar 0
LayerCount: 2
Fore
SplineSet
355 82 m 1,0,1
 390 20 390 20 405 -20.5 c 128,-1,2
 420 -61 420 -61 420 -104 c 0,3,4
 420 -158 420 -158 386 -188 c 128,-1,5
 352 -218 352 -218 283 -218 c 256,6,7
 214 -218 214 -218 180 -188 c 128,-1,8
 146 -158 146 -158 146 -104 c 0,9,10
 146 -67 146 -67 161 -26 c 128,-1,11
 176 15 176 15 211 82 c 1,12,-1
 -5 691 l 1,13,-1
 137 691 l 1,14,-1
 284 170 l 1,15,-1
 432 691 l 1,16,-1
 567 691 l 1,17,-1
 355 82 l 1,0,1
305.5 -52 m 128,-1,19
 298 -29 298 -29 283 7 c 1,20,21
 253 -61 253 -61 253 -95 c 0,22,23
 253 -128 253 -128 283 -128 c 256,24,25
 313 -128 313 -128 313 -94 c 0,26,18
 313 -75 313 -75 305.5 -52 c 128,-1,19
EndSplineSet
Substitution2: "'c2sc' Capitals to Small Capitals lookup 26 subtable" uni0194.sc
Substitution2: "'aalt' Access All Alternates lookup 0 subtable" uni0194.sc
Position2: "'cpsp' Capital Spacing lookup 0 subtable" dx=5 dy=0 dh=10 dv=0
EndChar

StartChar: uni0193
Encoding: 403 403 109
Width: 602
GlyphClass: 2
Flags: W
AnchorPoint: "Anchor-18" 0 0 basechar 0
AnchorPoint: "Anchor-17" 0 0 basechar 0
AnchorPoint: "Anchor-16" 294 708 basechar 0
AnchorPoint: "Anchor-15" 0 0 basechar 0
AnchorPoint: "Anchor-14" 301 0 basechar 0
LayerCount: 2
Fore
SplineSet
750 805 m 1,1,-1
 708 724 l 1,2,3
 689 735 689 735 673.5 740 c 128,-1,4
 658 745 658 745 638 745 c 0,5,6
 580 745 580 745 580 678 c 2,7,-1
 580 625 l 1,8,-1
 516 558 l 1,9,10
 477 582 477 582 441 594 c 128,-1,11
 405 606 405 606 364 606 c 0,12,13
 284 606 284 606 233 542 c 128,-1,14
 182 478 182 478 182 346 c 0,15,16
 182 208 182 208 222.5 147 c 128,-1,17
 263 86 263 86 346 86 c 0,18,19
 409 86 409 86 456 113 c 1,20,-1
 456 293 l 1,21,-1
 352 293 l 1,22,-1
 338 391 l 1,23,-1
 586 391 l 1,24,-1
 586 53 l 1,25,26
 478 -15 478 -15 343 -15 c 0,27,28
 198 -15 198 -15 120.5 77 c 128,-1,29
 43 169 43 169 43 346 c 0,30,31
 43 458 43 458 85 539.5 c 128,-1,32
 127 621 127 621 196 663.5 c 128,-1,33
 265 706 265 706 344 706 c 0,34,35
 415 706 415 706 463 682 c 1,36,37
 464 759 464 759 505 801 c 128,-1,38
 546 843 546 843 624 843 c 0,39,0
 692 843 692 843 750 805 c 1,1,-1
EndSplineSet
Substitution2: "'c2sc' Capitals to Small Capitals lookup 26 subtable" uni0260.sc
Substitution2: "'aalt' Access All Alternates lookup 0 subtable" uni0260.sc
Position2: "'cpsp' Capital Spacing lookup 0 subtable" dx=5 dy=0 dh=10 dv=0
EndChar

StartChar: uni0241
Encoding: 577 577 110
Width: 489
GlyphClass: 2
Flags: W
AnchorPoint: "Anchor-18" 0 0 basechar 0
AnchorPoint: "Anchor-17" 0 0 basechar 0
AnchorPoint: "Anchor-16" 245 691 basechar 0
AnchorPoint: "Anchor-15" 0 0 basechar 0
AnchorPoint: "Anchor-14" 215 0 basechar 0
LayerCount: 2
Fore
SplineSet
148 325 m 1,0,-1
 211 342 l 2,1,2
 273 359 273 359 302 391.5 c 128,-1,3
 331 424 331 424 331 486 c 0,4,5
 331 541 331 541 302 573.5 c 128,-1,6
 273 606 273 606 220 606 c 0,7,8
 180 606 180 606 145 591.5 c 128,-1,9
 110 577 110 577 73 546 c 1,10,-1
 7 617 l 1,11,12
 56 662 56 662 111 684 c 128,-1,13
 166 706 166 706 233 706 c 0,14,15
 305 706 305 706 358.5 679 c 128,-1,16
 412 652 412 652 440.5 603.5 c 128,-1,17
 469 555 469 555 469 492 c 0,18,19
 469 404 469 404 426 357.5 c 128,-1,20
 383 311 383 311 305 284 c 2,21,-1
 281 276 l 1,22,-1
 281 0 l 1,23,-1
 148 0 l 1,24,-1
 148 325 l 1,0,-1
EndSplineSet
Substitution2: "'c2sc' Capitals to Small Capitals lookup 26 subtable" uni0294.sc
Substitution2: "'aalt' Access All Alternates lookup 0 subtable" uni0294.sc
Position2: "'cpsp' Capital Spacing lookup 0 subtable" dx=5 dy=0 dh=10 dv=0
EndChar

StartChar: uni01E4
Encoding: 484 484 111
Width: 654
GlyphClass: 2
Flags: W
AnchorPoint: "Anchor-18" 0 0 basechar 0
AnchorPoint: "Anchor-17" 0 0 basechar 0
AnchorPoint: "Anchor-16" 334 691 basechar 0
AnchorPoint: "Anchor-15" 0 0 basechar 0
AnchorPoint: "Anchor-14" 334 0 basechar 0
LayerCount: 2
Fore
SplineSet
651 173 m 1,0,-1
 586 173 l 1,1,-1
 586 53 l 1,2,3
 478 -15 478 -15 346 -15 c 0,4,5
 199 -15 199 -15 121 77 c 128,-1,6
 43 169 43 169 43 346 c 0,7,8
 43 459 43 459 85.5 540.5 c 128,-1,9
 128 622 128 622 199.5 664 c 128,-1,10
 271 706 271 706 358 706 c 0,11,12
 429 706 429 706 481.5 685.5 c 128,-1,13
 534 665 534 665 580 625 c 1,14,-1
 510 551 l 1,15,16
 472 580 472 580 439.5 593 c 128,-1,17
 407 606 407 606 364 606 c 0,18,19
 284 606 284 606 233 542 c 128,-1,20
 182 478 182 478 182 346 c 0,21,22
 182 208 182 208 222.5 147 c 128,-1,23
 263 86 263 86 346 86 c 0,24,25
 407 86 407 86 463 111 c 1,26,-1
 463 173 l 1,27,-1
 349 173 l 1,28,-1
 349 260 l 1,29,-1
 463 260 l 1,30,-1
 463 310 l 1,31,-1
 351 310 l 1,32,-1
 338 400 l 1,33,-1
 586 400 l 1,34,-1
 586 260 l 1,35,-1
 651 260 l 1,36,-1
 651 173 l 1,0,-1
EndSplineSet
Substitution2: "'c2sc' Capitals to Small Capitals lookup 26 subtable" uni01E5.sc
Substitution2: "'aalt' Access All Alternates lookup 0 subtable" uni01E5.sc
Position2: "'cpsp' Capital Spacing lookup 0 subtable" dx=5 dy=0 dh=10 dv=0
EndChar

StartChar: uni021C
Encoding: 540 540 112
Width: 513
GlyphClass: 2
Flags: W
AnchorPoint: "Anchor-18" 0 0 basechar 0
AnchorPoint: "Anchor-17" 0 0 basechar 0
AnchorPoint: "Anchor-16" 256 691 basechar 0
AnchorPoint: "Anchor-15" 0 0 basechar 0
AnchorPoint: "Anchor-14" 256 -206 basechar 0
LayerCount: 2
Fore
SplineSet
353.5 682 m 128,-1,1
 404 658 404 658 430 616.5 c 128,-1,2
 456 575 456 575 456 521 c 0,3,4
 456 456 456 456 418.5 414.5 c 128,-1,5
 381 373 381 373 311 358 c 1,6,7
 388 350 388 350 433 310 c 128,-1,8
 478 270 478 270 478 195 c 0,9,10
 478 89 478 89 378 9.5 c 128,-1,11
 278 -70 278 -70 68 -108 c 1,12,-1
 57 -6 l 1,13,14
 166 20 166 20 228 51 c 128,-1,15
 290 82 290 82 314 118 c 128,-1,16
 338 154 338 154 338 200 c 0,17,18
 338 305 338 305 201 305 c 2,19,-1
 132 305 l 1,20,-1
 148 404 l 1,21,-1
 203 404 l 2,22,23
 258 404 258 404 288.5 431 c 128,-1,24
 319 458 319 458 319 508 c 0,25,26
 319 553 319 553 294 579.5 c 128,-1,27
 269 606 269 606 217 606 c 0,28,29
 142 606 142 606 67 546 c 1,30,-1
 3 617 l 1,31,32
 100 706 100 706 232 706 c 0,33,0
 303 706 303 706 353.5 682 c 128,-1,1
EndSplineSet
Substitution2: "'c2sc' Capitals to Small Capitals lookup 26 subtable" uni021D.sc
Substitution2: "'aalt' Access All Alternates lookup 0 subtable" uni021D.sc
Position2: "'cpsp' Capital Spacing lookup 0 subtable" dx=5 dy=0 dh=10 dv=0
EndChar

StartChar: H
Encoding: 72 72 113
Width: 672
GlyphClass: 2
Flags: W
AnchorPoint: "Anchor-18" 336 346 basechar 0
AnchorPoint: "Anchor-17" 0 0 basechar 0
AnchorPoint: "Anchor-16" 336 691 basechar 0
AnchorPoint: "Anchor-15" 0 0 basechar 0
AnchorPoint: "Anchor-14" 336 0 basechar 0
LayerCount: 2
Fore
SplineSet
459 0 m 1,0,-1
 459 309 l 1,1,-1
 213 309 l 1,2,-1
 213 0 l 1,3,-1
 81 0 l 1,4,-1
 81 691 l 1,5,-1
 213 691 l 1,6,-1
 213 414 l 1,7,-1
 459 414 l 1,8,-1
 459 691 l 1,9,-1
 592 691 l 1,10,-1
 592 0 l 1,11,-1
 459 0 l 1,0,-1
EndSplineSet
Substitution2: "'c2sc' Capitals to Small Capitals lookup 26 subtable" h.sc
Substitution2: "'aalt' Access All Alternates lookup 0 subtable" h.sc
Position2: "'cpsp' Capital Spacing lookup 0 subtable" dx=5 dy=0 dh=10 dv=0
EndChar

StartChar: Hbar
Encoding: 294 294 114
Width: 682
GlyphClass: 2
Flags: W
AnchorPoint: "Anchor-18" 341 346 basechar 0
AnchorPoint: "Anchor-17" 0 0 basechar 0
AnchorPoint: "Anchor-16" 341 691 basechar 0
AnchorPoint: "Anchor-15" 0 0 basechar 0
AnchorPoint: "Anchor-14" 341 0 basechar 0
LayerCount: 2
Fore
SplineSet
659 585 m 1,0,-1
 659 504 l 1,1,-1
 597 504 l 1,2,-1
 597 0 l 1,3,-1
 464 0 l 1,4,-1
 464 309 l 1,5,-1
 218 309 l 1,6,-1
 218 0 l 1,7,-1
 86 0 l 1,8,-1
 86 504 l 1,9,-1
 23 504 l 1,10,-1
 23 585 l 1,11,-1
 86 585 l 1,12,-1
 86 691 l 1,13,-1
 218 691 l 1,14,-1
 218 585 l 1,15,-1
 464 585 l 1,16,-1
 464 691 l 1,17,-1
 597 691 l 1,18,-1
 597 585 l 1,19,-1
 659 585 l 1,0,-1
464 414 m 1,20,-1
 464 504 l 1,21,-1
 218 504 l 1,22,-1
 218 414 l 1,23,-1
 464 414 l 1,20,-1
EndSplineSet
Substitution2: "'c2sc' Capitals to Small Capitals lookup 26 subtable" hbar.sc
Substitution2: "'aalt' Access All Alternates lookup 0 subtable" hbar.sc
Position2: "'cpsp' Capital Spacing lookup 0 subtable" dx=5 dy=0 dh=10 dv=0
EndChar

StartChar: uniA7AA
Encoding: 42922 42922 118
Width: 787
GlyphClass: 2
Flags: W
AnchorPoint: "Anchor-18" 451 346 basechar 0
AnchorPoint: "Anchor-17" 0 0 basechar 0
AnchorPoint: "Anchor-16" 451 691 basechar 0
AnchorPoint: "Anchor-15" 0 0 basechar 0
AnchorPoint: "Anchor-14" 451 0 basechar 0
LayerCount: 2
Fore
SplineSet
707 691 m 1,0,-1
 707 0 l 1,1,-1
 574 0 l 1,2,-1
 574 309 l 1,3,-1
 328 309 l 1,4,-1
 328 0 l 1,5,-1
 196 0 l 1,6,-1
 196 593 l 1,7,-1
 166 593 l 2,8,9
 116 593 116 593 116 548 c 0,10,11
 116 531 116 531 120 516 c 128,-1,12
 124 501 124 501 133 479 c 1,13,-1
 49 440 l 1,14,15
 29 470 29 470 18 496.5 c 128,-1,16
 7 523 7 523 7 554 c 0,17,18
 7 617 7 617 51 654 c 128,-1,19
 95 691 95 691 173 691 c 2,20,-1
 328 691 l 1,21,-1
 328 414 l 1,22,-1
 574 414 l 1,23,-1
 574 691 l 1,24,-1
 707 691 l 1,0,-1
EndSplineSet
Substitution2: "'c2sc' Capitals to Small Capitals lookup 26 subtable" uniA7AA.sc
Substitution2: "'aalt' Access All Alternates lookup 0 subtable" uniA7AA.sc
Position2: "'cpsp' Capital Spacing lookup 0 subtable" dx=5 dy=0 dh=10 dv=0
EndChar

StartChar: uniA78D.ss02
Encoding: 65539 -1 120
Width: 599
GlyphClass: 2
Flags: W
AnchorPoint: "Anchor-18" 0 0 basechar 0
AnchorPoint: "Anchor-17" 0 0 basechar 0
AnchorPoint: "Anchor-16" 300 691 basechar 0
AnchorPoint: "Anchor-15" 0 0 basechar 0
AnchorPoint: "Anchor-14" 300 0 basechar 0
LayerCount: 2
Fore
SplineSet
386 0 m 1,0,-1
 386 255 l 1,1,-1
 36 255 l 1,2,-1
 36 691 l 1,3,-1
 168 691 l 1,4,-1
 168 361 l 1,5,-1
 386 361 l 1,6,-1
 386 691 l 1,7,-1
 519 691 l 1,8,-1
 519 0 l 1,9,-1
 386 0 l 1,0,-1
EndSplineSet
Position2: "'cpsp' Capital Spacing lookup 0 subtable" dx=5 dy=0 dh=10 dv=0
EndChar

StartChar: uni01F6
Encoding: 502 502 121
Width: 959
GlyphClass: 2
Flags: W
AnchorPoint: "Anchor-18" 0 0 basechar 0
AnchorPoint: "Anchor-17" 0 0 basechar 0
AnchorPoint: "Anchor-16" 480 691 basechar 0
AnchorPoint: "Anchor-15" 0 0 basechar 0
AnchorPoint: "Anchor-14" 480 0 basechar 0
LayerCount: 2
Fore
SplineSet
897 391 m 128,-1,1
 904 325 904 325 904 251 c 0,2,3
 904 161 904 161 869 101.5 c 128,-1,4
 834 42 834 42 777.5 13.5 c 128,-1,5
 721 -15 721 -15 657 -15 c 0,6,7
 572 -15 572 -15 515.5 33.5 c 128,-1,8
 459 82 459 82 459 173 c 2,9,-1
 459 309 l 1,10,-1
 213 309 l 1,11,-1
 213 0 l 1,12,-1
 81 0 l 1,13,-1
 81 691 l 1,14,-1
 213 691 l 1,15,-1
 213 414 l 1,16,-1
 459 414 l 1,17,-1
 459 691 l 1,18,-1
 592 691 l 1,19,-1
 592 177 l 2,20,21
 592 82 592 82 666 82 c 0,22,23
 710 82 710 82 743 125 c 128,-1,24
 776 168 776 168 776 262 c 0,25,26
 776 385 776 385 749 529 c 1,27,-1
 877 529 l 1,28,0
 890 457 890 457 897 391 c 128,-1,1
EndSplineSet
Substitution2: "'c2sc' Capitals to Small Capitals lookup 26 subtable" uni01F6.sc
Substitution2: "'aalt' Access All Alternates lookup 0 subtable" uni01F6.sc
Position2: "'cpsp' Capital Spacing lookup 0 subtable" dx=5 dy=0 dh=10 dv=0
EndChar

StartChar: I
Encoding: 73 73 122
Width: 294
GlyphClass: 2
Flags: W
AnchorPoint: "Anchor-18" 0 0 basechar 0
AnchorPoint: "Anchor-17" 0 0 basechar 0
AnchorPoint: "Anchor-16" 147 691 basechar 0
AnchorPoint: "Anchor-15" 208 0 basechar 0
AnchorPoint: "Anchor-14" 147 0 basechar 0
LayerCount: 2
Fore
SplineSet
213 691 m 1,0,-1
 213 0 l 1,1,-1
 81 0 l 1,2,-1
 81 691 l 1,3,-1
 213 691 l 1,0,-1
EndSplineSet
Substitution2: "'c2sc' Capitals to Small Capitals lookup 26 subtable" i.sc
Substitution2: "'aalt' Access All Alternates lookup 0 subtable" i.sc
Position2: "'cpsp' Capital Spacing lookup 0 subtable" dx=5 dy=0 dh=10 dv=0
EndChar

StartChar: Iogonek
Encoding: 302 302 137
Width: 294
GlyphClass: 2
Flags: W
AnchorPoint: "Anchor-18" 0 0 basechar 0
AnchorPoint: "Anchor-17" 0 0 basechar 0
AnchorPoint: "Anchor-16" 147 691 basechar 0
AnchorPoint: "Anchor-15" 208 0 basechar 0
AnchorPoint: "Anchor-14" 147 0 basechar 0
LayerCount: 2
Fore
SplineSet
213 691 m 1,0,-1
 213 0 l 1,1,-1
 198 0 l 1,2,3
 129 -28 129 -28 103 -54 c 128,-1,4
 77 -80 77 -80 77 -108 c 0,5,6
 77 -154 77 -154 132 -154 c 0,7,8
 159 -154 159 -154 193 -147 c 1,9,-1
 183 -232 l 1,10,11
 146 -239 146 -239 116 -239 c 0,12,13
 55 -239 55 -239 17 -209 c 128,-1,14
 -21 -179 -21 -179 -21 -130 c 0,15,16
 -21 -45 -21 -45 81 6 c 1,17,-1
 81 691 l 1,18,-1
 213 691 l 1,0,-1
EndSplineSet
Substitution2: "'c2sc' Capitals to Small Capitals lookup 26 subtable" iogonek.sc
Substitution2: "'aalt' Access All Alternates lookup 0 subtable" iogonek.sc
Position2: "'cpsp' Capital Spacing lookup 0 subtable" dx=5 dy=0 dh=10 dv=0
EndChar

StartChar: uni0196
Encoding: 406 406 138
Width: 380
GlyphClass: 2
Flags: W
AnchorPoint: "Anchor-18" 0 0 basechar 0
AnchorPoint: "Anchor-17" 0 0 basechar 0
AnchorPoint: "Anchor-16" 137 691 basechar 0
AnchorPoint: "Anchor-15" 0 0 basechar 0
AnchorPoint: "Anchor-14" 206 0 basechar 0
LayerCount: 2
Fore
SplineSet
378 26 m 1,0,1
 324 -15 324 -15 249 -15 c 0,2,3
 166 -15 166 -15 118.5 29.5 c 128,-1,4
 71 74 71 74 71 160 c 2,5,-1
 71 691 l 1,6,-1
 203 691 l 1,7,-1
 203 152 l 2,8,9
 203 85 203 85 261 85 c 0,10,11
 282 85 282 85 297 90 c 128,-1,12
 312 95 312 95 332 106 c 1,13,-1
 378 26 l 1,0,1
EndSplineSet
Substitution2: "'c2sc' Capitals to Small Capitals lookup 26 subtable" uni0196.sc
Substitution2: "'aalt' Access All Alternates lookup 0 subtable" uni0196.sc
Position2: "'cpsp' Capital Spacing lookup 0 subtable" dx=5 dy=0 dh=10 dv=0
EndChar

StartChar: uni0197
Encoding: 407 407 139
Width: 322
GlyphClass: 2
Flags: W
AnchorPoint: "Anchor-18" 0 0 basechar 0
AnchorPoint: "Anchor-17" 0 0 basechar 0
AnchorPoint: "Anchor-16" 161 691 basechar 0
AnchorPoint: "Anchor-15" 222 0 basechar 0
AnchorPoint: "Anchor-14" 161 0 basechar 0
LayerCount: 2
Fore
SplineSet
312 409 m 1,0,-1
 312 310 l 1,1,-1
 227 310 l 1,2,-1
 227 0 l 1,3,-1
 95 0 l 1,4,-1
 95 310 l 1,5,-1
 10 310 l 1,6,-1
 10 409 l 1,7,-1
 95 409 l 1,8,-1
 95 691 l 1,9,-1
 227 691 l 1,10,-1
 227 409 l 1,11,-1
 312 409 l 1,0,-1
EndSplineSet
Substitution2: "'c2sc' Capitals to Small Capitals lookup 26 subtable" uni0268.sc
Substitution2: "'aalt' Access All Alternates lookup 0 subtable" uni0268.sc
Position2: "'cpsp' Capital Spacing lookup 0 subtable" dx=5 dy=0 dh=10 dv=0
EndChar

StartChar: J
Encoding: 74 74 141
Width: 312
GlyphClass: 2
Flags: W
AnchorPoint: "Anchor-18" 0 0 basechar 0
AnchorPoint: "Anchor-17" 0 0 basechar 0
AnchorPoint: "Anchor-16" 169 691 basechar 0
AnchorPoint: "Anchor-15" 0 0 basechar 0
AnchorPoint: "Anchor-14" 156 -206 basechar 0
LayerCount: 2
Fore
SplineSet
235 101 m 2,0,1
 235 -10 235 -10 182.5 -66.5 c 128,-1,2
 130 -123 130 -123 32 -155 c 1,3,-1
 -3 -60 l 1,4,5
 41 -43 41 -43 63.5 -21.5 c 128,-1,6
 86 0 86 0 94 29.5 c 128,-1,7
 102 59 102 59 102 106 c 2,8,-1
 102 691 l 1,9,-1
 235 691 l 1,10,-1
 235 101 l 2,0,1
EndSplineSet
Substitution2: "'c2sc' Capitals to Small Capitals lookup 26 subtable" j.sc
Substitution2: "'aalt' Access All Alternates lookup 0 subtable" j.sc
Position2: "'cpsp' Capital Spacing lookup 0 subtable" dx=5 dy=0 dh=10 dv=0
EndChar

StartChar: uniA7B2
Encoding: 42930 42930 143
Width: 343
GlyphClass: 2
Flags: W
AnchorPoint: "Anchor-18" 0 0 basechar 0
AnchorPoint: "Anchor-17" 0 0 basechar 0
AnchorPoint: "Anchor-16" 196 691 basechar 0
AnchorPoint: "Anchor-15" 0 0 basechar 0
AnchorPoint: "Anchor-14" 171 -206 basechar 0
LayerCount: 2
Fore
SplineSet
347 -104 m 1,0,1
 295 -82 295 -82 254 -72 c 1,2,3
 221 -218 221 -218 60 -218 c 0,4,5
 -10 -218 -10 -218 -48.5 -187.5 c 128,-1,6
 -87 -157 -87 -157 -87 -104 c 0,7,8
 -87 -45 -87 -45 -43.5 -13 c 128,-1,9
 0 19 0 19 80 19 c 0,10,11
 116 19 116 19 129 17 c 1,12,-1
 129 691 l 1,13,-1
 262 691 l 1,14,-1
 262 12 l 1,15,-1
 262 -5 l 1,16,17
 308 -16 308 -16 372 -46 c 1,18,-1
 347 -104 l 1,0,1
110.5 -122 m 128,-1,20
 127 -101 127 -101 129 -52 c 1,21,22
 103 -48 103 -48 81 -48 c 0,23,24
 1 -48 1 -48 1 -100 c 0,25,26
 1 -143 1 -143 56 -143 c 0,27,19
 94 -143 94 -143 110.5 -122 c 128,-1,20
EndSplineSet
Substitution2: "'c2sc' Capitals to Small Capitals lookup 26 subtable" uniA7B2.sc
Substitution2: "'aalt' Access All Alternates lookup 0 subtable" uniA7B2.sc
Position2: "'cpsp' Capital Spacing lookup 0 subtable" dx=5 dy=0 dh=10 dv=0
EndChar

StartChar: uni0248
Encoding: 584 584 144
Width: 326
GlyphClass: 2
Flags: W
AnchorPoint: "Anchor-18" 0 0 basechar 0
AnchorPoint: "Anchor-17" 0 0 basechar 0
AnchorPoint: "Anchor-16" 169 691 basechar 0
AnchorPoint: "Anchor-15" 0 0 basechar 0
AnchorPoint: "Anchor-14" 156 -206 basechar 0
LayerCount: 2
Fore
SplineSet
319 292 m 1,0,-1
 235 292 l 1,1,-1
 235 101 l 2,2,3
 235 -10 235 -10 182.5 -66.5 c 128,-1,4
 130 -123 130 -123 32 -155 c 1,5,-1
 -3 -60 l 1,6,7
 41 -43 41 -43 63.5 -21.5 c 128,-1,8
 86 0 86 0 94 29.5 c 128,-1,9
 102 59 102 59 102 106 c 2,10,-1
 102 292 l 1,11,-1
 17 292 l 1,12,-1
 17 394 l 1,13,-1
 102 394 l 1,14,-1
 102 691 l 1,15,-1
 235 691 l 1,16,-1
 235 394 l 1,17,-1
 319 394 l 1,18,-1
 319 292 l 1,0,-1
EndSplineSet
Substitution2: "'c2sc' Capitals to Small Capitals lookup 26 subtable" uni0249.sc
Substitution2: "'aalt' Access All Alternates lookup 0 subtable" uni0249.sc
Position2: "'cpsp' Capital Spacing lookup 0 subtable" dx=5 dy=0 dh=10 dv=0
EndChar

StartChar: K
Encoding: 75 75 145
Width: 613
GlyphClass: 2
Flags: W
AnchorPoint: "Anchor-18" 0 0 basechar 0
AnchorPoint: "Anchor-17" 0 0 basechar 0
AnchorPoint: "Anchor-16" 329 691 basechar 0
AnchorPoint: "Anchor-15" 0 0 basechar 0
AnchorPoint: "Anchor-14" 320 0 basechar 0
LayerCount: 2
Fore
SplineSet
213 691 m 1,0,-1
 213 0 l 1,1,-1
 81 0 l 1,2,-1
 81 691 l 1,3,-1
 213 691 l 1,0,-1
601 691 m 1,4,-1
 362 378 l 1,5,-1
 620 0 l 1,6,-1
 463 0 l 1,7,-1
 219 369 l 1,8,-1
 458 691 l 1,9,-1
 601 691 l 1,4,-1
EndSplineSet
Substitution2: "'c2sc' Capitals to Small Capitals lookup 26 subtable" k.sc
Substitution2: "'aalt' Access All Alternates lookup 0 subtable" k.sc
Position2: "'cpsp' Capital Spacing lookup 0 subtable" dx=5 dy=0 dh=10 dv=0
EndChar

StartChar: uni0198
Encoding: 408 408 148
Width: 637
GlyphClass: 2
Flags: W
AnchorPoint: "Anchor-18" 0 0 basechar 0
AnchorPoint: "Anchor-17" 0 0 basechar 0
AnchorPoint: "Anchor-16" 318 691 basechar 0
AnchorPoint: "Anchor-15" 0 0 basechar 0
AnchorPoint: "Anchor-14" 318 0 basechar 0
LayerCount: 2
Fore
SplineSet
219 369 m 1,0,-1
 371 600 l 2,1,2
 408 658 408 658 444.5 682 c 128,-1,3
 481 706 481 706 537 706 c 0,4,5
 598 706 598 706 643 670 c 1,6,-1
 604 591 l 1,7,8
 591 599 591 599 580 603 c 128,-1,9
 569 607 569 607 552 607 c 0,10,11
 529 607 529 607 513 596.5 c 128,-1,12
 497 586 497 586 475 552 c 2,13,-1
 361 378 l 1,14,-1
 620 0 l 1,15,-1
 463 0 l 1,16,-1
 219 369 l 1,0,-1
213 691 m 1,17,-1
 213 0 l 1,18,-1
 81 0 l 1,19,-1
 81 691 l 1,20,-1
 213 691 l 1,17,-1
EndSplineSet
Substitution2: "'c2sc' Capitals to Small Capitals lookup 26 subtable" uni0199.sc
Substitution2: "'aalt' Access All Alternates lookup 0 subtable" uni0199.sc
Position2: "'cpsp' Capital Spacing lookup 0 subtable" dx=5 dy=0 dh=10 dv=0
EndChar

StartChar: L
Encoding: 76 76 149
Width: 506
GlyphClass: 2
Flags: W
AnchorPoint: "Anchor-18" 394 395 basechar 0
AnchorPoint: "Anchor-17" 230 691 basechar 0
AnchorPoint: "Anchor-16" 147 691 basechar 0
AnchorPoint: "Anchor-15" 0 0 basechar 0
AnchorPoint: "Anchor-14" 278 0 basechar 0
LayerCount: 2
Fore
SplineSet
213 691 m 1,0,-1
 213 108 l 1,1,-1
 490 108 l 1,2,-1
 475 0 l 1,3,-1
 81 0 l 1,4,-1
 81 691 l 1,5,-1
 213 691 l 1,0,-1
EndSplineSet
Substitution2: "'c2sc' Capitals to Small Capitals lookup 26 subtable" l.sc
Substitution2: "'aalt' Access All Alternates lookup 0 subtable" l.sc
Position2: "'cpsp' Capital Spacing lookup 0 subtable" dx=5 dy=0 dh=10 dv=0
EndChar

StartChar: uni023D
Encoding: 573 573 152
Width: 518
GlyphClass: 2
Flags: W
AnchorPoint: "Anchor-18" 406 395 basechar 0
AnchorPoint: "Anchor-17" 242 691 basechar 0
AnchorPoint: "Anchor-16" 159 691 basechar 0
AnchorPoint: "Anchor-15" 0 0 basechar 0
AnchorPoint: "Anchor-14" 290 0 basechar 0
LayerCount: 2
Fore
SplineSet
225 108 m 1,0,-1
 502 108 l 1,1,-1
 487 0 l 1,2,-1
 93 0 l 1,3,-1
 93 312 l 1,4,-1
 10 312 l 1,5,-1
 10 414 l 1,6,-1
 93 414 l 1,7,-1
 93 691 l 1,8,-1
 225 691 l 1,9,-1
 225 414 l 1,10,-1
 312 414 l 1,11,-1
 312 312 l 1,12,-1
 225 312 l 1,13,-1
 225 108 l 1,0,-1
EndSplineSet
Substitution2: "'c2sc' Capitals to Small Capitals lookup 26 subtable" uni019A.sc
Substitution2: "'aalt' Access All Alternates lookup 0 subtable" uni019A.sc
Position2: "'cpsp' Capital Spacing lookup 0 subtable" dx=5 dy=0 dh=10 dv=0
EndChar

StartChar: uniA7AD
Encoding: 42925 42925 153
Width: 585
GlyphClass: 2
Flags: W
AnchorPoint: "Anchor-18" 472 395 basechar 0
AnchorPoint: "Anchor-17" 308 691 basechar 0
AnchorPoint: "Anchor-16" 225 691 basechar 0
AnchorPoint: "Anchor-15" 0 0 basechar 0
AnchorPoint: "Anchor-14" 356 0 basechar 0
LayerCount: 2
Fore
SplineSet
568 108 m 1,0,-1
 553 0 l 1,1,-1
 159 0 l 1,2,-1
 159 255 l 1,3,4
 83 257 83 257 44 290 c 128,-1,5
 5 323 5 323 5 379 c 0,6,7
 5 432 5 432 38.5 461.5 c 128,-1,8
 72 491 72 491 124 491 c 0,9,10
 147 491 147 491 159 487 c 1,11,-1
 159 691 l 1,12,-1
 291 691 l 1,13,-1
 291 337 l 1,14,15
 351 338 351 338 413 352 c 1,16,-1
 425 277 l 1,17,18
 370 264 370 264 291 259 c 1,19,-1
 291 108 l 1,20,-1
 568 108 l 1,0,-1
159 335 m 1,22,-1
 159 415 l 1,23,24
 143 417 143 417 133 417 c 0,25,26
 116 417 116 417 106 407.5 c 128,-1,27
 96 398 96 398 96 380 c 0,28,21
 96 335 96 335 159 335 c 1,22,-1
EndSplineSet
Substitution2: "'c2sc' Capitals to Small Capitals lookup 26 subtable" uniA7AD.sc
Substitution2: "'aalt' Access All Alternates lookup 0 subtable" uniA7AD.sc
Position2: "'cpsp' Capital Spacing lookup 0 subtable" dx=5 dy=0 dh=10 dv=0
EndChar

StartChar: Lslash
Encoding: 321 321 160
Width: 535
GlyphClass: 2
Flags: W
AnchorPoint: "Anchor-18" 423 395 basechar 0
AnchorPoint: "Anchor-17" 259 691 basechar 0
AnchorPoint: "Anchor-16" 176 691 basechar 0
AnchorPoint: "Anchor-15" 0 0 basechar 0
AnchorPoint: "Anchor-14" 307 0 basechar 0
LayerCount: 2
Fore
SplineSet
242 108 m 1,0,-1
 519 108 l 1,1,-1
 504 0 l 1,2,-1
 110 0 l 1,3,-1
 110 239 l 1,4,-1
 61 209 l 1,5,-1
 15 284 l 1,6,-1
 110 342 l 1,7,-1
 110 691 l 1,8,-1
 242 691 l 1,9,-1
 242 424 l 1,10,-1
 385 513 l 1,11,-1
 431 438 l 1,12,-1
 242 321 l 1,13,-1
 242 108 l 1,0,-1
EndSplineSet
Substitution2: "'c2sc' Capitals to Small Capitals lookup 26 subtable" lslash.sc
Substitution2: "'aalt' Access All Alternates lookup 0 subtable" lslash.sc
Position2: "'cpsp' Capital Spacing lookup 0 subtable" dx=5 dy=0 dh=10 dv=0
EndChar

StartChar: M
Encoding: 77 77 161
Width: 782
GlyphClass: 2
Flags: W
AnchorPoint: "Anchor-18" 0 0 basechar 0
AnchorPoint: "Anchor-17" 0 0 basechar 0
AnchorPoint: "Anchor-16" 391 691 basechar 0
AnchorPoint: "Anchor-15" 0 0 basechar 0
AnchorPoint: "Anchor-14" 397 0 basechar 0
LayerCount: 2
Fore
SplineSet
736 0 m 1,0,-1
 607 0 l 1,1,-1
 589 289 l 2,2,3
 580 444 580 444 580 535 c 2,4,-1
 580 571 l 1,5,-1
 454 75 l 1,6,-1
 329 75 l 1,7,-1
 195 572 l 1,8,9
 197 506 197 506 197 472 c 0,10,11
 197 381 197 381 191 285 c 2,12,-1
 174 0 l 1,13,-1
 46 0 l 1,14,-1
 101 691 l 1,15,-1
 271 691 l 1,16,-1
 394 207 l 1,17,-1
 510 691 l 1,18,-1
 682 691 l 1,19,-1
 736 0 l 1,0,-1
EndSplineSet
Substitution2: "'c2sc' Capitals to Small Capitals lookup 26 subtable" m.sc
Substitution2: "'aalt' Access All Alternates lookup 0 subtable" m.sc
Position2: "'cpsp' Capital Spacing lookup 0 subtable" dx=5 dy=0 dh=10 dv=0
EndChar

StartChar: uni019C
Encoding: 412 412 164
Width: 923
GlyphClass: 2
Flags: W
AnchorPoint: "Anchor-18" 0 0 basechar 0
AnchorPoint: "Anchor-17" 0 0 basechar 0
AnchorPoint: "Anchor-16" 462 691 basechar 0
AnchorPoint: "Anchor-15" 0 0 basechar 0
AnchorPoint: "Anchor-14" 462 0 basechar 0
LayerCount: 2
Fore
SplineSet
843 691 m 1,0,-1
 843 0 l 1,1,-1
 727 0 l 1,2,-1
 717 71 l 1,3,4
 682 27 682 27 644 6 c 128,-1,5
 606 -15 606 -15 558 -15 c 0,6,7
 506 -15 506 -15 468 10 c 128,-1,8
 430 35 430 35 410 80 c 1,9,10
 370 31 370 31 329 8 c 128,-1,11
 288 -15 288 -15 238 -15 c 0,12,13
 159 -15 159 -15 115 39.5 c 128,-1,14
 71 94 71 94 71 183 c 2,15,-1
 71 691 l 1,16,-1
 203 691 l 1,17,-1
 203 188 l 2,18,19
 203 140 203 140 222 113.5 c 128,-1,20
 241 87 241 87 276 87 c 0,21,22
 309 87 309 87 334.5 105.5 c 128,-1,23
 360 124 360 124 390 166 c 1,24,-1
 390 183 l 1,25,-1
 390 691 l 1,26,-1
 523 691 l 1,27,-1
 523 188 l 2,28,29
 523 140 523 140 542 113.5 c 128,-1,30
 561 87 561 87 595 87 c 0,31,32
 630 87 630 87 655 105.5 c 128,-1,33
 680 124 680 124 710 167 c 1,34,-1
 710 691 l 1,35,-1
 843 691 l 1,0,-1
EndSplineSet
Substitution2: "'c2sc' Capitals to Small Capitals lookup 26 subtable" uni026F.sc
Substitution2: "'aalt' Access All Alternates lookup 0 subtable" uni026F.sc
Position2: "'cpsp' Capital Spacing lookup 0 subtable" dx=5 dy=0 dh=10 dv=0
EndChar

StartChar: N
Encoding: 78 78 165
Width: 672
GlyphClass: 2
Flags: W
AnchorPoint: "Anchor-18" 0 0 basechar 0
AnchorPoint: "Anchor-17" 0 0 basechar 0
AnchorPoint: "Anchor-16" 344 691 basechar 0
AnchorPoint: "Anchor-15" 0 0 basechar 0
AnchorPoint: "Anchor-14" 337 0 basechar 0
LayerCount: 2
Fore
SplineSet
591 0 m 1,0,-1
 420 0 l 1,1,-1
 183 559 l 1,2,3
 192 485 192 485 196.5 425 c 128,-1,4
 201 365 201 365 201 282 c 2,5,-1
 201 0 l 1,6,-1
 81 0 l 1,7,-1
 81 691 l 1,8,-1
 248 691 l 1,9,-1
 489 131 l 1,10,11
 483 171 483 171 477 236.5 c 128,-1,12
 471 302 471 302 471 367 c 2,13,-1
 471 691 l 1,14,-1
 591 691 l 1,15,-1
 591 0 l 1,0,-1
EndSplineSet
Substitution2: "'c2sc' Capitals to Small Capitals lookup 26 subtable" n.sc
Substitution2: "'aalt' Access All Alternates lookup 0 subtable" n.sc
Position2: "'cpsp' Capital Spacing lookup 0 subtable" dx=5 dy=0 dh=10 dv=0
EndChar

StartChar: Eng
Encoding: 330 330 175
Width: 672
GlyphClass: 2
Flags: W
AnchorPoint: "Anchor-18" 0 0 basechar 0
AnchorPoint: "Anchor-17" 0 0 basechar 0
AnchorPoint: "Anchor-16" 344 691 basechar 0
AnchorPoint: "Anchor-15" 0 0 basechar 0
AnchorPoint: "Anchor-14" 337 0 basechar 0
LayerCount: 2
Fore
SplineSet
591 691 m 1,0,-1
 591 -43 l 2,1,2
 591 -129 591 -129 543.5 -173.5 c 128,-1,3
 496 -218 496 -218 413 -218 c 0,4,5
 338 -218 338 -218 284 -177 c 1,6,-1
 330 -97 l 1,7,8
 350 -108 350 -108 365 -113 c 128,-1,9
 380 -118 380 -118 401 -118 c 0,10,11
 459 -118 459 -118 459 -51 c 2,12,-1
 459 0 l 1,13,-1
 420 0 l 1,14,-1
 183 559 l 1,15,16
 192 485 192 485 196.5 425 c 128,-1,17
 201 365 201 365 201 282 c 2,18,-1
 201 0 l 1,19,-1
 81 0 l 1,20,-1
 81 691 l 1,21,-1
 248 691 l 1,22,-1
 489 131 l 1,23,24
 483 171 483 171 477 236.5 c 128,-1,25
 471 302 471 302 471 367 c 2,26,-1
 471 691 l 1,27,-1
 591 691 l 1,0,-1
EndSplineSet
Substitution2: "'ss01' Style Set 1 lookup 33 subtable" Eng.ss01
Substitution2: "'salt' Stylistic Alternatives lookup 32 subtable" Eng.ss01
Substitution2: "'c2sc' Capitals to Small Capitals lookup 26 subtable" eng.sc
AlternateSubs2: "'aalt' Access All Alternates lookup 1 subtable" eng.sc Eng.ss01
Position2: "'cpsp' Capital Spacing lookup 0 subtable" dx=5 dy=0 dh=10 dv=0
EndChar

StartChar: Eng.ss01
Encoding: 65541 -1 176
Width: 662
GlyphClass: 2
Flags: W
AnchorPoint: "Anchor-18" 0 0 basechar 0
AnchorPoint: "Anchor-17" 0 0 basechar 0
AnchorPoint: "Anchor-16" 331 691 basechar 0
AnchorPoint: "Anchor-15" 0 0 basechar 0
AnchorPoint: "Anchor-14" 331 -206 basechar 0
LayerCount: 2
Fore
SplineSet
588 0 m 1,0,-1
 587 0 l 1,1,-1
 587 -43 l 2,2,3
 587 -129 587 -129 539.5 -173.5 c 128,-1,4
 492 -218 492 -218 409 -218 c 0,5,6
 334 -218 334 -218 280 -177 c 1,7,-1
 326 -97 l 1,8,9
 346 -108 346 -108 361 -113 c 128,-1,10
 376 -118 376 -118 397 -118 c 0,11,12
 455 -118 455 -118 455 -51 c 2,13,-1
 455 494 l 2,14,15
 455 550 455 550 434 577 c 128,-1,16
 413 604 413 604 366 604 c 0,17,18
 320 604 320 604 286.5 585 c 128,-1,19
 253 566 253 566 213 525 c 1,20,-1
 213 0 l 1,21,-1
 81 0 l 1,22,-1
 81 691 l 1,23,-1
 196 691 l 1,24,-1
 207 617 l 1,25,26
 250 661 250 661 297 683.5 c 128,-1,27
 344 706 344 706 406 706 c 0,28,29
 495 706 495 706 541.5 653.5 c 128,-1,30
 588 601 588 601 588 517 c 2,31,-1
 588 0 l 1,0,-1
EndSplineSet
Position2: "'cpsp' Capital Spacing lookup 0 subtable" dx=5 dy=0 dh=10 dv=0
EndChar

StartChar: uni019D
Encoding: 413 413 177
Width: 672
GlyphClass: 2
Flags: W
AnchorPoint: "Anchor-18" 0 0 basechar 0
AnchorPoint: "Anchor-17" 0 0 basechar 0
AnchorPoint: "Anchor-16" 344 691 basechar 0
AnchorPoint: "Anchor-15" 0 0 basechar 0
AnchorPoint: "Anchor-14" 337 0 basechar 0
LayerCount: 2
Fore
SplineSet
591 691 m 1,0,-1
 591 0 l 1,1,-1
 420 0 l 1,2,-1
 183 559 l 1,3,4
 192 485 192 485 196.5 425 c 128,-1,5
 201 365 201 365 201 282 c 2,6,-1
 201 -44 l 2,7,8
 201 -129 201 -129 155.5 -173.5 c 128,-1,9
 110 -218 110 -218 33 -218 c 0,10,11
 -43 -218 -43 -218 -97 -177 c 1,12,-1
 -51 -99 l 1,13,14
 -32 -111 -32 -111 -16.5 -116 c 128,-1,15
 -1 -121 -1 -121 21 -121 c 0,16,17
 81 -121 81 -121 81 -54 c 2,18,-1
 81 691 l 1,19,-1
 248 691 l 1,20,-1
 489 131 l 1,21,22
 483 171 483 171 477 236.5 c 128,-1,23
 471 302 471 302 471 367 c 2,24,-1
 471 691 l 1,25,-1
 591 691 l 1,0,-1
EndSplineSet
Substitution2: "'ss01' Style Set 1 lookup 33 subtable" uni019D.ss01
Substitution2: "'salt' Stylistic Alternatives lookup 32 subtable" uni019D.ss01
Substitution2: "'c2sc' Capitals to Small Capitals lookup 26 subtable" uni0272.sc
AlternateSubs2: "'aalt' Access All Alternates lookup 1 subtable" uni0272.sc uni019D.ss01
Position2: "'cpsp' Capital Spacing lookup 0 subtable" dx=5 dy=0 dh=10 dv=0
EndChar

StartChar: uni019D.ss01
Encoding: 65542 -1 178
Width: 662
GlyphClass: 2
Flags: W
AnchorPoint: "Anchor-18" 0 0 basechar 0
AnchorPoint: "Anchor-17" 0 0 basechar 0
AnchorPoint: "Anchor-16" 331 691 basechar 0
AnchorPoint: "Anchor-15" 0 0 basechar 0
AnchorPoint: "Anchor-14" 331 -206 basechar 0
LayerCount: 2
Fore
SplineSet
541.5 653.5 m 128,-1,1
 588 601 588 601 588 517 c 2,2,-1
 588 0 l 1,3,-1
 455 0 l 1,4,-1
 455 494 l 2,5,6
 455 550 455 550 434 577 c 128,-1,7
 413 604 413 604 366 604 c 0,8,9
 320 604 320 604 286.5 585 c 128,-1,10
 253 566 253 566 213 525 c 1,11,-1
 213 -43 l 2,12,13
 213 -129 213 -129 165.5 -173.5 c 128,-1,14
 118 -218 118 -218 35 -218 c 0,15,16
 -40 -218 -40 -218 -94 -177 c 1,17,-1
 -48 -97 l 1,18,19
 -28 -108 -28 -108 -13 -113 c 128,-1,20
 2 -118 2 -118 23 -118 c 0,21,22
 81 -118 81 -118 81 -51 c 2,23,-1
 81 691 l 1,24,-1
 196 691 l 1,25,-1
 207 617 l 1,26,27
 250 661 250 661 297 683.5 c 128,-1,28
 344 706 344 706 406 706 c 0,29,0
 495 706 495 706 541.5 653.5 c 128,-1,1
EndSplineSet
Position2: "'cpsp' Capital Spacing lookup 0 subtable" dx=5 dy=0 dh=10 dv=0
EndChar

StartChar: uni0220
Encoding: 544 544 180
Width: 662
GlyphClass: 2
Flags: W
AnchorPoint: "Anchor-18" 0 0 basechar 0
AnchorPoint: "Anchor-17" 0 0 basechar 0
AnchorPoint: "Anchor-16" 331 691 basechar 0
AnchorPoint: "Anchor-15" 0 0 basechar 0
AnchorPoint: "Anchor-14" 331 -206 basechar 0
LayerCount: 2
Fore
SplineSet
541.5 653.5 m 128,-1,1
 588 601 588 601 588 517 c 2,2,-1
 588 -206 l 1,3,-1
 455 -206 l 1,4,-1
 455 494 l 2,5,6
 455 550 455 550 434 577 c 128,-1,7
 413 604 413 604 366 604 c 0,8,9
 320 604 320 604 286.5 585 c 128,-1,10
 253 566 253 566 213 525 c 1,11,-1
 213 0 l 1,12,-1
 81 0 l 1,13,-1
 81 691 l 1,14,-1
 196 691 l 1,15,-1
 207 617 l 1,16,17
 250 661 250 661 297 683.5 c 128,-1,18
 344 706 344 706 406 706 c 0,19,0
 495 706 495 706 541.5 653.5 c 128,-1,1
EndSplineSet
Substitution2: "'c2sc' Capitals to Small Capitals lookup 26 subtable" uni0220.sc
Substitution2: "'aalt' Access All Alternates lookup 0 subtable" uni0220.sc
Position2: "'cpsp' Capital Spacing lookup 0 subtable" dx=5 dy=0 dh=10 dv=0
EndChar

StartChar: O
Encoding: 79 79 182
Width: 691
GlyphClass: 2
Flags: W
AnchorPoint: "Anchor-18" 0 0 basechar 0
AnchorPoint: "Anchor-17" 563 691 basechar 0
AnchorPoint: "Anchor-16" 346 691 basechar 0
AnchorPoint: "Anchor-15" 457 0 basechar 0
AnchorPoint: "Anchor-14" 346 0 basechar 0
LayerCount: 2
Fore
SplineSet
507 664 m 128,-1,1
 575 622 575 622 611.5 541 c 128,-1,2
 648 460 648 460 648 346 c 0,3,4
 648 233 648 233 611 152 c 128,-1,5
 574 71 574 71 506 28 c 128,-1,6
 438 -15 438 -15 346 -15 c 0,7,8
 253 -15 253 -15 185 27 c 128,-1,9
 117 69 117 69 80 150 c 128,-1,10
 43 231 43 231 43 345 c 0,11,12
 43 457 43 457 80 538.5 c 128,-1,13
 117 620 117 620 185.5 663 c 128,-1,14
 254 706 254 706 346 706 c 0,15,0
 439 706 439 706 507 664 c 128,-1,1
224 542.5 m 128,-1,17
 182 480 182 480 182 345 c 0,18,19
 182 86 182 86 346 86 c 0,20,21
 426 86 426 86 467.5 148 c 128,-1,22
 509 210 509 210 509 346 c 0,23,24
 509 481 509 481 467.5 543 c 128,-1,25
 426 605 426 605 346 605 c 256,26,16
 266 605 266 605 224 542.5 c 128,-1,17
EndSplineSet
Substitution2: "Single Substitution lookup 45 subtable" ordmasculine
Substitution2: "'c2sc' Capitals to Small Capitals lookup 26 subtable" o.sc
AlternateSubs2: "'aalt' Access All Alternates lookup 1 subtable" ordmasculine o.sc
Position2: "'cpsp' Capital Spacing lookup 0 subtable" dx=5 dy=0 dh=10 dv=0
EndChar

StartChar: uni0222
Encoding: 546 546 183
Width: 651
GlyphClass: 2
Flags: W
AnchorPoint: "Anchor-18" 0 0 basechar 0
AnchorPoint: "Anchor-17" 0 0 basechar 0
AnchorPoint: "Anchor-16" 326 691 basechar 0
AnchorPoint: "Anchor-15" 0 0 basechar 0
AnchorPoint: "Anchor-14" 326 0 basechar 0
LayerCount: 2
Fore
SplineSet
574 325.5 m 128,-1,1
 608 279 608 279 608 214 c 0,2,3
 608 153 608 153 574 100.5 c 128,-1,4
 540 48 540 48 476 16.5 c 128,-1,5
 412 -15 412 -15 326 -15 c 256,6,7
 240 -15 240 -15 175.5 16 c 128,-1,8
 111 47 111 47 77 99 c 128,-1,9
 43 151 43 151 43 213 c 256,10,11
 43 275 43 275 77 322 c 128,-1,12
 111 369 111 369 175 394 c 1,13,14
 86 442 86 442 86 549 c 2,15,-1
 86 691 l 1,16,-1
 218 691 l 1,17,-1
 218 547 l 2,18,19
 218 494 218 494 243 465 c 128,-1,20
 268 436 268 436 326 436 c 256,21,22
 384 436 384 436 409 466.5 c 128,-1,23
 434 497 434 497 434 547 c 2,24,-1
 434 691 l 1,25,-1
 568 691 l 1,26,-1
 568 549 l 2,27,28
 568 499 568 499 544.5 460 c 128,-1,29
 521 421 521 421 476 396 c 1,30,0
 540 372 540 372 574 325.5 c 128,-1,1
433.5 119 m 128,-1,32
 469 152 469 152 469 215 c 0,33,34
 469 273 469 273 433 305.5 c 128,-1,35
 397 338 397 338 326 338 c 256,36,37
 255 338 255 338 218.5 305.5 c 128,-1,38
 182 273 182 273 182 214 c 0,39,40
 182 152 182 152 219 119 c 128,-1,41
 256 86 256 86 326 86 c 0,42,31
 398 86 398 86 433.5 119 c 128,-1,32
EndSplineSet
Substitution2: "'c2sc' Capitals to Small Capitals lookup 26 subtable" uni0223.sc
Substitution2: "'aalt' Access All Alternates lookup 0 subtable" uni0223.sc
Position2: "'cpsp' Capital Spacing lookup 0 subtable" dx=5 dy=0 dh=10 dv=0
EndChar

StartChar: Ohorn
Encoding: 416 416 203
Width: 710
GlyphClass: 2
Flags: W
AnchorPoint: "Anchor-18" 0 0 basechar 0
AnchorPoint: "Anchor-17" 615 691 basechar 0
AnchorPoint: "Anchor-16" 346 691 basechar 0
AnchorPoint: "Anchor-15" 457 0 basechar 0
AnchorPoint: "Anchor-14" 346 0 basechar 0
LayerCount: 2
Fore
SplineSet
595 573 m 1,1,2
 648 483 648 483 648 346 c 0,3,4
 648 233 648 233 611 152 c 128,-1,5
 574 71 574 71 506 28 c 128,-1,6
 438 -15 438 -15 346 -15 c 0,7,8
 253 -15 253 -15 185 27 c 128,-1,9
 117 69 117 69 80 150 c 128,-1,10
 43 231 43 231 43 345 c 0,11,12
 43 457 43 457 80 538.5 c 128,-1,13
 117 620 117 620 185.5 663 c 128,-1,14
 254 706 254 706 346 706 c 0,15,16
 468 706 468 706 546 634 c 1,17,18
 573 638 573 638 585 651 c 128,-1,19
 597 664 597 664 597 688 c 0,20,21
 597 710 597 710 593.5 725 c 128,-1,22
 590 740 590 740 583 758 c 1,23,-1
 672 773 l 1,24,25
 691 737 691 737 691 688 c 0,26,0
 691 593 691 593 595 573 c 1,1,2
467.5 148 m 128,-1,28
 509 210 509 210 509 346 c 0,29,30
 509 481 509 481 467.5 543 c 128,-1,31
 426 605 426 605 346 605 c 256,32,33
 266 605 266 605 224 542.5 c 128,-1,34
 182 480 182 480 182 345 c 0,35,36
 182 86 182 86 346 86 c 0,37,27
 426 86 426 86 467.5 148 c 128,-1,28
EndSplineSet
Substitution2: "'c2sc' Capitals to Small Capitals lookup 26 subtable" ohorn.sc
Substitution2: "'aalt' Access All Alternates lookup 0 subtable" ohorn.sc
Position2: "'cpsp' Capital Spacing lookup 0 subtable" dx=5 dy=0 dh=10 dv=0
EndChar

StartChar: uni1EDA
Encoding: 7898 7898 204
Width: 710
GlyphClass: 2
Flags: W
AnchorPoint: "Anchor-18" 0 0 basechar 0
AnchorPoint: "Anchor-17" 615 691 basechar 0
AnchorPoint: "Anchor-16" 348 936 basechar 0
AnchorPoint: "Anchor-15" 457 0 basechar 0
AnchorPoint: "Anchor-14" 346 0 basechar 0
LayerCount: 2
Fore
SplineSet
477 836 m 1,0,-1
 248 753 l 1,1,-1
 215 819 l 1,2,-1
 427 936 l 1,3,-1
 477 836 l 1,0,-1
595 573 m 1,5,6
 648 483 648 483 648 346 c 0,7,8
 648 233 648 233 611 152 c 128,-1,9
 574 71 574 71 506 28 c 128,-1,10
 438 -15 438 -15 346 -15 c 0,11,12
 253 -15 253 -15 185 27 c 128,-1,13
 117 69 117 69 80 150 c 128,-1,14
 43 231 43 231 43 345 c 0,15,16
 43 457 43 457 80 538.5 c 128,-1,17
 117 620 117 620 185.5 663 c 128,-1,18
 254 706 254 706 346 706 c 0,19,20
 468 706 468 706 546 634 c 1,21,22
 573 638 573 638 585 651 c 128,-1,23
 597 664 597 664 597 688 c 0,24,25
 597 710 597 710 593.5 725 c 128,-1,26
 590 740 590 740 583 758 c 1,27,-1
 672 773 l 1,28,29
 691 737 691 737 691 688 c 0,30,4
 691 593 691 593 595 573 c 1,5,6
467.5 148 m 128,-1,32
 509 210 509 210 509 346 c 0,33,34
 509 481 509 481 467.5 543 c 128,-1,35
 426 605 426 605 346 605 c 256,36,37
 266 605 266 605 224 542.5 c 128,-1,38
 182 480 182 480 182 345 c 0,39,40
 182 86 182 86 346 86 c 0,41,31
 426 86 426 86 467.5 148 c 128,-1,32
EndSplineSet
Substitution2: "'c2sc' Capitals to Small Capitals lookup 26 subtable" uni1EDB.sc
Substitution2: "'aalt' Access All Alternates lookup 0 subtable" uni1EDB.sc
Position2: "'cpsp' Capital Spacing lookup 0 subtable" dx=5 dy=0 dh=10 dv=0
EndChar

StartChar: uni1EE2
Encoding: 7906 7906 205
Width: 710
GlyphClass: 2
Flags: W
AnchorPoint: "Anchor-18" 0 0 basechar 0
AnchorPoint: "Anchor-17" 615 691 basechar 0
AnchorPoint: "Anchor-16" 346 691 basechar 0
AnchorPoint: "Anchor-15" 457 0 basechar 0
AnchorPoint: "Anchor-14" 348 -206 basechar 0
LayerCount: 2
Fore
SplineSet
595 573 m 1,1,2
 648 483 648 483 648 346 c 0,3,4
 648 233 648 233 611 152 c 128,-1,5
 574 71 574 71 506 28 c 128,-1,6
 438 -15 438 -15 346 -15 c 0,7,8
 253 -15 253 -15 185 27 c 128,-1,9
 117 69 117 69 80 150 c 128,-1,10
 43 231 43 231 43 345 c 0,11,12
 43 457 43 457 80 538.5 c 128,-1,13
 117 620 117 620 185.5 663 c 128,-1,14
 254 706 254 706 346 706 c 0,15,16
 468 706 468 706 546 634 c 1,17,18
 573 638 573 638 585 651 c 128,-1,19
 597 664 597 664 597 688 c 0,20,21
 597 710 597 710 593.5 725 c 128,-1,22
 590 740 590 740 583 758 c 1,23,-1
 672 773 l 1,24,25
 691 737 691 737 691 688 c 0,26,0
 691 593 691 593 595 573 c 1,1,2
467.5 148 m 128,-1,28
 509 210 509 210 509 346 c 0,29,30
 509 481 509 481 467.5 543 c 128,-1,31
 426 605 426 605 346 605 c 256,32,33
 266 605 266 605 224 542.5 c 128,-1,34
 182 480 182 480 182 345 c 0,35,36
 182 86 182 86 346 86 c 0,37,27
 426 86 426 86 467.5 148 c 128,-1,28
403.5 -88 m 128,-1,39
 426 -110 426 -110 426 -143 c 256,40,41
 426 -176 426 -176 403.5 -198.5 c 128,-1,42
 381 -221 381 -221 346 -221 c 0,43,44
 310 -221 310 -221 287.5 -198.5 c 128,-1,45
 265 -176 265 -176 265 -143 c 256,46,47
 265 -110 265 -110 287.5 -88 c 128,-1,48
 310 -66 310 -66 346 -66 c 0,49,38
 381 -66 381 -66 403.5 -88 c 128,-1,39
EndSplineSet
Substitution2: "'c2sc' Capitals to Small Capitals lookup 26 subtable" uni1EE3.sc
Substitution2: "'aalt' Access All Alternates lookup 0 subtable" uni1EE3.sc
Position2: "'cpsp' Capital Spacing lookup 0 subtable" dx=5 dy=0 dh=10 dv=0
EndChar

StartChar: uni1EDC
Encoding: 7900 7900 206
Width: 710
GlyphClass: 2
Flags: W
AnchorPoint: "Anchor-18" 0 0 basechar 0
AnchorPoint: "Anchor-17" 615 691 basechar 0
AnchorPoint: "Anchor-16" 347 936 basechar 0
AnchorPoint: "Anchor-15" 457 0 basechar 0
AnchorPoint: "Anchor-14" 346 0 basechar 0
LayerCount: 2
Fore
SplineSet
471 819 m 1,0,-1
 438 753 l 1,1,-1
 209 836 l 1,2,-1
 259 936 l 1,3,-1
 471 819 l 1,0,-1
595 573 m 1,5,6
 648 483 648 483 648 346 c 0,7,8
 648 233 648 233 611 152 c 128,-1,9
 574 71 574 71 506 28 c 128,-1,10
 438 -15 438 -15 346 -15 c 0,11,12
 253 -15 253 -15 185 27 c 128,-1,13
 117 69 117 69 80 150 c 128,-1,14
 43 231 43 231 43 345 c 0,15,16
 43 457 43 457 80 538.5 c 128,-1,17
 117 620 117 620 185.5 663 c 128,-1,18
 254 706 254 706 346 706 c 0,19,20
 468 706 468 706 546 634 c 1,21,22
 573 638 573 638 585 651 c 128,-1,23
 597 664 597 664 597 688 c 0,24,25
 597 710 597 710 593.5 725 c 128,-1,26
 590 740 590 740 583 758 c 1,27,-1
 672 773 l 1,28,29
 691 737 691 737 691 688 c 0,30,4
 691 593 691 593 595 573 c 1,5,6
467.5 148 m 128,-1,32
 509 210 509 210 509 346 c 0,33,34
 509 481 509 481 467.5 543 c 128,-1,35
 426 605 426 605 346 605 c 256,36,37
 266 605 266 605 224 542.5 c 128,-1,38
 182 480 182 480 182 345 c 0,39,40
 182 86 182 86 346 86 c 0,41,31
 426 86 426 86 467.5 148 c 128,-1,32
EndSplineSet
Substitution2: "'c2sc' Capitals to Small Capitals lookup 26 subtable" uni1EDD.sc
Substitution2: "'aalt' Access All Alternates lookup 0 subtable" uni1EDD.sc
Position2: "'cpsp' Capital Spacing lookup 0 subtable" dx=5 dy=0 dh=10 dv=0
EndChar

StartChar: uni1EDE
Encoding: 7902 7902 207
Width: 710
GlyphClass: 2
Flags: W
AnchorPoint: "Anchor-18" 0 0 basechar 0
AnchorPoint: "Anchor-17" 615 691 basechar 0
AnchorPoint: "Anchor-16" 359 994 basechar 0
AnchorPoint: "Anchor-15" 457 0 basechar 0
AnchorPoint: "Anchor-14" 346 0 basechar 0
LayerCount: 2
Fore
SplineSet
275 911 m 1,1,-1
 251 970 l 1,2,3
 294 995 294 995 353 995 c 0,4,5
 409 995 409 995 439.5 968.5 c 128,-1,6
 470 942 470 942 470 897 c 0,7,8
 470 860 470 860 448.5 837.5 c 128,-1,9
 427 815 427 815 387 808 c 1,10,-1
 387 763 l 1,11,-1
 305 763 l 1,12,-1
 305 850 l 1,13,14
 343 854 343 854 359.5 862.5 c 128,-1,15
 376 871 376 871 376 891 c 0,16,17
 376 907 376 907 364.5 915.5 c 128,-1,18
 353 924 353 924 334 924 c 0,19,0
 306 924 306 924 275 911 c 1,1,-1
595 573 m 1,21,22
 648 483 648 483 648 346 c 0,23,24
 648 233 648 233 611 152 c 128,-1,25
 574 71 574 71 506 28 c 128,-1,26
 438 -15 438 -15 346 -15 c 0,27,28
 253 -15 253 -15 185 27 c 128,-1,29
 117 69 117 69 80 150 c 128,-1,30
 43 231 43 231 43 345 c 0,31,32
 43 457 43 457 80 538.5 c 128,-1,33
 117 620 117 620 185.5 663 c 128,-1,34
 254 706 254 706 346 706 c 0,35,36
 468 706 468 706 546 634 c 1,37,38
 573 638 573 638 585 651 c 128,-1,39
 597 664 597 664 597 688 c 0,40,41
 597 710 597 710 593.5 725 c 128,-1,42
 590 740 590 740 583 758 c 1,43,-1
 672 773 l 1,44,45
 691 737 691 737 691 688 c 0,46,20
 691 593 691 593 595 573 c 1,21,22
467.5 148 m 128,-1,48
 509 210 509 210 509 346 c 0,49,50
 509 481 509 481 467.5 543 c 128,-1,51
 426 605 426 605 346 605 c 256,52,53
 266 605 266 605 224 542.5 c 128,-1,54
 182 480 182 480 182 345 c 0,55,56
 182 86 182 86 346 86 c 0,57,47
 426 86 426 86 467.5 148 c 128,-1,48
EndSplineSet
Substitution2: "'c2sc' Capitals to Small Capitals lookup 26 subtable" uni1EDF.sc
Substitution2: "'aalt' Access All Alternates lookup 0 subtable" uni1EDF.sc
Position2: "'cpsp' Capital Spacing lookup 0 subtable" dx=5 dy=0 dh=10 dv=0
EndChar

StartChar: uni1EE0
Encoding: 7904 7904 208
Width: 710
GlyphClass: 2
Flags: W
AnchorPoint: "Anchor-18" 0 0 basechar 0
AnchorPoint: "Anchor-17" 615 691 basechar 0
AnchorPoint: "Anchor-16" 348 910 basechar 0
AnchorPoint: "Anchor-15" 457 0 basechar 0
AnchorPoint: "Anchor-14" 346 0 basechar 0
LayerCount: 2
Fore
SplineSet
260.5 806.5 m 128,-1,1
 249 796 249 796 236 772 c 1,2,-1
 167 806 l 1,3,4
 187 853 187 853 217 881.5 c 128,-1,5
 247 910 247 910 287 910 c 0,6,7
 309 910 309 910 324.5 903 c 128,-1,8
 340 896 340 896 361 883 c 0,9,10
 374 873 374 873 383.5 868.5 c 128,-1,11
 393 864 393 864 403 864 c 0,12,13
 418 864 418 864 430 874 c 128,-1,14
 442 884 442 884 456 907 c 1,15,-1
 524 873 l 1,16,17
 504 825 504 825 473 797.5 c 128,-1,18
 442 770 442 770 404 770 c 0,19,20
 383 770 383 770 367.5 777.5 c 128,-1,21
 352 785 352 785 332 798 c 0,22,23
 317 808 317 808 308 812.5 c 128,-1,24
 299 817 299 817 289 817 c 0,25,0
 272 817 272 817 260.5 806.5 c 128,-1,1
595 573 m 1,27,28
 648 483 648 483 648 346 c 0,29,30
 648 233 648 233 611 152 c 128,-1,31
 574 71 574 71 506 28 c 128,-1,32
 438 -15 438 -15 346 -15 c 0,33,34
 253 -15 253 -15 185 27 c 128,-1,35
 117 69 117 69 80 150 c 128,-1,36
 43 231 43 231 43 345 c 0,37,38
 43 457 43 457 80 538.5 c 128,-1,39
 117 620 117 620 185.5 663 c 128,-1,40
 254 706 254 706 346 706 c 0,41,42
 468 706 468 706 546 634 c 1,43,44
 573 638 573 638 585 651 c 128,-1,45
 597 664 597 664 597 688 c 0,46,47
 597 710 597 710 593.5 725 c 128,-1,48
 590 740 590 740 583 758 c 1,49,-1
 672 773 l 1,50,51
 691 737 691 737 691 688 c 0,52,26
 691 593 691 593 595 573 c 1,27,28
467.5 148 m 128,-1,54
 509 210 509 210 509 346 c 0,55,56
 509 481 509 481 467.5 543 c 128,-1,57
 426 605 426 605 346 605 c 256,58,59
 266 605 266 605 224 542.5 c 128,-1,60
 182 480 182 480 182 345 c 0,61,62
 182 86 182 86 346 86 c 0,63,53
 426 86 426 86 467.5 148 c 128,-1,54
EndSplineSet
Substitution2: "'c2sc' Capitals to Small Capitals lookup 26 subtable" uni1EE1.sc
Substitution2: "'aalt' Access All Alternates lookup 0 subtable" uni1EE1.sc
Position2: "'cpsp' Capital Spacing lookup 0 subtable" dx=5 dy=0 dh=10 dv=0
EndChar

StartChar: uni01A2
Encoding: 418 418 210
Width: 945
GlyphClass: 2
Flags: W
AnchorPoint: "Anchor-18" 0 0 basechar 0
AnchorPoint: "Anchor-17" 0 0 basechar 0
AnchorPoint: "Anchor-16" 472 691 basechar 0
AnchorPoint: "Anchor-15" 0 0 basechar 0
AnchorPoint: "Anchor-14" 472 -206 basechar 0
LayerCount: 2
Fore
SplineSet
816 661.5 m 128,-1,1
 864 616 864 616 864 530 c 2,2,-1
 864 -206 l 1,3,-1
 731 -206 l 1,4,-1
 731 535 l 2,5,6
 731 611 731 611 665 611 c 0,7,8
 642 611 642 611 622.5 606 c 128,-1,9
 603 601 603 601 581 590 c 1,10,11
 648 497 648 497 648 346 c 0,12,13
 648 233 648 233 611 152 c 128,-1,14
 574 71 574 71 506 28 c 128,-1,15
 438 -15 438 -15 346 -15 c 0,16,17
 253 -15 253 -15 185 27 c 128,-1,18
 117 69 117 69 80 150 c 128,-1,19
 43 231 43 231 43 345 c 0,20,21
 43 457 43 457 80 538.5 c 128,-1,22
 117 620 117 620 185.5 663 c 128,-1,23
 254 706 254 706 346 706 c 0,24,25
 445 706 445 706 518 654 c 1,26,27
 557 681 557 681 595.5 694 c 128,-1,28
 634 707 634 707 679 707 c 0,29,0
 768 707 768 707 816 661.5 c 128,-1,1
467.5 148 m 128,-1,31
 509 210 509 210 509 346 c 0,32,33
 509 481 509 481 467.5 543 c 128,-1,34
 426 605 426 605 346 605 c 256,35,36
 266 605 266 605 224 542.5 c 128,-1,37
 182 480 182 480 182 345 c 0,38,39
 182 86 182 86 346 86 c 0,40,30
 426 86 426 86 467.5 148 c 128,-1,31
EndSplineSet
Substitution2: "'c2sc' Capitals to Small Capitals lookup 26 subtable" uni01A3.sc
Substitution2: "'aalt' Access All Alternates lookup 0 subtable" uni01A3.sc
Position2: "'cpsp' Capital Spacing lookup 0 subtable" dx=5 dy=0 dh=10 dv=0
EndChar

StartChar: uni1E50
Encoding: 7760 7760 214
Width: 691
GlyphClass: 2
Flags: W
AnchorPoint: "Anchor-18" 0 0 basechar 0
AnchorPoint: "Anchor-17" 563 691 basechar 0
AnchorPoint: "Anchor-16" 348 1085 basechar 0
AnchorPoint: "Anchor-15" 457 0 basechar 0
AnchorPoint: "Anchor-14" 346 0 basechar 0
LayerCount: 2
Fore
SplineSet
260 1085 m 1,0,-1
 472 968 l 1,1,-1
 439 902 l 1,2,-1
 210 985 l 1,3,-1
 260 1085 l 1,0,-1
491 760 m 1,4,-1
 200 760 l 1,5,-1
 200 851 l 1,6,-1
 491 851 l 1,7,-1
 491 760 l 1,4,-1
507 664 m 128,-1,9
 575 622 575 622 611.5 541 c 128,-1,10
 648 460 648 460 648 346 c 0,11,12
 648 233 648 233 611 152 c 128,-1,13
 574 71 574 71 506 28 c 128,-1,14
 438 -15 438 -15 346 -15 c 0,15,16
 253 -15 253 -15 185 27 c 128,-1,17
 117 69 117 69 80 150 c 128,-1,18
 43 231 43 231 43 345 c 0,19,20
 43 457 43 457 80 538.5 c 128,-1,21
 117 620 117 620 185.5 663 c 128,-1,22
 254 706 254 706 346 706 c 0,23,8
 439 706 439 706 507 664 c 128,-1,9
224 542.5 m 128,-1,25
 182 480 182 480 182 345 c 0,26,27
 182 86 182 86 346 86 c 0,28,29
 426 86 426 86 467.5 148 c 128,-1,30
 509 210 509 210 509 346 c 0,31,32
 509 481 509 481 467.5 543 c 128,-1,33
 426 605 426 605 346 605 c 256,34,24
 266 605 266 605 224 542.5 c 128,-1,25
EndSplineSet
Substitution2: "'c2sc' Capitals to Small Capitals lookup 26 subtable" uni1E51.sc
Substitution2: "'aalt' Access All Alternates lookup 0 subtable" uni1E51.sc
Position2: "'cpsp' Capital Spacing lookup 0 subtable" dx=5 dy=0 dh=10 dv=0
EndChar

StartChar: uniA7B6
Encoding: 42934 42934 215
Width: 864
GlyphClass: 2
Flags: W
AnchorPoint: "Anchor-18" 0 0 basechar 0
AnchorPoint: "Anchor-17" 0 0 basechar 0
AnchorPoint: "Anchor-16" 432 691 basechar 0
AnchorPoint: "Anchor-15" 0 0 basechar 0
AnchorPoint: "Anchor-14" 432 0 basechar 0
LayerCount: 2
Fore
SplineSet
789.5 521 m 128,-1,1
 811 429 811 429 811 301 c 0,2,3
 811 -15 811 -15 591 -15 c 0,4,5
 463 -15 463 -15 430 106 c 1,6,7
 414 46 414 46 374 15.5 c 128,-1,8
 334 -15 334 -15 272 -15 c 0,9,10
 164 -15 164 -15 108.5 60 c 128,-1,11
 53 135 53 135 53 301 c 0,12,13
 53 429 53 429 74.5 520 c 128,-1,14
 96 611 96 611 131 691 c 1,15,-1
 256 691 l 1,16,17
 221 599 221 599 203.5 511.5 c 128,-1,18
 186 424 186 424 186 307 c 0,19,20
 186 225 186 225 196 177 c 128,-1,21
 206 129 206 129 227.5 107.5 c 128,-1,22
 249 86 249 86 286 86 c 0,23,24
 365 86 365 86 365 187 c 2,25,-1
 365 398 l 1,26,-1
 495 398 l 1,27,-1
 495 187 l 2,28,29
 495 133 495 133 516 109.5 c 128,-1,30
 537 86 537 86 578 86 c 0,31,32
 628 86 628 86 653.5 133.5 c 128,-1,33
 679 181 679 181 679 305 c 0,34,35
 679 422 679 422 660.5 510 c 128,-1,36
 642 598 642 598 605 691 c 1,37,-1
 733 691 l 1,38,0
 768 613 768 613 789.5 521 c 128,-1,1
EndSplineSet
Substitution2: "'c2sc' Capitals to Small Capitals lookup 26 subtable" uniA7B6.sc
Substitution2: "'aalt' Access All Alternates lookup 0 subtable" uniA7B6.sc
Position2: "'cpsp' Capital Spacing lookup 0 subtable" dx=5 dy=0 dh=10 dv=0
EndChar

StartChar: uni01EA
Encoding: 490 490 216
Width: 691
GlyphClass: 2
Flags: W
AnchorPoint: "Anchor-18" 0 0 basechar 0
AnchorPoint: "Anchor-17" 563 691 basechar 0
AnchorPoint: "Anchor-16" 346 691 basechar 0
AnchorPoint: "Anchor-15" 457 0 basechar 0
AnchorPoint: "Anchor-14" 346 0 basechar 0
LayerCount: 2
Fore
SplineSet
595 120.5 m 128,-1,1
 542 31 542 31 447 0 c 1,2,3
 378 -28 378 -28 352 -54 c 128,-1,4
 326 -80 326 -80 326 -108 c 0,5,6
 326 -154 326 -154 381 -154 c 0,7,8
 408 -154 408 -154 442 -147 c 1,9,-1
 432 -232 l 1,10,11
 395 -239 395 -239 365 -239 c 0,12,13
 304 -239 304 -239 266 -209 c 128,-1,14
 228 -179 228 -179 228 -130 c 0,15,16
 228 -60 228 -60 298 -12 c 1,17,18
 178 4 178 4 110.5 96.5 c 128,-1,19
 43 189 43 189 43 345 c 0,20,21
 43 457 43 457 80 538.5 c 128,-1,22
 117 620 117 620 185.5 663 c 128,-1,23
 254 706 254 706 346 706 c 0,24,25
 439 706 439 706 507 664 c 128,-1,26
 575 622 575 622 611.5 541 c 128,-1,27
 648 460 648 460 648 346 c 0,28,0
 648 210 648 210 595 120.5 c 128,-1,1
467.5 148 m 128,-1,30
 509 210 509 210 509 346 c 0,31,32
 509 481 509 481 467.5 543 c 128,-1,33
 426 605 426 605 346 605 c 256,34,35
 266 605 266 605 224 542.5 c 128,-1,36
 182 480 182 480 182 345 c 0,37,38
 182 86 182 86 346 86 c 0,39,29
 426 86 426 86 467.5 148 c 128,-1,30
EndSplineSet
Substitution2: "'c2sc' Capitals to Small Capitals lookup 26 subtable" uni01EB.sc
Substitution2: "'aalt' Access All Alternates lookup 0 subtable" uni01EB.sc
Position2: "'cpsp' Capital Spacing lookup 0 subtable" dx=5 dy=0 dh=10 dv=0
EndChar

StartChar: uni01EC
Encoding: 492 492 217
Width: 691
GlyphClass: 2
Flags: W
AnchorPoint: "Anchor-18" 0 0 basechar 0
AnchorPoint: "Anchor-17" 563 691 basechar 0
AnchorPoint: "Anchor-16" 348 878 basechar 0
AnchorPoint: "Anchor-15" 457 0 basechar 0
AnchorPoint: "Anchor-14" 346 0 basechar 0
LayerCount: 2
Fore
SplineSet
491 878 m 1,0,-1
 491 787 l 1,1,-1
 200 787 l 1,2,-1
 200 878 l 1,3,-1
 491 878 l 1,0,-1
595 120.5 m 128,-1,5
 542 31 542 31 447 0 c 1,6,7
 378 -28 378 -28 352 -54 c 128,-1,8
 326 -80 326 -80 326 -108 c 0,9,10
 326 -154 326 -154 381 -154 c 0,11,12
 408 -154 408 -154 442 -147 c 1,13,-1
 432 -232 l 1,14,15
 395 -239 395 -239 365 -239 c 0,16,17
 304 -239 304 -239 266 -209 c 128,-1,18
 228 -179 228 -179 228 -130 c 0,19,20
 228 -60 228 -60 298 -12 c 1,21,22
 178 4 178 4 110.5 96.5 c 128,-1,23
 43 189 43 189 43 345 c 0,24,25
 43 457 43 457 80 538.5 c 128,-1,26
 117 620 117 620 185.5 663 c 128,-1,27
 254 706 254 706 346 706 c 0,28,29
 439 706 439 706 507 664 c 128,-1,30
 575 622 575 622 611.5 541 c 128,-1,31
 648 460 648 460 648 346 c 0,32,4
 648 210 648 210 595 120.5 c 128,-1,5
467.5 148 m 128,-1,34
 509 210 509 210 509 346 c 0,35,36
 509 481 509 481 467.5 543 c 128,-1,37
 426 605 426 605 346 605 c 256,38,39
 266 605 266 605 224 542.5 c 128,-1,40
 182 480 182 480 182 345 c 0,41,42
 182 86 182 86 346 86 c 0,43,33
 426 86 426 86 467.5 148 c 128,-1,34
EndSplineSet
Substitution2: "'c2sc' Capitals to Small Capitals lookup 26 subtable" uni01ED.sc
Substitution2: "'aalt' Access All Alternates lookup 0 subtable" uni01ED.sc
Position2: "'cpsp' Capital Spacing lookup 0 subtable" dx=5 dy=0 dh=10 dv=0
EndChar

StartChar: uni0186
Encoding: 390 390 218
Width: 568
GlyphClass: 2
Flags: W
AnchorPoint: "Anchor-18" 216 349 basechar 0
AnchorPoint: "Anchor-17" 0 0 basechar 0
AnchorPoint: "Anchor-16" 237 691 basechar 0
AnchorPoint: "Anchor-15" 0 0 basechar 0
AnchorPoint: "Anchor-14" 237 0 basechar 0
LayerCount: 2
Fore
SplineSet
391 664.5 m 128,-1,1
 455 623 455 623 490 542 c 128,-1,2
 525 461 525 461 525 347 c 0,3,4
 525 232 525 232 487 150.5 c 128,-1,5
 449 69 449 69 381 27 c 128,-1,6
 313 -15 313 -15 223 -15 c 0,7,8
 103 -15 103 -15 13 69 c 1,9,-1
 76 146 l 1,10,11
 113 119 113 119 144.5 105 c 128,-1,12
 176 91 176 91 217 91 c 0,13,14
 295 91 295 91 340.5 153 c 128,-1,15
 386 215 386 215 386 347 c 0,16,17
 386 482 386 482 344.5 543 c 128,-1,18
 303 604 303 604 233 604 c 0,19,20
 156 604 156 604 86 555 c 1,21,-1
 21 633 l 1,22,23
 68 670 68 670 120.5 688 c 128,-1,24
 173 706 173 706 241 706 c 0,25,0
 327 706 327 706 391 664.5 c 128,-1,1
EndSplineSet
Substitution2: "'c2sc' Capitals to Small Capitals lookup 26 subtable" uni0254.sc
Substitution2: "'aalt' Access All Alternates lookup 0 subtable" uni0254.sc
Position2: "'cpsp' Capital Spacing lookup 0 subtable" dx=5 dy=0 dh=10 dv=0
EndChar

StartChar: Oslash
Encoding: 216 216 219
Width: 691
GlyphClass: 2
Flags: W
AnchorPoint: "Anchor-18" 0 0 basechar 0
AnchorPoint: "Anchor-17" 0 0 basechar 0
AnchorPoint: "Anchor-16" 342 717 basechar 0
AnchorPoint: "Anchor-15" 0 0 basechar 0
AnchorPoint: "Anchor-14" 346 0 basechar 0
LayerCount: 2
Fore
SplineSet
610 544 m 128,-1,1
 648 462 648 462 648 346 c 0,2,3
 648 233 648 233 611 152 c 128,-1,4
 574 71 574 71 506 28 c 128,-1,5
 438 -15 438 -15 346 -15 c 0,6,7
 320 -15 320 -15 288 -10 c 1,8,-1
 252 -131 l 1,9,-1
 149 -104 l 1,10,-1
 190 24 l 1,11,12
 119 66 119 66 81 147.5 c 128,-1,13
 43 229 43 229 43 345 c 0,14,15
 43 457 43 457 80 538.5 c 128,-1,16
 117 620 117 620 185.5 663 c 128,-1,17
 254 706 254 706 346 706 c 0,18,19
 378 706 378 706 402 702 c 1,20,-1
 439 824 l 1,21,-1
 543 796 l 1,22,-1
 502 667 l 1,23,0
 572 626 572 626 610 544 c 128,-1,1
224 542.5 m 128,-1,25
 182 480 182 480 182 345 c 0,26,27
 182 179 182 179 240 123 c 1,28,-1
 384 602 l 1,29,30
 366 605 366 605 346 605 c 0,31,24
 266 605 266 605 224 542.5 c 128,-1,25
467.5 148 m 128,-1,33
 509 210 509 210 509 346 c 0,34,35
 509 434 509 434 494.5 488.5 c 128,-1,36
 480 543 480 543 450 570 c 1,37,-1
 307 89 l 1,38,39
 325 86 325 86 346 86 c 0,40,32
 426 86 426 86 467.5 148 c 128,-1,33
EndSplineSet
Substitution2: "'c2sc' Capitals to Small Capitals lookup 26 subtable" oslash.sc
Substitution2: "'aalt' Access All Alternates lookup 0 subtable" oslash.sc
Position2: "'cpsp' Capital Spacing lookup 0 subtable" dx=5 dy=0 dh=10 dv=0
EndChar

StartChar: OE
Encoding: 338 338 224
Width: 901
GlyphClass: 2
Flags: W
AnchorPoint: "Anchor-18" 0 0 basechar 0
AnchorPoint: "Anchor-17" 0 0 basechar 0
AnchorPoint: "Anchor-16" 454 691 basechar 0
AnchorPoint: "Anchor-15" 0 0 basechar 0
AnchorPoint: "Anchor-14" 454 0 basechar 0
LayerCount: 2
Fore
SplineSet
857 0 m 1,0,-1
 416 0 l 1,1,2
 377 -15 377 -15 331 -15 c 0,3,4
 246 -15 246 -15 180.5 27 c 128,-1,5
 115 69 115 69 79 150.5 c 128,-1,6
 43 232 43 232 43 345 c 0,7,8
 43 457 43 457 79.5 538.5 c 128,-1,9
 116 620 116 620 181 663 c 128,-1,10
 246 706 246 706 331 706 c 0,11,12
 380 706 380 706 420 691 c 1,13,-1
 854 691 l 1,14,-1
 839 593 l 1,15,-1
 551 593 l 1,16,17
 614 519 614 519 625 400 c 1,18,-1
 807 400 l 1,19,-1
 807 302 l 1,20,-1
 626 302 l 1,21,22
 615 177 615 177 546 99 c 1,23,-1
 857 99 l 1,24,-1
 857 0 l 1,0,-1
223 148.5 m 128,-1,26
 264 86 264 86 336 86 c 0,27,28
 489 86 489 86 489 346 c 0,29,30
 489 605 489 605 336 605 c 0,31,32
 263 605 263 605 222.5 542 c 128,-1,33
 182 479 182 479 182 345 c 256,34,25
 182 211 182 211 223 148.5 c 128,-1,26
EndSplineSet
Substitution2: "'c2sc' Capitals to Small Capitals lookup 26 subtable" oe.sc
Substitution2: "'aalt' Access All Alternates lookup 0 subtable" oe.sc
Position2: "'cpsp' Capital Spacing lookup 0 subtable" dx=5 dy=0 dh=10 dv=0
EndChar

StartChar: P
Encoding: 80 80 225
Width: 591
GlyphClass: 2
Flags: W
AnchorPoint: "Anchor-18" 0 0 basechar 0
AnchorPoint: "Anchor-17" 0 0 basechar 0
AnchorPoint: "Anchor-16" 296 691 basechar 0
AnchorPoint: "Anchor-15" 0 0 basechar 0
AnchorPoint: "Anchor-14" 147 0 basechar 0
LayerCount: 2
Fore
SplineSet
491.5 636 m 128,-1,1
 565 581 565 581 565 471 c 0,2,3
 565 356 565 356 491 298.5 c 128,-1,4
 417 241 417 241 294 241 c 2,5,-1
 213 241 l 1,6,-1
 213 0 l 1,7,-1
 81 0 l 1,8,-1
 81 691 l 1,9,-1
 285 691 l 2,10,0
 418 691 418 691 491.5 636 c 128,-1,1
391 369.5 m 128,-1,12
 427 399 427 399 427 471 c 0,13,14
 427 594 427 594 284 594 c 2,15,-1
 213 594 l 1,16,-1
 213 340 l 1,17,-1
 284 340 l 2,18,11
 355 340 355 340 391 369.5 c 128,-1,12
EndSplineSet
Substitution2: "'c2sc' Capitals to Small Capitals lookup 26 subtable" p.sc
Substitution2: "'aalt' Access All Alternates lookup 0 subtable" p.sc
Position2: "'cpsp' Capital Spacing lookup 0 subtable" dx=5 dy=0 dh=10 dv=0
EndChar

StartChar: uni01A4
Encoding: 420 420 228
Width: 706
GlyphClass: 2
Flags: W
AnchorPoint: "Anchor-18" 0 0 basechar 0
AnchorPoint: "Anchor-17" 0 0 basechar 0
AnchorPoint: "Anchor-16" 411 691 basechar 0
AnchorPoint: "Anchor-15" 0 0 basechar 0
AnchorPoint: "Anchor-14" 262 0 basechar 0
LayerCount: 2
Fore
SplineSet
606.5 636 m 128,-1,1
 680 581 680 581 680 471 c 0,2,3
 680 356 680 356 606 298.5 c 128,-1,4
 532 241 532 241 409 241 c 2,5,-1
 328 241 l 1,6,-1
 328 0 l 1,7,-1
 196 0 l 1,8,-1
 196 593 l 1,9,-1
 166 593 l 2,10,11
 116 593 116 593 116 548 c 0,12,13
 116 531 116 531 120 516 c 128,-1,14
 124 501 124 501 133 479 c 1,15,-1
 49 440 l 1,16,17
 29 470 29 470 18 496.5 c 128,-1,18
 7 523 7 523 7 554 c 0,19,20
 7 617 7 617 51 654 c 128,-1,21
 95 691 95 691 173 691 c 2,22,-1
 400 691 l 2,23,0
 533 691 533 691 606.5 636 c 128,-1,1
506 369.5 m 128,-1,25
 542 399 542 399 542 471 c 0,26,27
 542 594 542 594 399 594 c 2,28,-1
 328 594 l 1,29,-1
 328 340 l 1,30,-1
 399 340 l 2,31,24
 470 340 470 340 506 369.5 c 128,-1,25
EndSplineSet
Substitution2: "'c2sc' Capitals to Small Capitals lookup 26 subtable" uni01A5.sc
Substitution2: "'aalt' Access All Alternates lookup 0 subtable" uni01A5.sc
Position2: "'cpsp' Capital Spacing lookup 0 subtable" dx=5 dy=0 dh=10 dv=0
EndChar

StartChar: Thorn
Encoding: 222 222 229
Width: 591
GlyphClass: 2
Flags: W
AnchorPoint: "Anchor-18" 0 0 basechar 0
AnchorPoint: "Anchor-17" 0 0 basechar 0
AnchorPoint: "Anchor-16" 296 691 basechar 0
AnchorPoint: "Anchor-15" 0 0 basechar 0
AnchorPoint: "Anchor-14" 296 0 basechar 0
LayerCount: 2
Fore
SplineSet
492 522.5 m 128,-1,1
 565 467 565 467 565 355 c 0,2,3
 565 237 565 237 491 178.5 c 128,-1,4
 417 120 417 120 294 120 c 2,5,-1
 213 120 l 1,6,-1
 213 0 l 1,7,-1
 81 0 l 1,8,-1
 81 691 l 1,9,-1
 213 691 l 1,10,-1
 213 578 l 1,11,-1
 285 578 l 2,12,0
 419 578 419 578 492 522.5 c 128,-1,1
391 249.5 m 128,-1,14
 427 280 427 280 427 355 c 0,15,16
 427 421 427 421 390.5 451 c 128,-1,17
 354 481 354 481 284 481 c 2,18,-1
 213 481 l 1,19,-1
 213 219 l 1,20,-1
 284 219 l 2,21,13
 355 219 355 219 391 249.5 c 128,-1,14
EndSplineSet
Substitution2: "'c2sc' Capitals to Small Capitals lookup 26 subtable" thorn.sc
Substitution2: "'aalt' Access All Alternates lookup 0 subtable" thorn.sc
Position2: "'cpsp' Capital Spacing lookup 0 subtable" dx=5 dy=0 dh=10 dv=0
EndChar

StartChar: Q
Encoding: 81 81 230
Width: 691
GlyphClass: 2
Flags: W
AnchorPoint: "Anchor-18" 0 0 basechar 0
AnchorPoint: "Anchor-17" 0 0 basechar 0
AnchorPoint: "Anchor-16" 345 691 basechar 0
AnchorPoint: "Anchor-15" 0 0 basechar 0
AnchorPoint: "Anchor-14" 345 0 basechar 0
LayerCount: 2
Fore
SplineSet
595 26 m 128,-1,1
 642 10 642 10 684 -20 c 1,2,-1
 602 -127 l 1,3,4
 544 -68 544 -68 486.5 -40 c 128,-1,5
 429 -12 429 -12 339 -12 c 0,6,7
 250 -12 250 -12 183 29.5 c 128,-1,8
 116 71 116 71 79.5 151 c 128,-1,9
 43 231 43 231 43 345 c 0,10,11
 43 457 43 457 80 538.5 c 128,-1,12
 117 620 117 620 185.5 663 c 128,-1,13
 254 706 254 706 346 706 c 0,14,15
 439 706 439 706 507 664 c 128,-1,16
 575 622 575 622 611.5 541 c 128,-1,17
 648 460 648 460 648 346 c 0,18,19
 648 227 648 227 605.5 154.5 c 128,-1,20
 563 82 563 82 487 42 c 1,21,0
 548 42 548 42 595 26 c 128,-1,1
346 86 m 0,23,24
 426 86 426 86 467.5 148 c 128,-1,25
 509 210 509 210 509 346 c 0,26,27
 509 481 509 481 467.5 543 c 128,-1,28
 426 605 426 605 346 605 c 256,29,30
 266 605 266 605 224 542.5 c 128,-1,31
 182 480 182 480 182 345 c 0,32,22
 182 86 182 86 346 86 c 0,23,24
EndSplineSet
Substitution2: "'c2sc' Capitals to Small Capitals lookup 26 subtable" q.sc
Substitution2: "'aalt' Access All Alternates lookup 0 subtable" q.sc
Position2: "'cpsp' Capital Spacing lookup 0 subtable" dx=5 dy=0 dh=10 dv=0
EndChar

StartChar: uni024A
Encoding: 586 586 231
Width: 671
GlyphClass: 2
Flags: W
AnchorPoint: "Anchor-18" 0 0 basechar 0
AnchorPoint: "Anchor-17" 0 0 basechar 0
AnchorPoint: "Anchor-16" 336 691 basechar 0
AnchorPoint: "Anchor-15" 0 0 basechar 0
AnchorPoint: "Anchor-14" 336 -206 basechar 0
LayerCount: 2
Fore
SplineSet
765 -177 m 1,0,1
 711 -218 711 -218 636 -218 c 0,2,3
 553 -218 553 -218 505.5 -173.5 c 128,-1,4
 458 -129 458 -129 458 -43 c 2,5,-1
 458 43 l 1,6,7
 400 -15 400 -15 314 -15 c 0,8,9
 236 -15 236 -15 174.5 25 c 128,-1,10
 113 65 113 65 78 143.5 c 128,-1,11
 43 222 43 222 43 332 c 0,12,13
 43 448 43 448 78.5 532.5 c 128,-1,14
 114 617 114 617 176 661.5 c 128,-1,15
 238 706 238 706 318 706 c 0,16,17
 403 706 403 706 466 648 c 1,18,-1
 472 691 l 1,19,-1
 590 691 l 1,20,-1
 590 -51 l 2,21,22
 590 -118 590 -118 648 -118 c 0,23,24
 669 -118 669 -118 684 -113 c 128,-1,25
 699 -108 699 -108 719 -97 c 1,26,-1
 765 -177 l 1,0,1
458 135 m 1,28,-1
 458 558 l 1,29,30
 408 605 408 605 341 605 c 0,31,32
 182 605 182 605 182 332 c 0,33,34
 182 85 182 85 336 85 c 0,35,27
 408 85 408 85 458 135 c 1,28,-1
EndSplineSet
Substitution2: "'c2sc' Capitals to Small Capitals lookup 26 subtable" uni024B.sc
Substitution2: "'aalt' Access All Alternates lookup 0 subtable" uni024B.sc
Position2: "'cpsp' Capital Spacing lookup 0 subtable" dx=5 dy=0 dh=10 dv=0
EndChar

StartChar: R
Encoding: 82 82 232
Width: 611
GlyphClass: 2
Flags: W
AnchorPoint: "Anchor-18" 0 0 basechar 0
AnchorPoint: "Anchor-17" 0 0 basechar 0
AnchorPoint: "Anchor-16" 300 691 basechar 0
AnchorPoint: "Anchor-15" 0 0 basechar 0
AnchorPoint: "Anchor-14" 310 0 basechar 0
LayerCount: 2
Fore
SplineSet
297 277 m 1,0,-1
 213 277 l 1,1,-1
 213 0 l 1,2,-1
 81 0 l 1,3,-1
 81 691 l 1,4,-1
 287 691 l 2,5,6
 561 691 561 691 561 488 c 0,7,8
 561 419 561 419 527 374 c 128,-1,9
 493 329 493 329 421 301 c 1,10,-1
 602 0 l 1,11,-1
 450 0 l 1,12,-1
 297 277 l 1,0,-1
213 372 m 1,13,-1
 295 372 l 2,14,15
 358 372 358 372 390.5 399.5 c 128,-1,16
 423 427 423 427 423 488 c 0,17,18
 423 544 423 544 389.5 569.5 c 128,-1,19
 356 595 356 595 284 595 c 2,20,-1
 213 595 l 1,21,-1
 213 372 l 1,13,-1
EndSplineSet
Substitution2: "'c2sc' Capitals to Small Capitals lookup 26 subtable" r.sc
Substitution2: "'aalt' Access All Alternates lookup 0 subtable" r.sc
Position2: "'cpsp' Capital Spacing lookup 0 subtable" dx=5 dy=0 dh=10 dv=0
EndChar

StartChar: uni024C
Encoding: 588 588 239
Width: 624
GlyphClass: 2
Flags: W
AnchorPoint: "Anchor-18" 0 0 basechar 0
AnchorPoint: "Anchor-17" 0 0 basechar 0
AnchorPoint: "Anchor-16" 313 691 basechar 0
AnchorPoint: "Anchor-15" 0 0 basechar 0
AnchorPoint: "Anchor-14" 323 0 basechar 0
LayerCount: 2
Fore
SplineSet
463 0 m 1,0,-1
 310 277 l 1,1,-1
 226 277 l 1,2,-1
 226 0 l 1,3,-1
 94 0 l 1,4,-1
 94 277 l 1,5,-1
 17 277 l 1,6,-1
 17 372 l 1,7,-1
 94 372 l 1,8,-1
 94 691 l 1,9,-1
 300 691 l 2,10,11
 574 691 574 691 574 488 c 0,12,13
 574 419 574 419 540 374 c 128,-1,14
 506 329 506 329 434 301 c 1,15,-1
 615 0 l 1,16,-1
 463 0 l 1,0,-1
403.5 399.5 m 128,-1,18
 436 427 436 427 436 488 c 0,19,20
 436 544 436 544 402.5 569.5 c 128,-1,21
 369 595 369 595 297 595 c 2,22,-1
 226 595 l 1,23,-1
 226 372 l 1,24,-1
 308 372 l 2,25,17
 371 372 371 372 403.5 399.5 c 128,-1,18
EndSplineSet
Substitution2: "'c2sc' Capitals to Small Capitals lookup 26 subtable" uni024D.sc
Substitution2: "'aalt' Access All Alternates lookup 0 subtable" uni024D.sc
Position2: "'cpsp' Capital Spacing lookup 0 subtable" dx=5 dy=0 dh=10 dv=0
EndChar

StartChar: uni2C64
Encoding: 11364 11364 240
Width: 611
GlyphClass: 2
Flags: W
AnchorPoint: "Anchor-18" 0 0 basechar 0
AnchorPoint: "Anchor-17" 0 0 basechar 0
AnchorPoint: "Anchor-16" 300 691 basechar 0
AnchorPoint: "Anchor-15" 0 0 basechar 0
AnchorPoint: "Anchor-14" 310 0 basechar 0
LayerCount: 2
Fore
SplineSet
271 -118 m 0,1,2
 292 -118 292 -118 307 -113 c 128,-1,3
 322 -108 322 -108 342 -97 c 1,4,-1
 388 -177 l 1,5,6
 334 -218 334 -218 259 -218 c 0,7,8
 176 -218 176 -218 128.5 -173.5 c 128,-1,9
 81 -129 81 -129 81 -43 c 2,10,-1
 81 691 l 1,11,-1
 287 691 l 2,12,13
 561 691 561 691 561 488 c 0,14,15
 561 419 561 419 527 374 c 128,-1,16
 493 329 493 329 421 301 c 1,17,-1
 602 0 l 1,18,-1
 450 0 l 1,19,-1
 297 277 l 1,20,-1
 213 277 l 1,21,-1
 213 -51 l 2,22,0
 213 -118 213 -118 271 -118 c 0,1,2
213 595 m 1,23,-1
 213 372 l 1,24,-1
 295 372 l 2,25,26
 358 372 358 372 390.5 399.5 c 128,-1,27
 423 427 423 427 423 488 c 0,28,29
 423 544 423 544 389.5 569.5 c 128,-1,30
 356 595 356 595 284 595 c 2,31,-1
 213 595 l 1,23,-1
EndSplineSet
Substitution2: "'ss01' Style Set 1 lookup 33 subtable" uni2C64.ss01
Substitution2: "'salt' Stylistic Alternatives lookup 32 subtable" uni2C64.ss01
Substitution2: "'c2sc' Capitals to Small Capitals lookup 26 subtable" uni2C64.sc
AlternateSubs2: "'aalt' Access All Alternates lookup 1 subtable" uni2C64.sc uni2C64.ss01
Position2: "'cpsp' Capital Spacing lookup 0 subtable" dx=5 dy=0 dh=10 dv=0
EndChar

StartChar: uni2C64.ss01
Encoding: 65544 -1 241
Width: 431
GlyphClass: 2
Flags: W
AnchorPoint: "Anchor-18" 0 0 basechar 0
AnchorPoint: "Anchor-17" 0 0 basechar 0
AnchorPoint: "Anchor-16" 215 691 basechar 0
AnchorPoint: "Anchor-15" 0 0 basechar 0
AnchorPoint: "Anchor-14" 215 -206 basechar 0
LayerCount: 2
Fore
SplineSet
271 -118 m 0,1,2
 292 -118 292 -118 307 -113 c 128,-1,3
 322 -108 322 -108 342 -97 c 1,4,-1
 388 -177 l 1,5,6
 334 -218 334 -218 259 -218 c 0,7,8
 176 -218 176 -218 128.5 -173.5 c 128,-1,9
 81 -129 81 -129 81 -43 c 2,10,-1
 81 691 l 1,11,-1
 196 691 l 1,12,-1
 207 593 l 1,13,14
 253 705 253 705 367 705 c 0,15,16
 406 705 406 705 434 695 c 1,17,-1
 409 569 l 1,18,19
 383 577 383 577 352 577 c 0,20,21
 296 577 296 577 262.5 542 c 128,-1,22
 229 507 229 507 213 436 c 1,23,-1
 213 -51 l 2,24,0
 213 -118 213 -118 271 -118 c 0,1,2
EndSplineSet
Position2: "'cpsp' Capital Spacing lookup 0 subtable" dx=5 dy=0 dh=10 dv=0
EndChar

StartChar: S
Encoding: 83 83 242
Width: 560
GlyphClass: 2
Flags: W
AnchorPoint: "Anchor-18" 0 0 basechar 0
AnchorPoint: "Anchor-17" 0 0 basechar 0
AnchorPoint: "Anchor-16" 287 691 basechar 0
AnchorPoint: "Anchor-15" 0 0 basechar 0
AnchorPoint: "Anchor-14" 276 0 basechar 0
LayerCount: 2
Fore
SplineSet
407 685 m 128,-1,1
 461 664 461 664 508 621 c 1,2,-1
 443 546 l 1,3,4
 406 577 406 577 368.5 591 c 128,-1,5
 331 605 331 605 288 605 c 0,6,7
 240 605 240 605 210.5 583.5 c 128,-1,8
 181 562 181 562 181 523 c 0,9,10
 181 497 181 497 192.5 480 c 128,-1,11
 204 463 204 463 234 448 c 128,-1,12
 264 433 264 433 323 415 c 0,13,14
 425 383 425 383 476.5 335.5 c 128,-1,15
 528 288 528 288 528 197 c 0,16,17
 528 135 528 135 496.5 87 c 128,-1,18
 465 39 465 39 406 12 c 128,-1,19
 347 -15 347 -15 266 -15 c 0,20,21
 187 -15 187 -15 124.5 10.5 c 128,-1,22
 62 36 62 36 17 80 c 1,23,-1
 85 156 l 1,24,25
 125 122 125 122 168 104.5 c 128,-1,26
 211 87 211 87 263 87 c 0,27,28
 320 87 320 87 355 114 c 128,-1,29
 390 141 390 141 390 190 c 0,30,31
 390 220 390 220 378 239.5 c 128,-1,32
 366 259 366 259 337 274.5 c 128,-1,33
 308 290 308 290 253 307 c 0,34,35
 143 341 143 341 94 389 c 128,-1,36
 45 437 45 437 45 515 c 0,37,38
 45 572 45 572 75 615 c 128,-1,39
 105 658 105 658 158.5 682 c 128,-1,40
 212 706 212 706 280 706 c 0,41,0
 353 706 353 706 407 685 c 128,-1,1
EndSplineSet
Substitution2: "'c2sc' Capitals to Small Capitals lookup 26 subtable" s.sc
Substitution2: "'aalt' Access All Alternates lookup 0 subtable" s.sc
Position2: "'cpsp' Capital Spacing lookup 0 subtable" dx=5 dy=0 dh=10 dv=0
EndChar

StartChar: uniA78B
Encoding: 42891 42891 245
Width: 239
GlyphClass: 2
Flags: W
LayerCount: 2
Fore
SplineSet
70 340 m 1,0,-1
 53 691 l 1,1,-1
 185 691 l 1,2,-1
 168 340 l 1,3,-1
 70 340 l 1,0,-1
EndSplineSet
Position2: "'cpsp' Capital Spacing lookup 0 subtable" dx=5 dy=0 dh=10 dv=0
EndChar

StartChar: Scedilla
Encoding: 350 350 247
Width: 560
GlyphClass: 2
Flags: W
AnchorPoint: "Anchor-18" 0 0 basechar 0
AnchorPoint: "Anchor-17" 0 0 basechar 0
AnchorPoint: "Anchor-16" 287 691 basechar 0
AnchorPoint: "Anchor-15" 0 0 basechar 0
AnchorPoint: "Anchor-14" 294 -253 basechar 0
LayerCount: 2
Fore
SplineSet
470.5 55 m 128,-1,1
 413 -2 413 -2 312 -13 c 1,2,-1
 312 -52 l 1,3,4
 362 -57 362 -57 386.5 -81.5 c 128,-1,5
 411 -106 411 -106 411 -144 c 0,6,7
 411 -194 411 -194 373 -223.5 c 128,-1,8
 335 -253 335 -253 274 -253 c 0,9,10
 243 -253 243 -253 216 -245.5 c 128,-1,11
 189 -238 189 -238 171 -225 c 1,12,-1
 202 -162 l 1,13,14
 232 -178 232 -178 265 -178 c 0,15,16
 314 -178 314 -178 314 -144 c 0,17,18
 314 -124 314 -124 292.5 -115 c 128,-1,19
 271 -106 271 -106 223 -106 c 1,20,-1
 234 -14 l 1,21,22
 103 -4 103 -4 17 80 c 1,23,-1
 85 156 l 1,24,25
 125 122 125 122 168 104.5 c 128,-1,26
 211 87 211 87 263 87 c 0,27,28
 320 87 320 87 355 114 c 128,-1,29
 390 141 390 141 390 190 c 0,30,31
 390 220 390 220 378 239.5 c 128,-1,32
 366 259 366 259 337 274.5 c 128,-1,33
 308 290 308 290 253 307 c 0,34,35
 143 341 143 341 94 389 c 128,-1,36
 45 437 45 437 45 515 c 0,37,38
 45 572 45 572 75 615 c 128,-1,39
 105 658 105 658 158.5 682 c 128,-1,40
 212 706 212 706 280 706 c 0,41,42
 353 706 353 706 407 685 c 128,-1,43
 461 664 461 664 508 621 c 1,44,-1
 443 546 l 1,45,46
 406 577 406 577 368.5 591 c 128,-1,47
 331 605 331 605 288 605 c 0,48,49
 240 605 240 605 210.5 583.5 c 128,-1,50
 181 562 181 562 181 523 c 0,51,52
 181 497 181 497 192.5 480 c 128,-1,53
 204 463 204 463 234 448 c 128,-1,54
 264 433 264 433 323 415 c 0,55,56
 425 383 425 383 476.5 335.5 c 128,-1,57
 528 288 528 288 528 197 c 0,58,0
 528 112 528 112 470.5 55 c 128,-1,1
EndSplineSet
Substitution2: "'c2sc' Capitals to Small Capitals lookup 26 subtable" scedilla.sc
Substitution2: "'locl' Localized Forms in Latin lookup 5 subtable" Scommaaccent
Substitution2: "'locl' Localized Forms in Latin lookup 4 subtable" Scommaaccent
AlternateSubs2: "'aalt' Access All Alternates lookup 1 subtable" Scommaaccent scedilla.sc
Position2: "'cpsp' Capital Spacing lookup 0 subtable" dx=5 dy=0 dh=10 dv=0
EndChar

StartChar: uni1E9E
Encoding: 7838 7838 252
Width: 664
GlyphClass: 2
Flags: W
LayerCount: 2
Fore
SplineSet
451 687 m 128,-1,1
 516 668 516 668 582 635 c 1,2,-1
 582 566 l 1,3,-1
 423 391 l 1,4,5
 522 379 522 379 575.5 330 c 128,-1,6
 629 281 629 281 629 195 c 0,7,8
 629 129 629 129 598.5 81.5 c 128,-1,9
 568 34 568 34 515 9.5 c 128,-1,10
 462 -15 462 -15 394 -15 c 0,11,12
 317 -15 317 -15 270 10 c 1,13,-1
 309 101 l 1,14,15
 342 88 342 88 380 88 c 0,16,17
 432 88 432 88 461 115 c 128,-1,18
 490 142 490 142 490 196 c 0,19,20
 490 256 490 256 444.5 285.5 c 128,-1,21
 399 315 399 315 305 319 c 1,22,-1
 305 400 l 1,23,-1
 460 577 l 1,24,25
 388 605 388 605 318 605 c 0,26,27
 265 605 265 605 239 576.5 c 128,-1,28
 213 548 213 548 213 489 c 2,29,-1
 213 0 l 1,30,-1
 81 0 l 1,31,-1
 81 487 l 2,32,33
 81 591 81 591 140.5 648.5 c 128,-1,34
 200 706 200 706 312 706 c 0,35,0
 386 706 386 706 451 687 c 128,-1,1
EndSplineSet
Substitution2: "'c2sc' Capitals to Small Capitals lookup 26 subtable" germandbls.sc
Substitution2: "'aalt' Access All Alternates lookup 0 subtable" germandbls.sc
Position2: "'cpsp' Capital Spacing lookup 0 subtable" dx=5 dy=0 dh=10 dv=0
EndChar

StartChar: T
Encoding: 84 84 254
Width: 530
GlyphClass: 2
Flags: W
AnchorPoint: "Anchor-18" 265 346 basechar 0
AnchorPoint: "Anchor-17" 0 0 basechar 0
AnchorPoint: "Anchor-16" 265 691 basechar 0
AnchorPoint: "Anchor-15" 0 0 basechar 0
AnchorPoint: "Anchor-14" 265 0 basechar 0
LayerCount: 2
Fore
SplineSet
525 691 m 1,0,-1
 511 586 l 1,1,-1
 331 586 l 1,2,-1
 331 0 l 1,3,-1
 198 0 l 1,4,-1
 198 586 l 1,5,-1
 12 586 l 1,6,-1
 12 691 l 1,7,-1
 525 691 l 1,0,-1
EndSplineSet
Substitution2: "'c2sc' Capitals to Small Capitals lookup 26 subtable" t.sc
Substitution2: "'aalt' Access All Alternates lookup 0 subtable" t.sc
Position2: "'cpsp' Capital Spacing lookup 0 subtable" dx=5 dy=0 dh=10 dv=0
EndChar

StartChar: Tbar
Encoding: 358 358 255
Width: 530
GlyphClass: 2
Flags: W
AnchorPoint: "Anchor-18" 265 345 basechar 0
AnchorPoint: "Anchor-17" 0 0 basechar 0
AnchorPoint: "Anchor-16" 265 690 basechar 0
AnchorPoint: "Anchor-15" 0 0 basechar 0
AnchorPoint: "Anchor-14" 265 -1 basechar 0
LayerCount: 2
Fore
SplineSet
511 585 m 1,0,-1
 331 585 l 1,1,-1
 331 388 l 1,2,-1
 451 388 l 1,3,-1
 451 306 l 1,4,-1
 331 306 l 1,5,-1
 331 -1 l 1,6,-1
 198 -1 l 1,7,-1
 198 306 l 1,8,-1
 80 306 l 1,9,-1
 80 388 l 1,10,-1
 198 388 l 1,11,-1
 198 585 l 1,12,-1
 12 585 l 1,13,-1
 12 690 l 1,14,-1
 525 690 l 1,15,-1
 511 585 l 1,0,-1
EndSplineSet
Substitution2: "'c2sc' Capitals to Small Capitals lookup 26 subtable" tbar.sc
Substitution2: "'aalt' Access All Alternates lookup 0 subtable" tbar.sc
Position2: "'cpsp' Capital Spacing lookup 0 subtable" dx=5 dy=0 dh=10 dv=0
EndChar

StartChar: uni0162
Encoding: 354 354 257
Width: 530
GlyphClass: 2
Flags: W
AnchorPoint: "Anchor-18" 265 346 basechar 0
AnchorPoint: "Anchor-17" 0 0 basechar 0
AnchorPoint: "Anchor-16" 265 691 basechar 0
AnchorPoint: "Anchor-15" 0 0 basechar 0
AnchorPoint: "Anchor-14" 265 0 basechar 0
LayerCount: 2
Fore
SplineSet
407 -81.5 m 128,-1,1
 432 -106 432 -106 432 -144 c 0,2,3
 432 -194 432 -194 393 -223.5 c 128,-1,4
 354 -253 354 -253 292 -253 c 0,5,6
 262 -253 262 -253 235.5 -245.5 c 128,-1,7
 209 -238 209 -238 192 -225 c 1,8,-1
 223 -162 l 1,9,10
 253 -178 253 -178 283 -178 c 0,11,12
 335 -178 335 -178 335 -143 c 0,13,14
 335 -124 335 -124 313.5 -115 c 128,-1,15
 292 -106 292 -106 244 -106 c 1,16,-1
 257 0 l 1,17,-1
 198 0 l 1,18,-1
 198 586 l 1,19,-1
 12 586 l 1,20,-1
 12 691 l 1,21,-1
 525 691 l 1,22,-1
 511 586 l 1,23,-1
 331 586 l 1,24,-1
 331 -52 l 1,25,0
 382 -57 382 -57 407 -81.5 c 128,-1,1
EndSplineSet
Substitution2: "'c2sc' Capitals to Small Capitals lookup 26 subtable" uni0163.sc
Substitution2: "'locl' Localized Forms in Latin lookup 5 subtable" uni021A
Substitution2: "'locl' Localized Forms in Latin lookup 4 subtable" uni021A
AlternateSubs2: "'aalt' Access All Alternates lookup 1 subtable" uni021A uni0163.sc
Position2: "'cpsp' Capital Spacing lookup 0 subtable" dx=5 dy=0 dh=10 dv=0
EndChar

StartChar: uni023E
Encoding: 574 574 260
Width: 530
GlyphClass: 2
Flags: W
AnchorPoint: "Anchor-18" 0 0 basechar 0
AnchorPoint: "Anchor-17" 0 0 basechar 0
AnchorPoint: "Anchor-16" 265 691 basechar 0
AnchorPoint: "Anchor-15" 0 0 basechar 0
AnchorPoint: "Anchor-14" 265 0 basechar 0
LayerCount: 2
Fore
SplineSet
511 589 m 1,0,-1
 418 589 l 1,1,-1
 325 374 l 1,2,-1
 325 0 l 1,3,-1
 204 0 l 1,4,-1
 204 93 l 1,5,-1
 133 -72 l 1,6,-1
 86 -52 l 1,7,-1
 204 222 l 1,8,-1
 204 589 l 1,9,-1
 12 589 l 1,10,-1
 12 691 l 1,11,-1
 406 691 l 1,12,-1
 434 757 l 1,13,-1
 481 736 l 1,14,-1
 462 691 l 1,15,-1
 525 691 l 1,16,-1
 511 589 l 1,0,-1
325 504 m 1,17,-1
 362 589 l 1,18,-1
 325 589 l 1,19,-1
 325 504 l 1,17,-1
EndSplineSet
Substitution2: "'c2sc' Capitals to Small Capitals lookup 26 subtable" uni2C66.sc
Substitution2: "'aalt' Access All Alternates lookup 0 subtable" uni2C66.sc
Position2: "'cpsp' Capital Spacing lookup 0 subtable" dx=5 dy=0 dh=10 dv=0
EndChar

StartChar: uni01AC
Encoding: 428 428 263
Width: 577
GlyphClass: 2
Flags: W
AnchorPoint: "Anchor-18" 0 0 basechar 0
AnchorPoint: "Anchor-17" 0 0 basechar 0
AnchorPoint: "Anchor-16" 288 691 basechar 0
AnchorPoint: "Anchor-15" 0 0 basechar 0
AnchorPoint: "Anchor-14" 312 0 basechar 0
LayerCount: 2
Fore
SplineSet
558 586 m 1,0,-1
 378 586 l 1,1,-1
 378 0 l 1,2,-1
 246 0 l 1,3,-1
 246 586 l 1,4,-1
 167 586 l 2,5,6
 143 586 143 586 130.5 574.5 c 128,-1,7
 118 563 118 563 118 543 c 0,8,9
 118 527 118 527 122 515 c 128,-1,10
 126 503 126 503 135 481 c 1,11,-1
 44 439 l 1,12,13
 7 499 7 499 7 553 c 0,14,15
 7 617 7 617 52.5 654 c 128,-1,16
 98 691 98 691 178 691 c 2,17,-1
 572 691 l 1,18,-1
 558 586 l 1,0,-1
EndSplineSet
Substitution2: "'c2sc' Capitals to Small Capitals lookup 26 subtable" uni01AD.sc
Substitution2: "'aalt' Access All Alternates lookup 0 subtable" uni01AD.sc
Position2: "'cpsp' Capital Spacing lookup 0 subtable" dx=5 dy=0 dh=10 dv=0
EndChar

StartChar: uni0184
Encoding: 388 388 266
Width: 596
GlyphClass: 2
Flags: W
AnchorPoint: "Anchor-18" 0 0 basechar 0
AnchorPoint: "Anchor-17" 0 0 basechar 0
AnchorPoint: "Anchor-16" 298 691 basechar 0
AnchorPoint: "Anchor-15" 0 0 basechar 0
AnchorPoint: "Anchor-14" 298 0 basechar 0
LayerCount: 2
Fore
SplineSet
505.5 392.5 m 128,-1,1
 576 338 576 338 576 229 c 0,2,3
 576 113 576 113 503 56.5 c 128,-1,4
 430 0 430 0 306 0 c 2,5,-1
 92 0 l 1,6,-1
 92 506 l 1,7,-1
 20 553 l 1,8,9
 73 609 73 609 111 691 c 1,10,-1
 225 691 l 1,11,-1
 225 447 l 1,12,-1
 306 447 l 2,13,0
 435 447 435 447 505.5 392.5 c 128,-1,1
402.5 128 m 128,-1,15
 437 157 437 157 437 227 c 0,16,17
 437 292 437 292 402.5 321.5 c 128,-1,18
 368 351 368 351 299 351 c 2,19,-1
 225 351 l 1,20,-1
 225 99 l 1,21,-1
 303 99 l 2,22,14
 368 99 368 99 402.5 128 c 128,-1,15
EndSplineSet
Substitution2: "'c2sc' Capitals to Small Capitals lookup 26 subtable" uni0185.sc
Substitution2: "'aalt' Access All Alternates lookup 0 subtable" uni0185.sc
Position2: "'cpsp' Capital Spacing lookup 0 subtable" dx=5 dy=0 dh=10 dv=0
EndChar

StartChar: uni01A7
Encoding: 423 423 267
Width: 551
GlyphClass: 2
Flags: W
AnchorPoint: "Anchor-18" 0 0 basechar 0
AnchorPoint: "Anchor-17" 0 0 basechar 0
AnchorPoint: "Anchor-16" 275 691 basechar 0
AnchorPoint: "Anchor-15" 0 0 basechar 0
AnchorPoint: "Anchor-14" 275 0 basechar 0
LayerCount: 2
Fore
SplineSet
406.5 683 m 128,-1,1
 459 660 459 660 487.5 618 c 128,-1,2
 516 576 516 576 516 520 c 0,3,4
 516 442 516 442 466 394.5 c 128,-1,5
 416 347 416 347 306 313 c 0,6,7
 228 289 228 289 199 260.5 c 128,-1,8
 170 232 170 232 170 188 c 0,9,10
 170 140 170 140 203 114 c 128,-1,11
 236 88 236 88 290 88 c 0,12,13
 384 88 384 88 466 155 c 1,14,-1
 534 80 l 1,15,16
 488 36 488 36 424.5 10.5 c 128,-1,17
 361 -15 361 -15 282 -15 c 0,18,19
 207 -15 207 -15 150.5 12 c 128,-1,20
 94 39 94 39 63 86 c 128,-1,21
 32 133 32 133 32 193 c 0,22,23
 32 281 32 281 83.5 328.5 c 128,-1,24
 135 376 135 376 237 408 c 0,25,26
 294 426 294 426 324.5 442.5 c 128,-1,27
 355 459 355 459 367 478 c 128,-1,28
 379 497 379 497 379 525 c 0,29,30
 379 565 379 565 352 585 c 128,-1,31
 325 605 325 605 278 605 c 0,32,33
 233 605 233 605 195 591 c 128,-1,34
 157 577 157 577 119 547 c 1,35,-1
 54 621 l 1,36,37
 103 663 103 663 159.5 684.5 c 128,-1,38
 216 706 216 706 286 706 c 0,39,0
 354 706 354 706 406.5 683 c 128,-1,1
EndSplineSet
Substitution2: "'c2sc' Capitals to Small Capitals lookup 26 subtable" uni01A8.sc
Substitution2: "'aalt' Access All Alternates lookup 0 subtable" uni01A8.sc
Position2: "'cpsp' Capital Spacing lookup 0 subtable" dx=5 dy=0 dh=10 dv=0
EndChar

StartChar: uni01AE
Encoding: 430 430 268
Width: 531
GlyphClass: 2
Flags: W
AnchorPoint: "Anchor-18" 265 346 basechar 0
AnchorPoint: "Anchor-17" 0 0 basechar 0
AnchorPoint: "Anchor-16" 265 691 basechar 0
AnchorPoint: "Anchor-15" 0 0 basechar 0
AnchorPoint: "Anchor-14" 265 0 basechar 0
LayerCount: 2
Fore
SplineSet
389 -118 m 0,1,2
 410 -118 410 -118 425 -113 c 128,-1,3
 440 -108 440 -108 460 -97 c 1,4,-1
 506 -177 l 1,5,6
 452 -218 452 -218 377 -218 c 0,7,8
 294 -218 294 -218 246.5 -173.5 c 128,-1,9
 199 -129 199 -129 199 -43 c 2,10,-1
 199 0 l 1,11,-1
 198 0 l 1,12,-1
 198 586 l 1,13,-1
 12 586 l 1,14,-1
 12 691 l 1,15,-1
 525 691 l 1,16,-1
 511 586 l 1,17,-1
 331 586 l 1,18,-1
 331 -51 l 2,19,0
 331 -118 331 -118 389 -118 c 0,1,2
EndSplineSet
Substitution2: "'c2sc' Capitals to Small Capitals lookup 26 subtable" uni0288.sc
Substitution2: "'aalt' Access All Alternates lookup 0 subtable" uni0288.sc
Position2: "'cpsp' Capital Spacing lookup 0 subtable" dx=5 dy=0 dh=10 dv=0
EndChar

StartChar: U
Encoding: 85 85 269
Width: 656
GlyphClass: 2
Flags: W
AnchorPoint: "Anchor-18" 0 0 basechar 0
AnchorPoint: "Anchor-17" 595 691 basechar 0
AnchorPoint: "Anchor-16" 328 691 basechar 0
AnchorPoint: "Anchor-15" 439 0 basechar 0
AnchorPoint: "Anchor-14" 328 0 basechar 0
LayerCount: 2
Fore
SplineSet
585 226 m 2,0,1
 585 156 585 156 555.5 101.5 c 128,-1,2
 526 47 526 47 467.5 16 c 128,-1,3
 409 -15 409 -15 327 -15 c 0,4,5
 203 -15 203 -15 137 50.5 c 128,-1,6
 71 116 71 116 71 226 c 2,7,-1
 71 691 l 1,8,-1
 203 691 l 1,9,-1
 203 233 l 2,10,11
 203 160 203 160 233.5 124 c 128,-1,12
 264 88 264 88 327 88 c 0,13,14
 391 88 391 88 421.5 124 c 128,-1,15
 452 160 452 160 452 233 c 2,16,-1
 452 691 l 1,17,-1
 585 691 l 1,18,-1
 585 226 l 2,0,1
EndSplineSet
Substitution2: "'c2sc' Capitals to Small Capitals lookup 26 subtable" u.sc
Substitution2: "'aalt' Access All Alternates lookup 0 subtable" u.sc
Position2: "'cpsp' Capital Spacing lookup 0 subtable" dx=5 dy=0 dh=10 dv=0
EndChar

StartChar: uni0244
Encoding: 580 580 271
Width: 685
GlyphClass: 2
Flags: W
AnchorPoint: "Anchor-18" 0 0 basechar 0
AnchorPoint: "Anchor-17" 610 691 basechar 0
AnchorPoint: "Anchor-16" 343 691 basechar 0
AnchorPoint: "Anchor-15" 454 0 basechar 0
AnchorPoint: "Anchor-14" 343 0 basechar 0
LayerCount: 2
Fore
SplineSet
662 504 m 1,0,-1
 600 504 l 1,1,-1
 600 226 l 2,2,3
 600 156 600 156 570.5 101.5 c 128,-1,4
 541 47 541 47 482.5 16 c 128,-1,5
 424 -15 424 -15 342 -15 c 0,6,7
 218 -15 218 -15 152 50.5 c 128,-1,8
 86 116 86 116 86 226 c 2,9,-1
 86 504 l 1,10,-1
 23 504 l 1,11,-1
 23 585 l 1,12,-1
 86 585 l 1,13,-1
 86 691 l 1,14,-1
 218 691 l 1,15,-1
 218 585 l 1,16,-1
 467 585 l 1,17,-1
 467 691 l 1,18,-1
 600 691 l 1,19,-1
 600 585 l 1,20,-1
 662 585 l 1,21,-1
 662 504 l 1,0,-1
467 504 m 1,22,-1
 218 504 l 1,23,-1
 218 233 l 2,24,25
 218 160 218 160 248.5 124 c 128,-1,26
 279 88 279 88 342 88 c 0,27,28
 406 88 406 88 436.5 124 c 128,-1,29
 467 160 467 160 467 233 c 2,30,-1
 467 504 l 1,22,-1
EndSplineSet
Substitution2: "'c2sc' Capitals to Small Capitals lookup 26 subtable" uni0289.sc
Substitution2: "'aalt' Access All Alternates lookup 0 subtable" uni0289.sc
Position2: "'cpsp' Capital Spacing lookup 0 subtable" dx=5 dy=0 dh=10 dv=0
EndChar

StartChar: Uhorn
Encoding: 431 431 284
Width: 703
GlyphClass: 2
Flags: W
AnchorPoint: "Anchor-18" 0 0 basechar 0
AnchorPoint: "Anchor-17" 647 691 basechar 0
AnchorPoint: "Anchor-16" 328 691 basechar 0
AnchorPoint: "Anchor-15" 439 0 basechar 0
AnchorPoint: "Anchor-14" 328 0 basechar 0
LayerCount: 2
Fore
SplineSet
723 688 m 0,1,2
 723 630 723 630 687 600.5 c 128,-1,3
 651 571 651 571 585 569 c 1,4,-1
 585 226 l 2,5,6
 585 156 585 156 555.5 101.5 c 128,-1,7
 526 47 526 47 467.5 16 c 128,-1,8
 409 -15 409 -15 327 -15 c 0,9,10
 203 -15 203 -15 137 50.5 c 128,-1,11
 71 116 71 116 71 226 c 2,12,-1
 71 691 l 1,13,-1
 203 691 l 1,14,-1
 203 233 l 2,15,16
 203 160 203 160 233.5 124 c 128,-1,17
 264 88 264 88 327 88 c 0,18,19
 391 88 391 88 421.5 124 c 128,-1,20
 452 160 452 160 452 233 c 2,21,-1
 452 691 l 1,22,-1
 585 691 l 1,23,-1
 585 635 l 1,24,25
 629 644 629 644 629 688 c 0,26,27
 629 710 629 710 625.5 725 c 128,-1,28
 622 740 622 740 615 758 c 1,29,-1
 704 773 l 1,30,0
 723 737 723 737 723 688 c 0,1,2
EndSplineSet
Substitution2: "'c2sc' Capitals to Small Capitals lookup 26 subtable" uhorn.sc
Substitution2: "'aalt' Access All Alternates lookup 0 subtable" uhorn.sc
Position2: "'cpsp' Capital Spacing lookup 0 subtable" dx=5 dy=0 dh=10 dv=0
EndChar

StartChar: uni1EE8
Encoding: 7912 7912 285
Width: 703
GlyphClass: 2
Flags: W
AnchorPoint: "Anchor-18" 0 0 basechar 0
AnchorPoint: "Anchor-17" 647 691 basechar 0
AnchorPoint: "Anchor-16" 330 936 basechar 0
AnchorPoint: "Anchor-15" 439 0 basechar 0
AnchorPoint: "Anchor-14" 328 0 basechar 0
LayerCount: 2
Fore
SplineSet
459 836 m 1,0,-1
 230 753 l 1,1,-1
 197 819 l 1,2,-1
 409 936 l 1,3,-1
 459 836 l 1,0,-1
723 688 m 0,5,6
 723 630 723 630 687 600.5 c 128,-1,7
 651 571 651 571 585 569 c 1,8,-1
 585 226 l 2,9,10
 585 156 585 156 555.5 101.5 c 128,-1,11
 526 47 526 47 467.5 16 c 128,-1,12
 409 -15 409 -15 327 -15 c 0,13,14
 203 -15 203 -15 137 50.5 c 128,-1,15
 71 116 71 116 71 226 c 2,16,-1
 71 691 l 1,17,-1
 203 691 l 1,18,-1
 203 233 l 2,19,20
 203 160 203 160 233.5 124 c 128,-1,21
 264 88 264 88 327 88 c 0,22,23
 391 88 391 88 421.5 124 c 128,-1,24
 452 160 452 160 452 233 c 2,25,-1
 452 691 l 1,26,-1
 585 691 l 1,27,-1
 585 635 l 1,28,29
 629 644 629 644 629 688 c 0,30,31
 629 710 629 710 625.5 725 c 128,-1,32
 622 740 622 740 615 758 c 1,33,-1
 704 773 l 1,34,4
 723 737 723 737 723 688 c 0,5,6
EndSplineSet
Substitution2: "'c2sc' Capitals to Small Capitals lookup 26 subtable" uni1EE9.sc
Substitution2: "'aalt' Access All Alternates lookup 0 subtable" uni1EE9.sc
Position2: "'cpsp' Capital Spacing lookup 0 subtable" dx=5 dy=0 dh=10 dv=0
EndChar

StartChar: uni1EF0
Encoding: 7920 7920 286
Width: 703
GlyphClass: 2
Flags: W
AnchorPoint: "Anchor-18" 0 0 basechar 0
AnchorPoint: "Anchor-17" 647 691 basechar 0
AnchorPoint: "Anchor-16" 328 691 basechar 0
AnchorPoint: "Anchor-15" 439 0 basechar 0
AnchorPoint: "Anchor-14" 330 -206 basechar 0
LayerCount: 2
Fore
SplineSet
723 688 m 0,1,2
 723 630 723 630 687 600.5 c 128,-1,3
 651 571 651 571 585 569 c 1,4,-1
 585 226 l 2,5,6
 585 156 585 156 555.5 101.5 c 128,-1,7
 526 47 526 47 467.5 16 c 128,-1,8
 409 -15 409 -15 327 -15 c 0,9,10
 203 -15 203 -15 137 50.5 c 128,-1,11
 71 116 71 116 71 226 c 2,12,-1
 71 691 l 1,13,-1
 203 691 l 1,14,-1
 203 233 l 2,15,16
 203 160 203 160 233.5 124 c 128,-1,17
 264 88 264 88 327 88 c 0,18,19
 391 88 391 88 421.5 124 c 128,-1,20
 452 160 452 160 452 233 c 2,21,-1
 452 691 l 1,22,-1
 585 691 l 1,23,-1
 585 635 l 1,24,25
 629 644 629 644 629 688 c 0,26,27
 629 710 629 710 625.5 725 c 128,-1,28
 622 740 622 740 615 758 c 1,29,-1
 704 773 l 1,30,0
 723 737 723 737 723 688 c 0,1,2
385.5 -88 m 128,-1,32
 408 -110 408 -110 408 -143 c 256,33,34
 408 -176 408 -176 385.5 -198.5 c 128,-1,35
 363 -221 363 -221 328 -221 c 0,36,37
 292 -221 292 -221 269.5 -198.5 c 128,-1,38
 247 -176 247 -176 247 -143 c 256,39,40
 247 -110 247 -110 269.5 -88 c 128,-1,41
 292 -66 292 -66 328 -66 c 0,42,31
 363 -66 363 -66 385.5 -88 c 128,-1,32
EndSplineSet
Substitution2: "'c2sc' Capitals to Small Capitals lookup 26 subtable" uni1EF1.sc
Substitution2: "'aalt' Access All Alternates lookup 0 subtable" uni1EF1.sc
Position2: "'cpsp' Capital Spacing lookup 0 subtable" dx=5 dy=0 dh=10 dv=0
EndChar

StartChar: uni1EEA
Encoding: 7914 7914 287
Width: 703
GlyphClass: 2
Flags: W
AnchorPoint: "Anchor-18" 0 0 basechar 0
AnchorPoint: "Anchor-17" 647 691 basechar 0
AnchorPoint: "Anchor-16" 329 936 basechar 0
AnchorPoint: "Anchor-15" 439 0 basechar 0
AnchorPoint: "Anchor-14" 328 0 basechar 0
LayerCount: 2
Fore
SplineSet
453 819 m 1,0,-1
 420 753 l 1,1,-1
 191 836 l 1,2,-1
 241 936 l 1,3,-1
 453 819 l 1,0,-1
723 688 m 0,5,6
 723 630 723 630 687 600.5 c 128,-1,7
 651 571 651 571 585 569 c 1,8,-1
 585 226 l 2,9,10
 585 156 585 156 555.5 101.5 c 128,-1,11
 526 47 526 47 467.5 16 c 128,-1,12
 409 -15 409 -15 327 -15 c 0,13,14
 203 -15 203 -15 137 50.5 c 128,-1,15
 71 116 71 116 71 226 c 2,16,-1
 71 691 l 1,17,-1
 203 691 l 1,18,-1
 203 233 l 2,19,20
 203 160 203 160 233.5 124 c 128,-1,21
 264 88 264 88 327 88 c 0,22,23
 391 88 391 88 421.5 124 c 128,-1,24
 452 160 452 160 452 233 c 2,25,-1
 452 691 l 1,26,-1
 585 691 l 1,27,-1
 585 635 l 1,28,29
 629 644 629 644 629 688 c 0,30,31
 629 710 629 710 625.5 725 c 128,-1,32
 622 740 622 740 615 758 c 1,33,-1
 704 773 l 1,34,4
 723 737 723 737 723 688 c 0,5,6
EndSplineSet
Substitution2: "'c2sc' Capitals to Small Capitals lookup 26 subtable" uni1EEB.sc
Substitution2: "'aalt' Access All Alternates lookup 0 subtable" uni1EEB.sc
Position2: "'cpsp' Capital Spacing lookup 0 subtable" dx=5 dy=0 dh=10 dv=0
EndChar

StartChar: uni1EEC
Encoding: 7916 7916 288
Width: 703
GlyphClass: 2
Flags: W
AnchorPoint: "Anchor-18" 0 0 basechar 0
AnchorPoint: "Anchor-17" 647 691 basechar 0
AnchorPoint: "Anchor-16" 341 994 basechar 0
AnchorPoint: "Anchor-15" 439 0 basechar 0
AnchorPoint: "Anchor-14" 328 0 basechar 0
LayerCount: 2
Fore
SplineSet
257 911 m 1,1,-1
 233 970 l 1,2,3
 276 995 276 995 335 995 c 0,4,5
 391 995 391 995 421.5 968.5 c 128,-1,6
 452 942 452 942 452 897 c 0,7,8
 452 860 452 860 430.5 837.5 c 128,-1,9
 409 815 409 815 369 808 c 1,10,-1
 369 763 l 1,11,-1
 287 763 l 1,12,-1
 287 850 l 1,13,14
 325 854 325 854 341.5 862.5 c 128,-1,15
 358 871 358 871 358 891 c 0,16,17
 358 907 358 907 346.5 915.5 c 128,-1,18
 335 924 335 924 316 924 c 0,19,0
 288 924 288 924 257 911 c 1,1,-1
723 688 m 0,21,22
 723 630 723 630 687 600.5 c 128,-1,23
 651 571 651 571 585 569 c 1,24,-1
 585 226 l 2,25,26
 585 156 585 156 555.5 101.5 c 128,-1,27
 526 47 526 47 467.5 16 c 128,-1,28
 409 -15 409 -15 327 -15 c 0,29,30
 203 -15 203 -15 137 50.5 c 128,-1,31
 71 116 71 116 71 226 c 2,32,-1
 71 691 l 1,33,-1
 203 691 l 1,34,-1
 203 233 l 2,35,36
 203 160 203 160 233.5 124 c 128,-1,37
 264 88 264 88 327 88 c 0,38,39
 391 88 391 88 421.5 124 c 128,-1,40
 452 160 452 160 452 233 c 2,41,-1
 452 691 l 1,42,-1
 585 691 l 1,43,-1
 585 635 l 1,44,45
 629 644 629 644 629 688 c 0,46,47
 629 710 629 710 625.5 725 c 128,-1,48
 622 740 622 740 615 758 c 1,49,-1
 704 773 l 1,50,20
 723 737 723 737 723 688 c 0,21,22
EndSplineSet
Substitution2: "'c2sc' Capitals to Small Capitals lookup 26 subtable" uni1EED.sc
Substitution2: "'aalt' Access All Alternates lookup 0 subtable" uni1EED.sc
Position2: "'cpsp' Capital Spacing lookup 0 subtable" dx=5 dy=0 dh=10 dv=0
EndChar

StartChar: uni1EEE
Encoding: 7918 7918 289
Width: 703
GlyphClass: 2
Flags: W
AnchorPoint: "Anchor-18" 0 0 basechar 0
AnchorPoint: "Anchor-17" 647 691 basechar 0
AnchorPoint: "Anchor-16" 330 910 basechar 0
AnchorPoint: "Anchor-15" 439 0 basechar 0
AnchorPoint: "Anchor-14" 328 0 basechar 0
LayerCount: 2
Fore
SplineSet
242.5 806.5 m 128,-1,1
 231 796 231 796 218 772 c 1,2,-1
 149 806 l 1,3,4
 169 853 169 853 199 881.5 c 128,-1,5
 229 910 229 910 269 910 c 0,6,7
 291 910 291 910 306.5 903 c 128,-1,8
 322 896 322 896 343 883 c 0,9,10
 356 873 356 873 365.5 868.5 c 128,-1,11
 375 864 375 864 385 864 c 0,12,13
 400 864 400 864 412 874 c 128,-1,14
 424 884 424 884 438 907 c 1,15,-1
 506 873 l 1,16,17
 486 825 486 825 455 797.5 c 128,-1,18
 424 770 424 770 386 770 c 0,19,20
 365 770 365 770 349.5 777.5 c 128,-1,21
 334 785 334 785 314 798 c 0,22,23
 299 808 299 808 290 812.5 c 128,-1,24
 281 817 281 817 271 817 c 0,25,0
 254 817 254 817 242.5 806.5 c 128,-1,1
723 688 m 0,27,28
 723 630 723 630 687 600.5 c 128,-1,29
 651 571 651 571 585 569 c 1,30,-1
 585 226 l 2,31,32
 585 156 585 156 555.5 101.5 c 128,-1,33
 526 47 526 47 467.5 16 c 128,-1,34
 409 -15 409 -15 327 -15 c 0,35,36
 203 -15 203 -15 137 50.5 c 128,-1,37
 71 116 71 116 71 226 c 2,38,-1
 71 691 l 1,39,-1
 203 691 l 1,40,-1
 203 233 l 2,41,42
 203 160 203 160 233.5 124 c 128,-1,43
 264 88 264 88 327 88 c 0,44,45
 391 88 391 88 421.5 124 c 128,-1,46
 452 160 452 160 452 233 c 2,47,-1
 452 691 l 1,48,-1
 585 691 l 1,49,-1
 585 635 l 1,50,51
 629 644 629 644 629 688 c 0,52,53
 629 710 629 710 625.5 725 c 128,-1,54
 622 740 622 740 615 758 c 1,55,-1
 704 773 l 1,56,26
 723 737 723 737 723 688 c 0,27,28
EndSplineSet
Substitution2: "'c2sc' Capitals to Small Capitals lookup 26 subtable" uni1EEF.sc
Substitution2: "'aalt' Access All Alternates lookup 0 subtable" uni1EEF.sc
Position2: "'cpsp' Capital Spacing lookup 0 subtable" dx=5 dy=0 dh=10 dv=0
EndChar

StartChar: Uogonek
Encoding: 370 370 293
Width: 656
GlyphClass: 2
Flags: W
AnchorPoint: "Anchor-18" 0 0 basechar 0
AnchorPoint: "Anchor-17" 595 691 basechar 0
AnchorPoint: "Anchor-16" 328 691 basechar 0
AnchorPoint: "Anchor-15" 439 0 basechar 0
AnchorPoint: "Anchor-14" 328 0 basechar 0
LayerCount: 2
Fore
SplineSet
585 691 m 1,0,-1
 585 226 l 2,1,2
 585 143 585 143 544.5 83 c 128,-1,3
 504 23 504 23 427 -1 c 1,4,5
 359 -29 359 -29 334 -54.5 c 128,-1,6
 309 -80 309 -80 309 -108 c 0,7,8
 309 -154 309 -154 363 -154 c 0,9,10
 392 -154 392 -154 424 -147 c 1,11,-1
 414 -232 l 1,12,13
 377 -239 377 -239 347 -239 c 0,14,15
 286 -239 286 -239 248 -209 c 128,-1,16
 210 -179 210 -179 210 -130 c 0,17,18
 210 -56 210 -56 299 -14 c 1,19,20
 188 -7 188 -7 129.5 58 c 128,-1,21
 71 123 71 123 71 226 c 2,22,-1
 71 691 l 1,23,-1
 203 691 l 1,24,-1
 203 233 l 2,25,26
 203 160 203 160 233.5 124 c 128,-1,27
 264 88 264 88 327 88 c 0,28,29
 391 88 391 88 421.5 124 c 128,-1,30
 452 160 452 160 452 233 c 2,31,-1
 452 691 l 1,32,-1
 585 691 l 1,0,-1
EndSplineSet
Substitution2: "'c2sc' Capitals to Small Capitals lookup 26 subtable" uogonek.sc
Substitution2: "'aalt' Access All Alternates lookup 0 subtable" uogonek.sc
Position2: "'cpsp' Capital Spacing lookup 0 subtable" dx=5 dy=0 dh=10 dv=0
EndChar

StartChar: uni01B1
Encoding: 433 433 294
Width: 691
GlyphClass: 2
Flags: W
AnchorPoint: "Anchor-18" 0 0 basechar 0
AnchorPoint: "Anchor-17" 0 0 basechar 0
AnchorPoint: "Anchor-16" 346 691 basechar 0
AnchorPoint: "Anchor-15" 0 0 basechar 0
AnchorPoint: "Anchor-14" 346 0 basechar 0
LayerCount: 2
Fore
SplineSet
185 25.5 m 128,-1,1
 116 66 116 66 79.5 139.5 c 128,-1,2
 43 213 43 213 43 308 c 0,3,4
 43 411 43 411 77.5 477.5 c 128,-1,5
 112 544 112 544 173 592 c 1,6,-1
 65 592 l 1,7,-1
 65 691 l 1,8,-1
 285 691 l 1,9,-1
 285 595 l 1,10,11
 232 544 232 544 207 479.5 c 128,-1,12
 182 415 182 415 182 308 c 0,13,14
 182 198 182 198 224 142 c 128,-1,15
 266 86 266 86 346 86 c 0,16,17
 424 86 424 86 466.5 142.5 c 128,-1,18
 509 199 509 199 509 309 c 0,19,20
 509 414 509 414 483.5 478.5 c 128,-1,21
 458 543 458 543 407 595 c 1,22,-1
 407 691 l 1,23,-1
 627 691 l 1,24,-1
 627 592 l 1,25,-1
 519 592 l 1,26,27
 580 549 580 549 614 482 c 128,-1,28
 648 415 648 415 648 309 c 0,29,30
 648 215 648 215 610.5 141.5 c 128,-1,31
 573 68 573 68 504.5 26.5 c 128,-1,32
 436 -15 436 -15 346 -15 c 0,33,0
 254 -15 254 -15 185 25.5 c 128,-1,1
EndSplineSet
Substitution2: "'c2sc' Capitals to Small Capitals lookup 26 subtable" uni01B1.sc
Substitution2: "'aalt' Access All Alternates lookup 0 subtable" uni01B1.sc
Position2: "'cpsp' Capital Spacing lookup 0 subtable" dx=5 dy=0 dh=10 dv=0
EndChar

StartChar: V
Encoding: 86 86 298
Width: 564
GlyphClass: 2
Flags: W
AnchorPoint: "Anchor-18" 0 0 basechar 0
AnchorPoint: "Anchor-17" 0 0 basechar 0
AnchorPoint: "Anchor-16" 282 691 basechar 0
AnchorPoint: "Anchor-15" 0 0 basechar 0
AnchorPoint: "Anchor-14" 282 0 basechar 0
LayerCount: 2
Fore
SplineSet
568 691 m 1,0,-1
 363 0 l 1,1,-1
 206 0 l 1,2,-1
 -5 691 l 1,3,-1
 137 691 l 1,4,-1
 287 117 l 1,5,-1
 433 691 l 1,6,-1
 568 691 l 1,0,-1
EndSplineSet
Substitution2: "'c2sc' Capitals to Small Capitals lookup 26 subtable" v.sc
Substitution2: "'aalt' Access All Alternates lookup 0 subtable" v.sc
Position2: "'cpsp' Capital Spacing lookup 0 subtable" dx=5 dy=0 dh=10 dv=0
EndChar

StartChar: uni01B2
Encoding: 434 434 299
Width: 656
GlyphClass: 2
Flags: W
AnchorPoint: "Anchor-18" 0 0 basechar 0
AnchorPoint: "Anchor-17" 0 0 basechar 0
AnchorPoint: "Anchor-16" 319 691 basechar 0
AnchorPoint: "Anchor-15" 0 0 basechar 0
AnchorPoint: "Anchor-14" 319 0 basechar 0
LayerCount: 2
Fore
SplineSet
549.5 669 m 128,-1,1
 585 632 585 632 585 558 c 2,2,-1
 585 296 l 2,3,4
 585 201 585 201 550.5 130.5 c 128,-1,5
 516 60 516 60 453.5 22.5 c 128,-1,6
 391 -15 391 -15 308 -15 c 0,7,8
 235 -15 235 -15 181.5 14.5 c 128,-1,9
 128 44 128 44 99.5 95.5 c 128,-1,10
 71 147 71 147 71 213 c 2,11,-1
 71 691 l 1,12,-1
 203 691 l 1,13,-1
 203 215 l 2,14,15
 203 155 203 155 231 121.5 c 128,-1,16
 259 88 259 88 310 88 c 0,17,18
 378 88 378 88 415 140.5 c 128,-1,19
 452 193 452 193 452 298 c 2,20,-1
 452 561 l 2,21,22
 452 586 452 586 444.5 596 c 128,-1,23
 437 606 437 606 418 606 c 0,24,25
 400 606 400 606 386 600 c 1,26,-1
 361 688 l 1,27,28
 400 706 400 706 448 706 c 0,29,0
 514 706 514 706 549.5 669 c 128,-1,1
EndSplineSet
Substitution2: "'c2sc' Capitals to Small Capitals lookup 26 subtable" uni028B.sc
Substitution2: "'aalt' Access All Alternates lookup 0 subtable" uni028B.sc
Position2: "'cpsp' Capital Spacing lookup 0 subtable" dx=5 dy=0 dh=10 dv=0
EndChar

StartChar: W
Encoding: 87 87 301
Width: 837
GlyphClass: 2
Flags: W
AnchorPoint: "Anchor-18" 0 0 basechar 0
AnchorPoint: "Anchor-17" 0 0 basechar 0
AnchorPoint: "Anchor-16" 419 691 basechar 0
AnchorPoint: "Anchor-15" 0 0 basechar 0
AnchorPoint: "Anchor-14" 419 0 basechar 0
LayerCount: 2
Fore
SplineSet
821 691 m 1,0,-1
 694 0 l 1,1,-1
 522 0 l 1,2,-1
 417 551 l 1,3,-1
 309 0 l 1,4,-1
 142 0 l 1,5,-1
 17 691 l 1,6,-1
 148 691 l 1,7,-1
 236 105 l 1,8,-1
 349 691 l 1,9,-1
 489 691 l 1,10,-1
 600 105 l 1,11,-1
 696 691 l 1,12,-1
 821 691 l 1,0,-1
EndSplineSet
Substitution2: "'c2sc' Capitals to Small Capitals lookup 26 subtable" w.sc
Substitution2: "'aalt' Access All Alternates lookup 0 subtable" w.sc
Position2: "'cpsp' Capital Spacing lookup 0 subtable" dx=5 dy=0 dh=10 dv=0
EndChar

StartChar: uni2C72
Encoding: 11378 11378 306
Width: 889
GlyphClass: 2
Flags: W
AnchorPoint: "Anchor-18" 0 0 basechar 0
AnchorPoint: "Anchor-17" 0 0 basechar 0
AnchorPoint: "Anchor-16" 419 691 basechar 0
AnchorPoint: "Anchor-15" 0 0 basechar 0
AnchorPoint: "Anchor-14" 416 0 basechar 0
LayerCount: 2
Fore
SplineSet
142 0 m 1,0,-1
 309 0 l 1,1,-1
 417 551 l 1,2,-1
 522 0 l 1,3,-1
 692 0 l 1,4,-1
 780 548 l 2,5,6
 786 582 786 582 799 596 c 128,-1,7
 812 610 812 610 838 610 c 0,8,9
 855 610 855 610 868 605.5 c 128,-1,10
 881 601 881 601 895 592 c 1,11,-1
 936 667 l 1,12,13
 910 686 910 686 883.5 696 c 128,-1,14
 857 706 857 706 821 706 c 0,15,16
 756 706 756 706 716.5 670 c 128,-1,17
 677 634 677 634 667 554 c 2,18,-1
 600 105 l 1,19,-1
 489 691 l 1,20,-1
 349 691 l 1,21,-1
 236 105 l 1,22,-1
 148 691 l 1,23,-1
 17 691 l 1,24,-1
 142 0 l 1,0,-1
EndSplineSet
Substitution2: "'c2sc' Capitals to Small Capitals lookup 26 subtable" uni2C73.sc
Substitution2: "'aalt' Access All Alternates lookup 0 subtable" uni2C73.sc
Position2: "'cpsp' Capital Spacing lookup 0 subtable" dx=5 dy=0 dh=10 dv=0
EndChar

StartChar: uni01F7
Encoding: 503 503 307
Width: 591
GlyphClass: 2
Flags: W
AnchorPoint: "Anchor-18" 0 0 basechar 0
AnchorPoint: "Anchor-17" 0 0 basechar 0
AnchorPoint: "Anchor-16" 296 691 basechar 0
AnchorPoint: "Anchor-15" 0 0 basechar 0
AnchorPoint: "Anchor-14" 296 0 basechar 0
LayerCount: 2
Fore
SplineSet
469 683 m 128,-1,1
 513 660 513 660 539 616.5 c 128,-1,2
 565 573 565 573 565 514 c 0,3,4
 565 439 565 439 530 386.5 c 128,-1,5
 495 334 495 334 437 299 c 128,-1,6
 379 264 379 264 294 232 c 2,7,-1
 213 202 l 1,8,-1
 213 0 l 1,9,-1
 81 0 l 1,10,-1
 81 691 l 1,11,-1
 213 691 l 1,12,-1
 213 643 l 1,13,14
 276 706 276 706 372 706 c 0,15,0
 425 706 425 706 469 683 c 128,-1,1
427 509 m 0,17,18
 427 557 427 557 402 581.5 c 128,-1,19
 377 606 377 606 333 606 c 0,20,21
 265 606 265 606 213 557 c 1,22,-1
 213 300 l 1,23,-1
 274 325 l 2,24,16
 427 389 427 389 427 509 c 0,17,18
EndSplineSet
Substitution2: "'c2sc' Capitals to Small Capitals lookup 26 subtable" uni01BF.sc
Substitution2: "'aalt' Access All Alternates lookup 0 subtable" uni01BF.sc
Position2: "'cpsp' Capital Spacing lookup 0 subtable" dx=5 dy=0 dh=10 dv=0
EndChar

StartChar: X
Encoding: 88 88 308
Width: 562
GlyphClass: 2
Flags: W
AnchorPoint: "Anchor-18" 0 0 basechar 0
AnchorPoint: "Anchor-17" 0 0 basechar 0
AnchorPoint: "Anchor-16" 281 691 basechar 0
AnchorPoint: "Anchor-15" 0 0 basechar 0
AnchorPoint: "Anchor-14" 281 0 basechar 0
LayerCount: 2
Fore
SplineSet
358 373 m 1,0,-1
 563 0 l 1,1,-1
 416 0 l 1,2,-1
 278 283 l 1,3,-1
 141 0 l 1,4,-1
 0 0 l 1,5,-1
 200 368 l 1,6,-1
 16 691 l 1,7,-1
 163 691 l 1,8,-1
 280 452 l 1,9,-1
 402 691 l 1,10,-1
 543 691 l 1,11,-1
 358 373 l 1,0,-1
EndSplineSet
Substitution2: "'c2sc' Capitals to Small Capitals lookup 26 subtable" x.sc
Substitution2: "'aalt' Access All Alternates lookup 0 subtable" x.sc
Position2: "'cpsp' Capital Spacing lookup 0 subtable" dx=5 dy=0 dh=10 dv=0
EndChar

StartChar: Y
Encoding: 89 89 309
Width: 574
GlyphClass: 2
Flags: W
AnchorPoint: "Anchor-18" 0 0 basechar 0
AnchorPoint: "Anchor-17" 0 0 basechar 0
AnchorPoint: "Anchor-16" 287 691 basechar 0
AnchorPoint: "Anchor-15" 0 0 basechar 0
AnchorPoint: "Anchor-14" 287 0 basechar 0
LayerCount: 2
Fore
SplineSet
576 691 m 1,0,-1
 354 262 l 1,1,-1
 354 0 l 1,2,-1
 220 0 l 1,3,-1
 220 261 l 1,4,-1
 -2 691 l 1,5,-1
 144 691 l 1,6,-1
 290 370 l 1,7,-1
 436 691 l 1,8,-1
 576 691 l 1,0,-1
EndSplineSet
Substitution2: "'c2sc' Capitals to Small Capitals lookup 26 subtable" y.sc
Substitution2: "'aalt' Access All Alternates lookup 0 subtable" y.sc
Position2: "'cpsp' Capital Spacing lookup 0 subtable" dx=5 dy=0 dh=10 dv=0
EndChar

StartChar: uni01B3
Encoding: 435 435 315
Width: 611
GlyphClass: 2
Flags: W
AnchorPoint: "Anchor-18" 0 0 basechar 0
AnchorPoint: "Anchor-17" 0 0 basechar 0
AnchorPoint: "Anchor-16" 297 691 basechar 0
AnchorPoint: "Anchor-15" 0 0 basechar 0
AnchorPoint: "Anchor-14" 287 0 basechar 0
LayerCount: 2
Fore
SplineSet
220 261 m 1,0,-1
 -2 691 l 1,1,-1
 144 691 l 1,2,-1
 290 370 l 1,3,-1
 378 575 l 2,4,5
 406 646 406 646 444 676 c 128,-1,6
 482 706 482 706 544 706 c 0,7,8
 578 706 578 706 605 696 c 128,-1,9
 632 686 632 686 658 668 c 1,10,-1
 617 592 l 1,11,12
 590 610 590 610 559 610 c 0,13,14
 536 610 536 610 520.5 597 c 128,-1,15
 505 584 505 584 489 549 c 2,16,-1
 354 262 l 1,17,-1
 354 0 l 1,18,-1
 220 0 l 1,19,-1
 220 261 l 1,0,-1
EndSplineSet
Substitution2: "'c2sc' Capitals to Small Capitals lookup 26 subtable" uni01B4.sc
Substitution2: "'aalt' Access All Alternates lookup 0 subtable" uni01B4.sc
Position2: "'cpsp' Capital Spacing lookup 0 subtable" dx=5 dy=0 dh=10 dv=0
EndChar

StartChar: uni01A6
Encoding: 422 422 318
Width: 611
GlyphClass: 2
Flags: W
AnchorPoint: "Anchor-18" 0 0 basechar 0
AnchorPoint: "Anchor-17" 0 0 basechar 0
AnchorPoint: "Anchor-16" 306 691 basechar 0
AnchorPoint: "Anchor-15" 0 0 basechar 0
AnchorPoint: "Anchor-14" 306 -206 basechar 0
LayerCount: 2
Fore
SplineSet
297 159 m 1,0,-1
 213 159 l 1,1,-1
 213 0 l 1,2,-1
 81 0 l 1,3,-1
 81 691 l 1,4,-1
 213 691 l 1,5,-1
 213 573 l 1,6,-1
 287 573 l 2,7,8
 561 573 561 573 561 370 c 0,9,10
 561 301 561 301 527 256 c 128,-1,11
 493 211 493 211 421 183 c 1,12,-1
 602 -118 l 1,13,-1
 450 -118 l 1,14,-1
 297 159 l 1,0,-1
213 254 m 1,15,-1
 295 254 l 2,16,17
 358 254 358 254 390.5 281.5 c 128,-1,18
 423 309 423 309 423 370 c 0,19,20
 423 426 423 426 389.5 451.5 c 128,-1,21
 356 477 356 477 284 477 c 2,22,-1
 213 477 l 1,23,-1
 213 254 l 1,15,-1
EndSplineSet
Substitution2: "'c2sc' Capitals to Small Capitals lookup 26 subtable" uni0280.sc
Substitution2: "'aalt' Access All Alternates lookup 0 subtable" uni0280.sc
Position2: "'cpsp' Capital Spacing lookup 0 subtable" dx=5 dy=0 dh=10 dv=0
EndChar

StartChar: uni024E
Encoding: 590 590 319
Width: 574
GlyphClass: 2
Flags: W
AnchorPoint: "Anchor-18" 0 0 basechar 0
AnchorPoint: "Anchor-17" 0 0 basechar 0
AnchorPoint: "Anchor-16" 287 691 basechar 0
AnchorPoint: "Anchor-15" 0 0 basechar 0
AnchorPoint: "Anchor-14" 287 0 basechar 0
LayerCount: 2
Fore
SplineSet
576 691 m 1,0,-1
 534 610 l 1,1,-1
 576 610 l 1,2,-1
 576 528 l 1,3,-1
 492 528 l 1,4,-1
 354 262 l 1,5,-1
 354 0 l 1,6,-1
 221 0 l 1,7,-1
 221 261 l 1,8,-1
 83 528 l 1,9,-1
 2 528 l 1,10,-1
 2 610 l 1,11,-1
 41 610 l 1,12,-1
 -1 691 l 1,13,-1
 141 691 l 1,14,-1
 178 610 l 1,15,-1
 403 610 l 1,16,-1
 440 691 l 1,17,-1
 576 691 l 1,0,-1
290 363 m 1,18,-1
 365 528 l 1,19,-1
 215 528 l 1,20,-1
 290 363 l 1,18,-1
EndSplineSet
Substitution2: "'c2sc' Capitals to Small Capitals lookup 26 subtable" uni024F.sc
Substitution2: "'aalt' Access All Alternates lookup 0 subtable" uni024F.sc
Position2: "'cpsp' Capital Spacing lookup 0 subtable" dx=5 dy=0 dh=10 dv=0
EndChar

StartChar: Z
Encoding: 90 90 321
Width: 534
GlyphClass: 2
Flags: W
AnchorPoint: "Anchor-18" 0 0 basechar 0
AnchorPoint: "Anchor-17" 0 0 basechar 0
AnchorPoint: "Anchor-16" 274 691 basechar 0
AnchorPoint: "Anchor-15" 0 0 basechar 0
AnchorPoint: "Anchor-14" 261 0 basechar 0
LayerCount: 2
Fore
SplineSet
496 691 m 1,0,-1
 496 589 l 1,1,-1
 177 108 l 1,2,-1
 499 108 l 1,3,-1
 485 0 l 1,4,-1
 23 0 l 1,5,-1
 23 101 l 1,6,-1
 348 586 l 1,7,-1
 56 586 l 1,8,-1
 56 691 l 1,9,-1
 496 691 l 1,0,-1
EndSplineSet
Substitution2: "'c2sc' Capitals to Small Capitals lookup 26 subtable" z.sc
Substitution2: "'aalt' Access All Alternates lookup 0 subtable" z.sc
Position2: "'cpsp' Capital Spacing lookup 0 subtable" dx=5 dy=0 dh=10 dv=0
EndChar

StartChar: uni0224
Encoding: 548 548 327
Width: 531
GlyphClass: 2
Flags: W
AnchorPoint: "Anchor-18" 0 0 basechar 0
AnchorPoint: "Anchor-17" 0 0 basechar 0
AnchorPoint: "Anchor-16" 265 691 basechar 0
AnchorPoint: "Anchor-15" 0 0 basechar 0
AnchorPoint: "Anchor-14" 265 -206 basechar 0
LayerCount: 2
Fore
SplineSet
496 589 m 1,0,-1
 177 108 l 1,1,-1
 492 108 l 1,2,-1
 492 -43 l 2,3,4
 492 -129 492 -129 444.5 -173.5 c 128,-1,5
 397 -218 397 -218 314 -218 c 0,6,7
 237 -218 237 -218 185 -177 c 1,8,-1
 230 -96 l 1,9,10
 249 -108 249 -108 265 -113 c 128,-1,11
 281 -118 281 -118 305 -118 c 0,12,13
 365 -118 365 -118 365 -51 c 2,14,-1
 365 0 l 1,15,-1
 23 0 l 1,16,-1
 23 101 l 1,17,-1
 348 586 l 1,18,-1
 56 586 l 1,19,-1
 56 691 l 1,20,-1
 496 691 l 1,21,-1
 496 589 l 1,0,-1
EndSplineSet
Substitution2: "'c2sc' Capitals to Small Capitals lookup 26 subtable" uni0225.sc
Substitution2: "'aalt' Access All Alternates lookup 0 subtable" uni0225.sc
Position2: "'cpsp' Capital Spacing lookup 0 subtable" dx=5 dy=0 dh=10 dv=0
EndChar

StartChar: uni01B5
Encoding: 437 437 328
Width: 534
GlyphClass: 2
Flags: W
AnchorPoint: "Anchor-18" 0 0 basechar 0
AnchorPoint: "Anchor-17" 0 0 basechar 0
AnchorPoint: "Anchor-16" 267 691 basechar 0
AnchorPoint: "Anchor-15" 0 0 basechar 0
AnchorPoint: "Anchor-14" 267 0 basechar 0
LayerCount: 2
Fore
SplineSet
167 108 m 1,0,-1
 499 108 l 1,1,-1
 485 0 l 1,2,-1
 23 0 l 1,3,-1
 23 98 l 1,4,-1
 163 302 l 1,5,-1
 79 302 l 1,6,-1
 79 393 l 1,7,-1
 225 393 l 1,8,-1
 357 586 l 1,9,-1
 56 586 l 1,10,-1
 56 691 l 1,11,-1
 496 691 l 1,12,-1
 496 592 l 1,13,-1
 361 393 l 1,14,-1
 452 393 l 1,15,-1
 452 302 l 1,16,-1
 299 302 l 1,17,-1
 167 108 l 1,0,-1
EndSplineSet
Substitution2: "'c2sc' Capitals to Small Capitals lookup 26 subtable" uni01B6.sc
Substitution2: "'aalt' Access All Alternates lookup 0 subtable" uni01B6.sc
Position2: "'cpsp' Capital Spacing lookup 0 subtable" dx=5 dy=0 dh=10 dv=0
EndChar

StartChar: uni0262
Encoding: 610 610 330
Width: 560
GlyphClass: 2
Flags: W
AnchorPoint: "Anchor-18" 0 0 basechar 0
AnchorPoint: "Anchor-17" 0 0 basechar 0
AnchorPoint: "Anchor-16" 306 529 basechar 0
AnchorPoint: "Anchor-15" 0 0 basechar 0
AnchorPoint: "Anchor-14" 288 0 basechar 0
LayerCount: 2
Fore
SplineSet
413.5 526.5 m 128,-1,1
 459 509 459 509 500 475 c 1,2,-1
 436 404 l 1,3,4
 405 427 405 427 376 437.5 c 128,-1,5
 347 448 347 448 311 448 c 0,6,7
 251 448 251 448 214 402 c 128,-1,8
 177 356 177 356 177 267 c 0,9,10
 177 167 177 167 207 124 c 128,-1,11
 237 81 237 81 295 81 c 0,12,13
 342 81 342 81 382 99 c 1,14,-1
 382 216 l 1,15,-1
 301 216 l 1,16,-1
 288 305 l 1,17,-1
 504 305 l 1,18,-1
 504 45 l 1,19,20
 405 -13 405 -13 293 -13 c 0,21,22
 171 -13 171 -13 107 57.5 c 128,-1,23
 43 128 43 128 43 267 c 0,24,25
 43 351 43 351 78 413.5 c 128,-1,26
 113 476 113 476 173 510 c 128,-1,27
 233 544 233 544 305 544 c 0,28,0
 368 544 368 544 413.5 526.5 c 128,-1,1
EndSplineSet
EndChar

StartChar: uni029B
Encoding: 667 667 331
Width: 560
GlyphClass: 2
Flags: W
AnchorPoint: "Anchor-18" 0 0 basechar 0
AnchorPoint: "Anchor-17" 0 0 basechar 0
AnchorPoint: "Anchor-16" 280 741 basechar 0
AnchorPoint: "Anchor-15" 0 0 basechar 0
AnchorPoint: "Anchor-14" 293 0 basechar 0
LayerCount: 2
Fore
SplineSet
669 717 m 1,1,-1
 628 637 l 1,2,3
 609 648 609 648 593.5 653 c 128,-1,4
 578 658 578 658 557 658 c 0,5,6
 500 658 500 658 500 590 c 2,7,-1
 500 475 l 1,8,-1
 442 411 l 1,9,10
 408 430 408 430 379 439 c 128,-1,11
 350 448 350 448 312 448 c 0,12,13
 250 448 250 448 213.5 402 c 128,-1,14
 177 356 177 356 177 267 c 0,15,16
 177 167 177 167 207 124 c 128,-1,17
 237 81 237 81 295 81 c 0,18,19
 342 81 342 81 382 99 c 1,20,-1
 382 216 l 1,21,-1
 301 216 l 1,22,-1
 288 305 l 1,23,-1
 504 305 l 1,24,-1
 504 45 l 1,25,26
 410 -13 410 -13 294 -13 c 0,27,28
 172 -13 172 -13 107.5 58 c 128,-1,29
 43 129 43 129 43 267 c 0,30,31
 43 350 43 350 77.5 413 c 128,-1,32
 112 476 112 476 170.5 510 c 128,-1,33
 229 544 229 544 298 544 c 0,34,35
 344 544 344 544 382 529 c 1,36,-1
 382 591 l 2,37,38
 382 670 382 670 424 712.5 c 128,-1,39
 466 755 466 755 544 755 c 0,40,0
 613 755 613 755 669 717 c 1,1,-1
EndSplineSet
EndChar

StartChar: uni026A
Encoding: 618 618 333
Width: 335
GlyphClass: 2
Flags: W
AnchorPoint: "Anchor-18" 0 0 basechar 0
AnchorPoint: "Anchor-17" 0 0 basechar 0
AnchorPoint: "Anchor-16" 168 529 basechar 0
AnchorPoint: "Anchor-15" 0 0 basechar 0
AnchorPoint: "Anchor-14" 168 0 basechar 0
LayerCount: 2
Fore
SplineSet
315 435 m 1,0,-1
 231 435 l 1,1,-1
 231 95 l 1,2,-1
 315 95 l 1,3,-1
 315 0 l 1,4,-1
 20 0 l 1,5,-1
 20 95 l 1,6,-1
 103 95 l 1,7,-1
 103 435 l 1,8,-1
 20 435 l 1,9,-1
 20 529 l 1,10,-1
 315 529 l 1,11,-1
 315 435 l 1,0,-1
EndSplineSet
EndChar

StartChar: uni029F
Encoding: 671 671 334
Width: 444
GlyphClass: 2
Flags: W
AnchorPoint: "Anchor-18" 0 0 basechar 0
AnchorPoint: "Anchor-17" 0 0 basechar 0
AnchorPoint: "Anchor-16" 141 529 basechar 0
AnchorPoint: "Anchor-15" 0 0 basechar 0
AnchorPoint: "Anchor-14" 245 0 basechar 0
LayerCount: 2
Fore
SplineSet
205 529 m 1,0,-1
 205 102 l 1,1,-1
 432 102 l 1,2,-1
 418 0 l 1,3,-1
 77 0 l 1,4,-1
 77 529 l 1,5,-1
 205 529 l 1,0,-1
EndSplineSet
EndChar

StartChar: uni0274
Encoding: 628 628 335
Width: 591
GlyphClass: 2
Flags: W
AnchorPoint: "Anchor-18" 0 0 basechar 0
AnchorPoint: "Anchor-17" 0 0 basechar 0
AnchorPoint: "Anchor-16" 296 529 basechar 0
AnchorPoint: "Anchor-15" 0 0 basechar 0
AnchorPoint: "Anchor-14" 296 0 basechar 0
LayerCount: 2
Fore
SplineSet
514 0 m 1,0,-1
 357 0 l 1,1,-1
 174 413 l 1,2,3
 183 355 183 355 187.5 301.5 c 128,-1,4
 192 248 192 248 192 177 c 2,5,-1
 192 0 l 1,6,-1
 77 0 l 1,7,-1
 77 529 l 1,8,-1
 233 529 l 1,9,-1
 417 116 l 1,10,11
 408 168 408 168 403.5 207 c 128,-1,12
 399 246 399 246 399 304 c 2,13,-1
 399 529 l 1,14,-1
 514 529 l 1,15,-1
 514 0 l 1,0,-1
EndSplineSet
EndChar

StartChar: uni0276
Encoding: 630 630 336
Width: 761
GlyphClass: 2
Flags: W
AnchorPoint: "Anchor-18" 0 0 basechar 0
AnchorPoint: "Anchor-17" 0 0 basechar 0
AnchorPoint: "Anchor-16" 412 529 basechar 0
AnchorPoint: "Anchor-15" 0 0 basechar 0
AnchorPoint: "Anchor-14" 412 0 basechar 0
LayerCount: 2
Fore
SplineSet
734 0 m 1,0,-1
 378 0 l 1,1,2
 333 -15 333 -15 292 -15 c 0,3,4
 175 -15 175 -15 109 59.5 c 128,-1,5
 43 134 43 134 43 265 c 0,6,7
 43 348 43 348 73 411 c 128,-1,8
 103 474 103 474 159.5 509 c 128,-1,9
 216 544 216 544 293 544 c 0,10,11
 342 544 342 544 384 529 c 1,12,-1
 733 529 l 1,13,-1
 720 438 l 1,14,-1
 480 438 l 1,15,16
 523 385 523 385 535 314 c 1,17,-1
 692 314 l 1,18,-1
 692 223 l 1,19,-1
 536 223 l 1,20,21
 526 143 526 143 475 92 c 1,22,-1
 734 92 l 1,23,-1
 734 0 l 1,0,-1
207 126.5 m 128,-1,25
 236 82 236 82 293 82 c 0,26,27
 346 82 346 82 376.5 127.5 c 128,-1,28
 407 173 407 173 407 265 c 256,29,30
 407 357 407 357 376.5 402 c 128,-1,31
 346 447 346 447 293 447 c 0,32,33
 178 447 178 447 178 265 c 0,34,24
 178 171 178 171 207 126.5 c 128,-1,25
EndSplineSet
EndChar

StartChar: uni0280
Encoding: 640 640 337
Width: 529
GlyphClass: 2
Flags: W
AnchorPoint: "Anchor-18" 0 0 basechar 0
AnchorPoint: "Anchor-17" 0 0 basechar 0
AnchorPoint: "Anchor-16" 265 529 basechar 0
AnchorPoint: "Anchor-15" 0 0 basechar 0
AnchorPoint: "Anchor-14" 265 0 basechar 0
LayerCount: 2
Fore
SplineSet
258 192 m 1,0,-1
 202 192 l 1,1,-1
 202 0 l 1,2,-1
 77 0 l 1,3,-1
 77 529 l 1,4,-1
 246 529 l 2,5,6
 357 529 357 529 415.5 486.5 c 128,-1,7
 474 444 474 444 474 361 c 0,8,9
 474 309 474 309 448.5 270.5 c 128,-1,10
 423 232 423 232 374 211 c 1,11,-1
 511 0 l 1,12,-1
 373 0 l 1,13,-1
 258 192 l 1,0,-1
202 276 m 1,14,-1
 254 276 l 2,15,16
 301 276 301 276 323.5 295.5 c 128,-1,17
 346 315 346 315 346 361 c 0,18,19
 346 404 346 404 321 423 c 128,-1,20
 296 442 296 442 244 442 c 2,21,-1
 202 442 l 1,22,-1
 202 276 l 1,14,-1
EndSplineSet
Substitution2: "'smcp' Lowercase to Small Capitals lookup 27 subtable" uni0280.sc
Substitution2: "'aalt' Access All Alternates lookup 0 subtable" uni0280.sc
EndChar

StartChar: uni0281
Encoding: 641 641 338
Width: 529
GlyphClass: 2
Flags: W
AnchorPoint: "Anchor-18" 0 0 basechar 0
AnchorPoint: "Anchor-17" 0 0 basechar 0
AnchorPoint: "Anchor-16" 265 529 basechar 0
AnchorPoint: "Anchor-15" 0 0 basechar 0
AnchorPoint: "Anchor-14" 265 0 basechar 0
LayerCount: 2
Fore
SplineSet
449 263 m 128,-1,1
 474 225 474 225 474 173 c 0,2,3
 474 86 474 86 415.5 43 c 128,-1,4
 357 0 357 0 246 0 c 2,5,-1
 77 0 l 1,6,-1
 77 529 l 1,7,-1
 202 529 l 1,8,-1
 202 338 l 1,9,-1
 259 338 l 1,10,-1
 373 529 l 1,11,-1
 511 529 l 1,12,-1
 375 320 l 1,13,0
 424 301 424 301 449 263 c 128,-1,1
321.5 107 m 128,-1,15
 346 126 346 126 346 173 c 0,16,17
 346 216 346 216 323 235 c 128,-1,18
 300 254 300 254 254 254 c 2,19,-1
 202 254 l 1,20,-1
 202 88 l 1,21,-1
 244 88 l 2,22,14
 297 88 297 88 321.5 107 c 128,-1,15
EndSplineSet
EndChar

StartChar: uni028F
Encoding: 655 655 339
Width: 480
GlyphClass: 2
Flags: W
AnchorPoint: "Anchor-18" 0 0 basechar 0
AnchorPoint: "Anchor-17" 0 0 basechar 0
AnchorPoint: "Anchor-16" 240 529 basechar 0
AnchorPoint: "Anchor-15" 0 0 basechar 0
AnchorPoint: "Anchor-14" 240 0 basechar 0
LayerCount: 2
Fore
SplineSet
487 529 m 1,0,-1
 304 195 l 1,1,-1
 304 0 l 1,2,-1
 176 0 l 1,3,-1
 176 194 l 1,4,-1
 -7 529 l 1,5,-1
 130 529 l 1,6,-1
 242 280 l 1,7,-1
 354 529 l 1,8,-1
 487 529 l 1,0,-1
EndSplineSet
EndChar

StartChar: a
Encoding: 97 97 340
Width: 546
GlyphClass: 2
Flags: W
AnchorPoint: "Anchor-18" 0 0 basechar 0
AnchorPoint: "Anchor-17" 0 0 basechar 0
AnchorPoint: "Anchor-16" 266 529 basechar 0
AnchorPoint: "Anchor-15" 491 -13 basechar 0
AnchorPoint: "Anchor-14" 266 0 basechar 0
LayerCount: 2
Fore
SplineSet
477.5 94.5 m 128,-1,1
 487 80 487 80 508 72 c 1,2,-1
 481 -13 l 1,3,4
 436 -9 436 -9 407.5 9 c 128,-1,5
 379 27 379 27 364 64 c 1,6,7
 337 24 337 24 296.5 4.5 c 128,-1,8
 256 -15 256 -15 206 -15 c 0,9,10
 127 -15 127 -15 81 30 c 128,-1,11
 35 75 35 75 35 148 c 0,12,13
 35 234 35 234 97.5 279.5 c 128,-1,14
 160 325 160 325 276 325 c 2,15,-1
 342 325 l 1,16,-1
 342 355 l 2,17,18
 342 406 342 406 318.5 426.5 c 128,-1,19
 295 447 295 447 243 447 c 0,20,21
 185 447 185 447 103 419 c 1,22,-1
 73 506 l 1,23,24
 172 544 172 544 265 544 c 0,25,26
 468 544 468 544 468 362 c 2,27,-1
 468 140 l 2,28,0
 468 109 468 109 477.5 94.5 c 128,-1,1
342 143 m 1,30,-1
 342 250 l 1,31,-1
 289 250 l 2,32,33
 165 250 165 250 165 158 c 0,34,35
 165 120 165 120 184 99 c 128,-1,36
 203 78 203 78 240 78 c 0,37,29
 305 78 305 78 342 143 c 1,30,-1
EndSplineSet
Substitution2: "Single Substitution lookup 45 subtable" ordfeminine
Substitution2: "'ss04' Style Set 4 lookup 36 subtable" a.ss04
Substitution2: "'salt' Stylistic Alternatives lookup 32 subtable" a.ss04
Substitution2: "'smcp' Lowercase to Small Capitals lookup 27 subtable" a.sc
AlternateSubs2: "'aalt' Access All Alternates lookup 1 subtable" ordfeminine a.sc a.ss04
EndChar

StartChar: a.ss04
Encoding: 65547 -1 341
Width: 598
GlyphClass: 2
Flags: W
AnchorPoint: "Anchor-18" 0 0 basechar 0
AnchorPoint: "Anchor-17" 0 0 basechar 0
AnchorPoint: "Anchor-16" 299 529 basechar 0
AnchorPoint: "Anchor-15" 0 0 basechar 0
AnchorPoint: "Anchor-14" 299 0 basechar 0
LayerCount: 2
Fore
SplineSet
525.5 107.5 m 128,-1,1
 535 91 535 91 560 79 c 1,2,-1
 522 -15 l 1,3,4
 472 -5 472 -5 444 14.5 c 128,-1,5
 416 34 416 34 402 66 c 1,6,7
 374 28 374 28 334 6.5 c 128,-1,8
 294 -15 294 -15 248 -15 c 0,9,10
 151 -15 151 -15 97 60.5 c 128,-1,11
 43 136 43 136 43 264 c 0,12,13
 43 346 43 346 69.5 409.5 c 128,-1,14
 96 473 96 473 145 508.5 c 128,-1,15
 194 544 194 544 261 544 c 0,16,17
 342 544 342 544 398 478 c 1,18,-1
 405 529 l 1,19,-1
 516 529 l 1,20,-1
 516 160 l 2,21,0
 516 124 516 124 525.5 107.5 c 128,-1,1
338.5 99 m 128,-1,23
 364 116 364 116 388 151 c 1,24,-1
 388 392 l 1,25,26
 365 420 365 420 341 434 c 128,-1,27
 317 448 317 448 286 448 c 0,28,29
 235 448 235 448 206.5 403 c 128,-1,30
 178 358 178 358 178 265 c 0,31,32
 178 167 178 167 204 124.5 c 128,-1,33
 230 82 230 82 278 82 c 0,34,22
 313 82 313 82 338.5 99 c 128,-1,23
EndSplineSet
EndChar

StartChar: uni0251
Encoding: 593 593 365
Width: 598
GlyphClass: 2
Flags: W
AnchorPoint: "Anchor-18" 0 0 basechar 0
AnchorPoint: "Anchor-17" 0 0 basechar 0
AnchorPoint: "Anchor-16" 299 529 basechar 0
AnchorPoint: "Anchor-15" 0 0 basechar 0
AnchorPoint: "Anchor-14" 299 0 basechar 0
LayerCount: 2
Fore
SplineSet
525.5 107.5 m 128,-1,1
 535 91 535 91 560 79 c 1,2,-1
 522 -15 l 1,3,4
 472 -5 472 -5 444 14.5 c 128,-1,5
 416 34 416 34 402 66 c 1,6,7
 374 28 374 28 334 6.5 c 128,-1,8
 294 -15 294 -15 248 -15 c 0,9,10
 151 -15 151 -15 97 60.5 c 128,-1,11
 43 136 43 136 43 264 c 0,12,13
 43 346 43 346 69.5 409.5 c 128,-1,14
 96 473 96 473 145 508.5 c 128,-1,15
 194 544 194 544 261 544 c 0,16,17
 342 544 342 544 398 478 c 1,18,-1
 405 529 l 1,19,-1
 516 529 l 1,20,-1
 516 160 l 2,21,0
 516 124 516 124 525.5 107.5 c 128,-1,1
338.5 99 m 128,-1,23
 364 116 364 116 388 151 c 1,24,-1
 388 392 l 1,25,26
 365 420 365 420 341 434 c 128,-1,27
 317 448 317 448 286 448 c 0,28,29
 235 448 235 448 206.5 403 c 128,-1,30
 178 358 178 358 178 265 c 0,31,32
 178 167 178 167 204 124.5 c 128,-1,33
 230 82 230 82 278 82 c 0,34,22
 313 82 313 82 338.5 99 c 128,-1,23
EndSplineSet
Substitution2: "'smcp' Lowercase to Small Capitals lookup 27 subtable" uni0251.sc
Substitution2: "'aalt' Access All Alternates lookup 0 subtable" uni0251.sc
EndChar

StartChar: uni0252
Encoding: 594 594 366
Width: 598
GlyphClass: 2
Flags: W
AnchorPoint: "Anchor-18" 0 0 basechar 0
AnchorPoint: "Anchor-17" 0 0 basechar 0
AnchorPoint: "Anchor-16" 299 529 basechar 0
AnchorPoint: "Anchor-15" 0 0 basechar 0
AnchorPoint: "Anchor-14" 299 0 basechar 0
LayerCount: 2
Fore
SplineSet
501 468.5 m 128,-1,1
 555 393 555 393 555 265 c 0,2,3
 555 183 555 183 528.5 119.5 c 128,-1,4
 502 56 502 56 453 20.5 c 128,-1,5
 404 -15 404 -15 337 -15 c 0,6,7
 256 -15 256 -15 200 51 c 1,8,-1
 193 0 l 1,9,-1
 82 0 l 1,10,-1
 82 369 l 2,11,12
 82 405 82 405 72.5 421.5 c 128,-1,13
 63 438 63 438 38 450 c 1,14,-1
 76 544 l 1,15,16
 126 534 126 534 154 514.5 c 128,-1,17
 182 495 182 495 196 463 c 1,18,19
 224 501 224 501 264 522.5 c 128,-1,20
 304 544 304 544 350 544 c 0,21,0
 447 544 447 544 501 468.5 c 128,-1,1
391.5 126 m 128,-1,23
 420 171 420 171 420 264 c 0,24,25
 420 362 420 362 394 404.5 c 128,-1,26
 368 447 368 447 320 447 c 0,27,28
 285 447 285 447 259.5 430 c 128,-1,29
 234 413 234 413 210 378 c 1,30,-1
 210 137 l 1,31,32
 233 109 233 109 257 95 c 128,-1,33
 281 81 281 81 312 81 c 0,34,22
 363 81 363 81 391.5 126 c 128,-1,23
EndSplineSet
EndChar

StartChar: aogonek
Encoding: 261 261 368
Width: 546
GlyphClass: 2
Flags: W
AnchorPoint: "Anchor-18" 0 0 basechar 0
AnchorPoint: "Anchor-17" 0 0 basechar 0
AnchorPoint: "Anchor-16" 266 529 basechar 0
AnchorPoint: "Anchor-15" 491 -13 basechar 0
AnchorPoint: "Anchor-14" 266 0 basechar 0
LayerCount: 2
Fore
SplineSet
386 -67 m 128,-1,1
 360 -93 360 -93 360 -121 c 0,2,3
 360 -167 360 -167 415 -167 c 0,4,5
 442 -167 442 -167 476 -160 c 1,6,-1
 466 -245 l 1,7,8
 429 -252 429 -252 399 -252 c 0,9,10
 338 -252 338 -252 300 -222 c 128,-1,11
 262 -192 262 -192 262 -143 c 0,12,13
 262 -44 262 -44 404 11 c 1,14,15
 377 30 377 30 364 64 c 1,16,17
 337 24 337 24 296.5 4.5 c 128,-1,18
 256 -15 256 -15 206 -15 c 0,19,20
 127 -15 127 -15 81 30 c 128,-1,21
 35 75 35 75 35 148 c 0,22,23
 35 234 35 234 97.5 279.5 c 128,-1,24
 160 325 160 325 276 325 c 2,25,-1
 342 325 l 1,26,-1
 342 355 l 2,27,28
 342 406 342 406 318.5 426.5 c 128,-1,29
 295 447 295 447 243 447 c 0,30,31
 185 447 185 447 103 419 c 1,32,-1
 73 506 l 1,33,34
 172 544 172 544 265 544 c 0,35,36
 468 544 468 544 468 362 c 2,37,-1
 468 140 l 2,38,39
 468 109 468 109 477.5 94.5 c 128,-1,40
 487 80 487 80 508 72 c 1,41,-1
 481 -13 l 1,42,0
 412 -41 412 -41 386 -67 c 128,-1,1
342 143 m 1,44,-1
 342 250 l 1,45,-1
 289 250 l 2,46,47
 165 250 165 250 165 158 c 0,48,49
 165 120 165 120 184 99 c 128,-1,50
 203 78 203 78 240 78 c 0,51,43
 305 78 305 78 342 143 c 1,44,-1
EndSplineSet
Substitution2: "'smcp' Lowercase to Small Capitals lookup 27 subtable" aogonek.sc
Substitution2: "'aalt' Access All Alternates lookup 0 subtable" aogonek.sc
EndChar

StartChar: aringacute
Encoding: 507 507 370
Width: 546
GlyphClass: 2
Flags: W
AnchorPoint: "Anchor-18" 0 0 basechar 0
AnchorPoint: "Anchor-17" 0 0 basechar 0
AnchorPoint: "Anchor-16" 268 1008 basechar 0
AnchorPoint: "Anchor-15" 491 -13 basechar 0
AnchorPoint: "Anchor-14" 266 0 basechar 0
LayerCount: 2
Fore
SplineSet
397 908 m 1,0,-1
 168 825 l 1,1,-1
 135 891 l 1,2,-1
 347 1008 l 1,3,-1
 397 908 l 1,0,-1
173.5 785.5 m 128,-1,5
 209 820 209 820 266 820 c 256,6,7
 323 820 323 820 358 785.5 c 128,-1,8
 393 751 393 751 393 700 c 0,9,10
 393 650 393 650 357.5 615 c 128,-1,11
 322 580 322 580 266 580 c 0,12,13
 209 580 209 580 173.5 615 c 128,-1,14
 138 650 138 650 138 700 c 0,15,4
 138 751 138 751 173.5 785.5 c 128,-1,5
301 739 m 128,-1,17
 288 753 288 753 266 753 c 0,18,19
 243 753 243 753 230 739 c 128,-1,20
 217 725 217 725 217 700 c 256,21,22
 217 675 217 675 230 661.5 c 128,-1,23
 243 648 243 648 266 648 c 0,24,25
 288 648 288 648 301 661.5 c 128,-1,26
 314 675 314 675 314 700 c 256,27,16
 314 725 314 725 301 739 c 128,-1,17
477.5 94.5 m 128,-1,29
 487 80 487 80 508 72 c 1,30,-1
 481 -13 l 1,31,32
 436 -9 436 -9 407.5 9 c 128,-1,33
 379 27 379 27 364 64 c 1,34,35
 337 24 337 24 296.5 4.5 c 128,-1,36
 256 -15 256 -15 206 -15 c 0,37,38
 127 -15 127 -15 81 30 c 128,-1,39
 35 75 35 75 35 148 c 0,40,41
 35 234 35 234 97.5 279.5 c 128,-1,42
 160 325 160 325 276 325 c 2,43,-1
 342 325 l 1,44,-1
 342 355 l 2,45,46
 342 406 342 406 318.5 426.5 c 128,-1,47
 295 447 295 447 243 447 c 0,48,49
 185 447 185 447 103 419 c 1,50,-1
 73 506 l 1,51,52
 172 544 172 544 265 544 c 0,53,54
 468 544 468 544 468 362 c 2,55,-1
 468 140 l 2,56,28
 468 109 468 109 477.5 94.5 c 128,-1,29
342 143 m 1,58,-1
 342 250 l 1,59,-1
 289 250 l 2,60,61
 165 250 165 250 165 158 c 0,62,63
 165 120 165 120 184 99 c 128,-1,64
 203 78 203 78 240 78 c 0,65,57
 305 78 305 78 342 143 c 1,58,-1
EndSplineSet
Substitution2: "'smcp' Lowercase to Small Capitals lookup 27 subtable" aringacute.sc
Substitution2: "'aalt' Access All Alternates lookup 0 subtable" aringacute.sc
EndChar

StartChar: uni2C65
Encoding: 11365 11365 371
Width: 546
GlyphClass: 2
Flags: W
AnchorPoint: "Anchor-18" 0 0 basechar 0
AnchorPoint: "Anchor-17" 0 0 basechar 0
AnchorPoint: "Anchor-16" 273 529 basechar 0
AnchorPoint: "Anchor-15" 0 0 basechar 0
AnchorPoint: "Anchor-14" 273 0 basechar 0
LayerCount: 2
Fore
SplineSet
477.5 94.5 m 128,-1,1
 487 80 487 80 508 72 c 1,2,-1
 481 -13 l 1,3,4
 436 -9 436 -9 407.5 9 c 128,-1,5
 379 27 379 27 364 64 c 1,6,7
 317 -8 317 -8 221 -15 c 1,8,-1
 206 -72 l 1,9,-1
 157 -61 l 1,10,-1
 170 -12 l 1,11,12
 107 -2 107 -2 71 41 c 128,-1,13
 35 84 35 84 35 148 c 0,14,15
 35 228 35 228 93 273 c 128,-1,16
 151 318 151 318 257 322 c 1,17,-1
 290 449 l 1,18,19
 274 452 274 452 253 452 c 0,20,21
 223 452 223 452 182.5 444.5 c 128,-1,22
 142 437 142 437 103 424 c 1,23,-1
 73 506 l 1,24,25
 172 544 172 544 265 544 c 0,26,27
 292 544 292 544 314 541 c 1,28,-1
 329 598 l 1,29,-1
 377 586 l 1,30,-1
 362 530 l 1,31,32
 468 494 468 494 468 362 c 2,33,-1
 468 140 l 2,34,0
 468 109 468 109 477.5 94.5 c 128,-1,1
335 425 m 1,36,-1
 308 322 l 1,37,-1
 352 322 l 1,38,-1
 352 360 l 2,39,35
 352 404 352 404 335 425 c 1,36,-1
352 142 m 1,41,-1
 352 250 l 1,42,-1
 290 250 l 1,43,-1
 244 75 l 1,44,40
 309 78 309 78 352 142 c 1,41,-1
195 84 m 1,46,-1
 237 246 l 1,47,48
 158 231 158 231 158 156 c 0,49,45
 158 102 158 102 195 84 c 1,46,-1
EndSplineSet
Substitution2: "'smcp' Lowercase to Small Capitals lookup 27 subtable" uni2C65.sc
Substitution2: "'aalt' Access All Alternates lookup 0 subtable" uni2C65.sc
EndChar

StartChar: uni0250
Encoding: 592 592 373
Width: 546
GlyphClass: 2
Flags: W
AnchorPoint: "Anchor-18" 0 0 basechar 0
AnchorPoint: "Anchor-17" 0 0 basechar 0
AnchorPoint: "Anchor-16" 273 529 basechar 0
AnchorPoint: "Anchor-15" 55 542 basechar 0
AnchorPoint: "Anchor-14" 273 0 basechar 0
LayerCount: 2
Fore
SplineSet
443 110 m 1,1,-1
 473 23 l 1,2,3
 374 -15 374 -15 281 -15 c 0,4,5
 78 -15 78 -15 78 167 c 2,6,-1
 78 389 l 2,7,8
 78 420 78 420 68.5 434.5 c 128,-1,9
 59 449 59 449 38 457 c 1,10,-1
 65 542 l 1,11,12
 110 538 110 538 138.5 520 c 128,-1,13
 167 502 167 502 182 465 c 1,14,15
 209 505 209 505 249.5 524.5 c 128,-1,16
 290 544 290 544 340 544 c 0,17,18
 419 544 419 544 465 499 c 128,-1,19
 511 454 511 454 511 381 c 0,20,21
 511 295 511 295 448.5 249.5 c 128,-1,22
 386 204 386 204 270 204 c 2,23,-1
 204 204 l 1,24,-1
 204 174 l 2,25,26
 204 123 204 123 227.5 102.5 c 128,-1,27
 251 82 251 82 303 82 c 0,28,0
 361 82 361 82 443 110 c 1,1,-1
204 386 m 1,30,-1
 204 279 l 1,31,-1
 257 279 l 2,32,33
 381 279 381 279 381 371 c 0,34,35
 381 409 381 409 362 430 c 128,-1,36
 343 451 343 451 306 451 c 0,37,29
 241 451 241 451 204 386 c 1,30,-1
EndSplineSet
EndChar

StartChar: ae
Encoding: 230 230 374
Width: 852
GlyphClass: 2
Flags: W
AnchorPoint: "Anchor-18" 0 0 basechar 0
AnchorPoint: "Anchor-17" 0 0 basechar 0
AnchorPoint: "Anchor-16" 428 529 basechar 0
AnchorPoint: "Anchor-15" 0 0 basechar 0
AnchorPoint: "Anchor-14" 417 0 basechar 0
LayerCount: 2
Fore
SplineSet
811 225 m 1,1,-1
 480 225 l 1,2,3
 486 148 486 148 519.5 115 c 128,-1,4
 553 82 553 82 609 82 c 0,5,6
 644 82 644 82 675 93 c 128,-1,7
 706 104 706 104 741 129 c 1,8,-1
 795 56 l 1,9,10
 705 -15 705 -15 598 -15 c 0,11,12
 531 -15 531 -15 480 9 c 128,-1,13
 429 33 429 33 397 78 c 1,14,15
 362 28 362 28 315.5 6.5 c 128,-1,16
 269 -15 269 -15 209 -15 c 0,17,18
 129 -15 129 -15 82 30 c 128,-1,19
 35 75 35 75 35 148 c 0,20,21
 35 234 35 234 98.5 279.5 c 128,-1,22
 162 325 162 325 280 325 c 2,23,-1
 347 325 l 1,24,-1
 347 355 l 2,25,26
 347 405 347 405 323.5 425.5 c 128,-1,27
 300 446 300 446 248 446 c 0,28,29
 191 446 191 446 107 418 c 1,30,-1
 78 506 l 1,31,32
 177 544 177 544 269 544 c 0,33,34
 381 544 381 544 430 470 c 1,35,36
 490 544 490 544 590 544 c 0,37,38
 694 544 694 544 754 473 c 128,-1,39
 814 402 814 402 814 277 c 0,40,0
 814 246 814 246 811 225 c 1,1,-1
688 314 m 2,41,42
 686 453 686 453 584 453 c 0,43,44
 537 453 537 453 511 418.5 c 128,-1,45
 485 384 485 384 479 308 c 1,46,-1
 688 308 l 1,47,-1
 688 314 l 2,41,42
308.5 97 m 128,-1,49
 336 116 336 116 361 155 c 1,50,51
 350 195 350 195 348 244 c 2,52,-1
 348 248 l 1,53,-1
 295 248 l 2,54,55
 171 248 171 248 171 156 c 0,56,57
 171 118 171 118 190 98 c 128,-1,58
 209 78 209 78 246 78 c 0,59,48
 281 78 281 78 308.5 97 c 128,-1,49
EndSplineSet
Substitution2: "'smcp' Lowercase to Small Capitals lookup 27 subtable" ae.sc
Substitution2: "'aalt' Access All Alternates lookup 0 subtable" ae.sc
EndChar

StartChar: b
Encoding: 98 98 377
Width: 596
GlyphClass: 2
Flags: W
AnchorPoint: "Anchor-18" 0 0 basechar 0
AnchorPoint: "Anchor-17" 0 0 basechar 0
AnchorPoint: "Anchor-16" 316 741 basechar 0
AnchorPoint: "Anchor-15" 0 0 basechar 0
AnchorPoint: "Anchor-14" 308 0 basechar 0
LayerCount: 2
Fore
SplineSet
495 470.5 m 128,-1,1
 547 397 547 397 547 265 c 0,2,3
 547 183 547 183 521.5 119.5 c 128,-1,4
 496 56 496 56 449 20.5 c 128,-1,5
 402 -15 402 -15 338 -15 c 0,6,7
 295 -15 295 -15 259.5 3 c 128,-1,8
 224 21 224 21 198 54 c 1,9,-1
 190 0 l 1,10,-1
 77 0 l 1,11,-1
 77 741 l 1,12,-1
 205 755 l 1,13,-1
 205 469 l 1,14,15
 231 505 231 505 268.5 524.5 c 128,-1,16
 306 544 306 544 351 544 c 0,17,0
 443 544 443 544 495 470.5 c 128,-1,1
384 125.5 m 128,-1,19
 413 170 413 170 413 265 c 0,20,21
 413 365 413 365 386 406.5 c 128,-1,22
 359 448 359 448 310 448 c 0,23,24
 249 448 249 448 205 376 c 1,25,-1
 205 142 l 1,26,27
 222 113 222 113 247.5 97 c 128,-1,28
 273 81 273 81 303 81 c 0,29,18
 355 81 355 81 384 125.5 c 128,-1,19
EndSplineSet
Substitution2: "'smcp' Lowercase to Small Capitals lookup 27 subtable" b.sc
Substitution2: "'aalt' Access All Alternates lookup 0 subtable" b.sc
EndChar

StartChar: uni0253
Encoding: 595 595 381
Width: 596
GlyphClass: 2
Flags: W
AnchorPoint: "Anchor-18" 0 0 basechar 0
AnchorPoint: "Anchor-17" 0 0 basechar 0
AnchorPoint: "Anchor-16" 298 741 basechar 0
AnchorPoint: "Anchor-15" 0 0 basechar 0
AnchorPoint: "Anchor-14" 298 0 basechar 0
LayerCount: 2
Fore
SplineSet
495 471 m 128,-1,1
 547 398 547 398 547 265 c 0,2,3
 547 183 547 183 521.5 119.5 c 128,-1,4
 496 56 496 56 449 20.5 c 128,-1,5
 402 -15 402 -15 338 -15 c 0,6,7
 295 -15 295 -15 259.5 3 c 128,-1,8
 224 21 224 21 198 54 c 1,9,-1
 190 0 l 1,10,-1
 77 0 l 1,11,-1
 77 587 l 2,12,13
 77 662 77 662 125.5 708.5 c 128,-1,14
 174 755 174 755 263 755 c 0,15,16
 334 755 334 755 399 724 c 1,17,-1
 362 638 l 1,18,19
 319 658 319 658 275 658 c 0,20,21
 237 658 237 658 221 640.5 c 128,-1,22
 205 623 205 623 205 585 c 2,23,-1
 205 469 l 1,24,25
 231 505 231 505 268 524.5 c 128,-1,26
 305 544 305 544 349 544 c 0,27,0
 443 544 443 544 495 471 c 128,-1,1
384 125.5 m 128,-1,29
 413 170 413 170 413 265 c 0,30,31
 413 365 413 365 386 406.5 c 128,-1,32
 359 448 359 448 310 448 c 0,33,34
 249 448 249 448 205 376 c 1,35,-1
 205 142 l 1,36,37
 223 113 223 113 248.5 97 c 128,-1,38
 274 81 274 81 304 81 c 0,39,28
 355 81 355 81 384 125.5 c 128,-1,29
EndSplineSet
Substitution2: "'smcp' Lowercase to Small Capitals lookup 27 subtable" uni0253.sc
Substitution2: "'aalt' Access All Alternates lookup 0 subtable" uni0253.sc
EndChar

StartChar: uni02AD
Encoding: 685 685 382
Width: 354
GlyphClass: 2
Flags: W
AnchorPoint: "Anchor-18" 0 0 basechar 0
AnchorPoint: "Anchor-17" 0 0 basechar 0
AnchorPoint: "Anchor-16" 0 0 basechar 0
AnchorPoint: "Anchor-15" 0 0 basechar 0
AnchorPoint: "Anchor-14" 181 153 basechar 0
LayerCount: 2
Fore
SplineSet
30 400 m 1,0,-1
 30 557 l 1,1,-1
 324 557 l 1,2,-1
 324 400 l 1,3,-1
 244 400 l 1,4,-1
 244 486 l 1,5,-1
 110 486 l 1,6,-1
 110 400 l 1,7,-1
 30 400 l 1,0,-1
30 0 m 1,8,-1
 30 157 l 1,9,-1
 324 157 l 1,10,-1
 324 0 l 1,11,-1
 244 0 l 1,12,-1
 244 86 l 1,13,-1
 110 86 l 1,14,-1
 110 0 l 1,15,-1
 30 0 l 1,8,-1
EndSplineSet
EndChar

StartChar: uni0298
Encoding: 664 664 383
Width: 795
GlyphClass: 2
Flags: W
AnchorPoint: "Anchor-18" 0 0 basechar 0
AnchorPoint: "Anchor-17" 0 0 basechar 0
AnchorPoint: "Anchor-16" 398 691 basechar 0
AnchorPoint: "Anchor-15" 0 0 basechar 0
AnchorPoint: "Anchor-14" 398 0 basechar 0
LayerCount: 2
Fore
SplineSet
582 662.5 m 128,-1,1
 662 619 662 619 707 538 c 128,-1,2
 752 457 752 457 752 346 c 0,3,4
 752 238 752 238 707 156 c 128,-1,5
 662 74 662 74 581.5 29.5 c 128,-1,6
 501 -15 501 -15 398 -15 c 0,7,8
 294 -15 294 -15 213.5 28.5 c 128,-1,9
 133 72 133 72 88 153.5 c 128,-1,10
 43 235 43 235 43 346 c 0,11,12
 43 453 43 453 88 535 c 128,-1,13
 133 617 133 617 214 661.5 c 128,-1,14
 295 706 295 706 398 706 c 0,15,0
 502 706 502 706 582 662.5 c 128,-1,1
229.5 545.5 m 128,-1,17
 168 479 168 479 168 346 c 0,18,19
 168 212 168 212 230 145.5 c 128,-1,20
 292 79 292 79 398 79 c 0,21,22
 506 79 506 79 566.5 145 c 128,-1,23
 627 211 627 211 627 346 c 0,24,25
 627 479 627 479 565.5 545.5 c 128,-1,26
 504 612 504 612 398 612 c 0,27,16
 291 612 291 612 229.5 545.5 c 128,-1,17
454 398 m 128,-1,29
 475 377 475 377 475 346 c 0,30,31
 475 316 475 316 454 295 c 128,-1,32
 433 274 433 274 400 274 c 256,33,34
 367 274 367 274 346 295 c 128,-1,35
 325 316 325 316 325 346 c 0,36,37
 325 377 325 377 346 398 c 128,-1,38
 367 419 367 419 400 419 c 256,39,28
 433 419 433 419 454 398 c 128,-1,29
EndSplineSet
EndChar

StartChar: uni0180
Encoding: 384 384 385
Width: 603
GlyphClass: 2
Flags: W
AnchorPoint: "Anchor-18" 0 0 basechar 0
AnchorPoint: "Anchor-17" 0 0 basechar 0
AnchorPoint: "Anchor-16" 323 741 basechar 0
AnchorPoint: "Anchor-15" 0 0 basechar 0
AnchorPoint: "Anchor-14" 315 0 basechar 0
LayerCount: 2
Fore
SplineSet
502 470.5 m 128,-1,1
 554 397 554 397 554 265 c 0,2,3
 554 183 554 183 528.5 119.5 c 128,-1,4
 503 56 503 56 456 20.5 c 128,-1,5
 409 -15 409 -15 345 -15 c 0,6,7
 302 -15 302 -15 266.5 3 c 128,-1,8
 231 21 231 21 205 54 c 1,9,-1
 197 0 l 1,10,-1
 84 0 l 1,11,-1
 84 601 l 1,12,-1
 15 601 l 1,13,-1
 15 683 l 1,14,-1
 84 683 l 1,15,-1
 84 741 l 1,16,-1
 212 755 l 1,17,-1
 212 683 l 1,18,-1
 352 683 l 1,19,-1
 352 601 l 1,20,-1
 212 601 l 1,21,-1
 212 469 l 1,22,23
 238 505 238 505 275.5 524.5 c 128,-1,24
 313 544 313 544 358 544 c 0,25,0
 450 544 450 544 502 470.5 c 128,-1,1
391 125.5 m 128,-1,27
 420 170 420 170 420 265 c 0,28,29
 420 365 420 365 393 406.5 c 128,-1,30
 366 448 366 448 317 448 c 0,31,32
 256 448 256 448 212 376 c 1,33,-1
 212 142 l 1,34,35
 229 113 229 113 254.5 97 c 128,-1,36
 280 81 280 81 310 81 c 0,37,26
 362 81 362 81 391 125.5 c 128,-1,27
EndSplineSet
Substitution2: "'smcp' Lowercase to Small Capitals lookup 27 subtable" uni0180.sc
Substitution2: "'aalt' Access All Alternates lookup 0 subtable" uni0180.sc
EndChar

StartChar: uni0183
Encoding: 387 387 386
Width: 596
GlyphClass: 2
Flags: W
AnchorPoint: "Anchor-18" 0 0 basechar 0
AnchorPoint: "Anchor-17" 0 0 basechar 0
AnchorPoint: "Anchor-16" 298 741 basechar 0
AnchorPoint: "Anchor-15" 0 0 basechar 0
AnchorPoint: "Anchor-14" 298 0 basechar 0
LayerCount: 2
Fore
SplineSet
495 464.5 m 128,-1,1
 547 392 547 392 547 261 c 0,2,3
 547 181 547 181 521.5 118 c 128,-1,4
 496 55 496 55 449 20 c 128,-1,5
 402 -15 402 -15 338 -15 c 0,6,7
 295 -15 295 -15 259.5 3 c 128,-1,8
 224 21 224 21 198 54 c 1,9,-1
 190 0 l 1,10,-1
 77 0 l 1,11,-1
 77 741 l 1,12,-1
 426 741 l 1,13,-1
 411 647 l 1,14,-1
 205 647 l 1,15,-1
 205 462 l 1,16,17
 231 498 231 498 268 517.5 c 128,-1,18
 305 537 305 537 349 537 c 0,19,0
 443 537 443 537 495 464.5 c 128,-1,1
384 124.5 m 128,-1,21
 413 168 413 168 413 261 c 0,22,23
 413 359 413 359 386 400 c 128,-1,24
 359 441 359 441 310 441 c 0,25,26
 249 441 249 441 205 370 c 1,27,-1
 205 142 l 1,28,29
 223 113 223 113 248.5 97 c 128,-1,30
 274 81 274 81 304 81 c 0,31,20
 355 81 355 81 384 124.5 c 128,-1,21
EndSplineSet
Substitution2: "'smcp' Lowercase to Small Capitals lookup 27 subtable" uni0183.sc
Substitution2: "'aalt' Access All Alternates lookup 0 subtable" uni0183.sc
EndChar

StartChar: c
Encoding: 99 99 387
Width: 478
GlyphClass: 2
Flags: W
AnchorPoint: "Anchor-18" 0 0 basechar 0
AnchorPoint: "Anchor-17" 0 0 basechar 0
AnchorPoint: "Anchor-16" 290 529 basechar 0
AnchorPoint: "Anchor-15" 0 0 basechar 0
AnchorPoint: "Anchor-14" 282 0 basechar 0
LayerCount: 2
Fore
SplineSet
383.5 529 m 128,-1,1
 425 514 425 514 462 482 c 1,2,-1
 405 405 l 1,3,4
 378 425 378 425 353 434 c 128,-1,5
 328 443 328 443 298 443 c 0,6,7
 179 443 179 443 179 262 c 0,8,9
 179 170 179 170 210 129.5 c 128,-1,10
 241 89 241 89 298 89 c 0,11,12
 326 89 326 89 349.5 98 c 128,-1,13
 373 107 373 107 405 127 c 1,14,-1
 462 46 l 1,15,16
 387 -15 387 -15 291 -15 c 0,17,18
 215 -15 215 -15 159 18.5 c 128,-1,19
 103 52 103 52 73 114 c 128,-1,20
 43 176 43 176 43 260 c 256,21,22
 43 344 43 344 73 408.5 c 128,-1,23
 103 473 103 473 159 508.5 c 128,-1,24
 215 544 215 544 290 544 c 0,25,0
 342 544 342 544 383.5 529 c 128,-1,1
EndSplineSet
Substitution2: "'smcp' Lowercase to Small Capitals lookup 27 subtable" c.sc
Substitution2: "'aalt' Access All Alternates lookup 0 subtable" c.sc
EndChar

StartChar: ccedilla
Encoding: 231 231 391
Width: 478
GlyphClass: 2
Flags: W
AnchorPoint: "Anchor-18" 0 0 basechar 0
AnchorPoint: "Anchor-17" 0 0 basechar 0
AnchorPoint: "Anchor-16" 290 529 basechar 0
AnchorPoint: "Anchor-15" 0 0 basechar 0
AnchorPoint: "Anchor-14" 299 -253 basechar 0
LayerCount: 2
Fore
SplineSet
317 -14 m 1,1,-1
 317 -52 l 1,2,3
 367 -57 367 -57 391.5 -81.5 c 128,-1,4
 416 -106 416 -106 416 -144 c 0,5,6
 416 -194 416 -194 378 -223.5 c 128,-1,7
 340 -253 340 -253 279 -253 c 0,8,9
 248 -253 248 -253 221 -245.5 c 128,-1,10
 194 -238 194 -238 176 -225 c 1,11,-1
 207 -162 l 1,12,13
 237 -178 237 -178 270 -178 c 0,14,15
 319 -178 319 -178 319 -144 c 0,16,17
 319 -124 319 -124 297.5 -115 c 128,-1,18
 276 -106 276 -106 228 -106 c 1,19,-1
 240 -11 l 1,20,21
 147 6 147 6 95 77.5 c 128,-1,22
 43 149 43 149 43 260 c 0,23,24
 43 344 43 344 73 408.5 c 128,-1,25
 103 473 103 473 159 508.5 c 128,-1,26
 215 544 215 544 290 544 c 0,27,28
 342 544 342 544 383.5 529 c 128,-1,29
 425 514 425 514 462 482 c 1,30,-1
 405 405 l 1,31,32
 378 425 378 425 353 434 c 128,-1,33
 328 443 328 443 298 443 c 0,34,35
 179 443 179 443 179 262 c 0,36,37
 179 170 179 170 210 129.5 c 128,-1,38
 241 89 241 89 298 89 c 0,39,40
 326 89 326 89 349.5 98 c 128,-1,41
 373 107 373 107 405 127 c 1,42,-1
 462 46 l 1,43,0
 397 -7 397 -7 317 -14 c 1,1,-1
EndSplineSet
Substitution2: "'smcp' Lowercase to Small Capitals lookup 27 subtable" ccedilla.sc
Substitution2: "'aalt' Access All Alternates lookup 0 subtable" ccedilla.sc
EndChar

StartChar: uni0255
Encoding: 597 597 393
Width: 495
GlyphClass: 2
Flags: W
AnchorPoint: "Anchor-18" 0 0 basechar 0
AnchorPoint: "Anchor-17" 0 0 basechar 0
AnchorPoint: "Anchor-16" 288 529 basechar 0
AnchorPoint: "Anchor-15" 0 0 basechar 0
AnchorPoint: "Anchor-14" 288 -30 basechar 0
LayerCount: 2
Fore
SplineSet
445.5 214.5 m 128,-1,1
 480 184 480 184 480 131 c 0,2,3
 480 61 480 61 428.5 23 c 128,-1,4
 377 -15 377 -15 297 -15 c 0,5,6
 257 -15 257 -15 225 -7 c 1,7,-1
 193 -80 l 1,8,-1
 123 -52 l 1,9,-1
 157 22 l 1,10,11
 103 55 103 55 73 116.5 c 128,-1,12
 43 178 43 178 43 260 c 0,13,14
 43 344 43 344 73 408.5 c 128,-1,15
 103 473 103 473 159 508.5 c 128,-1,16
 215 544 215 544 290 544 c 0,17,18
 342 544 342 544 383.5 529 c 128,-1,19
 425 514 425 514 462 482 c 1,20,-1
 404 404 l 1,21,22
 378 424 378 424 353 433.5 c 128,-1,23
 328 443 328 443 298 443 c 0,24,25
 179 443 179 443 179 262 c 0,26,27
 179 173 179 173 209 128 c 1,28,29
 235 190 235 190 269 217.5 c 128,-1,30
 303 245 303 245 357 245 c 256,31,0
 411 245 411 245 445.5 214.5 c 128,-1,1
364.5 95.5 m 128,-1,33
 383 108 383 108 383 133 c 0,34,35
 383 150 383 150 374 159 c 128,-1,36
 365 168 365 168 348 168 c 0,37,38
 323 168 323 168 306 151 c 128,-1,39
 289 134 289 134 268 89 c 1,40,41
 287 83 287 83 312 83 c 0,42,32
 346 83 346 83 364.5 95.5 c 128,-1,33
EndSplineSet
EndChar

StartChar: uni0188
Encoding: 392 392 395
Width: 478
GlyphClass: 2
Flags: W
AnchorPoint: "Anchor-18" 0 0 basechar 0
AnchorPoint: "Anchor-17" 0 0 basechar 0
AnchorPoint: "Anchor-16" 239 741 basechar 0
AnchorPoint: "Anchor-15" 0 0 basechar 0
AnchorPoint: "Anchor-14" 239 0 basechar 0
LayerCount: 2
Fore
SplineSet
631 717 m 1,1,-1
 590 637 l 1,2,3
 571 648 571 648 555 653 c 128,-1,4
 539 658 539 658 519 658 c 0,5,6
 462 658 462 658 462 590 c 2,7,-1
 462 482 l 1,8,-1
 413 415 l 1,9,10
 387 429 387 429 361 436 c 128,-1,11
 335 443 335 443 300 443 c 0,12,13
 179 443 179 443 179 262 c 0,14,15
 179 170 179 170 210 129.5 c 128,-1,16
 241 89 241 89 298 89 c 0,17,18
 326 89 326 89 349.5 98 c 128,-1,19
 373 107 373 107 405 127 c 1,20,-1
 462 46 l 1,21,22
 387 -15 387 -15 291 -15 c 0,23,24
 215 -15 215 -15 159 18.5 c 128,-1,25
 103 52 103 52 73 114 c 128,-1,26
 43 176 43 176 43 260 c 256,27,28
 43 344 43 344 73 408.5 c 128,-1,29
 103 473 103 473 156.5 508.5 c 128,-1,30
 210 544 210 544 280 544 c 0,31,32
 318 544 318 544 344 534 c 1,33,-1
 344 591 l 2,34,35
 344 670 344 670 386 712.5 c 128,-1,36
 428 755 428 755 505 755 c 0,37,0
 575 755 575 755 631 717 c 1,1,-1
EndSplineSet
Substitution2: "'smcp' Lowercase to Small Capitals lookup 27 subtable" uni0188.sc
Substitution2: "'aalt' Access All Alternates lookup 0 subtable" uni0188.sc
EndChar

StartChar: uni0297
Encoding: 663 663 396
Width: 491
GlyphClass: 2
Flags: W
AnchorPoint: "Anchor-18" 0 0 basechar 0
AnchorPoint: "Anchor-17" 0 0 basechar 0
AnchorPoint: "Anchor-16" 312 529 basechar 0
AnchorPoint: "Anchor-15" 0 0 basechar 0
AnchorPoint: "Anchor-14" 311 -206 basechar 0
LayerCount: 2
Fore
SplineSet
475 482 m 1,1,-1
 420 407 l 1,2,3
 394 426 394 426 369.5 434.5 c 128,-1,4
 345 443 345 443 317 443 c 0,5,6
 256 443 256 443 224 376 c 128,-1,7
 192 309 192 309 192 161 c 0,8,9
 192 14 192 14 223 -49.5 c 128,-1,10
 254 -113 254 -113 314 -113 c 0,11,12
 341 -113 341 -113 365 -104 c 128,-1,13
 389 -95 389 -95 418 -75 c 1,14,-1
 475 -156 l 1,15,16
 399 -216 399 -216 311 -216 c 0,17,18
 189 -216 189 -216 122.5 -120 c 128,-1,19
 56 -24 56 -24 56 159 c 0,20,21
 56 343 56 343 123.5 443.5 c 128,-1,22
 191 544 191 544 314 544 c 0,23,0
 406 544 406 544 475 482 c 1,1,-1
EndSplineSet
EndChar

StartChar: uni023C
Encoding: 572 572 397
Width: 478
GlyphClass: 2
Flags: W
AnchorPoint: "Anchor-18" 0 0 basechar 0
AnchorPoint: "Anchor-17" 0 0 basechar 0
AnchorPoint: "Anchor-16" 290 529 basechar 0
AnchorPoint: "Anchor-15" 0 0 basechar 0
AnchorPoint: "Anchor-14" 282 0 basechar 0
LayerCount: 2
Fore
SplineSet
349.5 98 m 128,-1,1
 373 107 373 107 405 127 c 1,2,-1
 462 46 l 1,3,4
 387 -15 387 -15 291 -15 c 0,5,6
 265 -15 265 -15 237 -10 c 1,7,-1
 220 -72 l 1,8,-1
 170 -60 l 1,9,-1
 187 4 l 1,10,11
 118 33 118 33 80.5 99 c 128,-1,12
 43 165 43 165 43 260 c 0,13,14
 43 344 43 344 73 408.5 c 128,-1,15
 103 473 103 473 159 508.5 c 128,-1,16
 215 544 215 544 290 544 c 0,17,18
 312 544 312 544 333 541 c 1,19,-1
 348 598 l 1,20,-1
 398 586 l 1,21,-1
 383 529 l 1,22,23
 426 514 426 514 462 482 c 1,24,-1
 405 405 l 1,25,26
 382 422 382 422 356 433 c 1,27,-1
 265 93 l 1,28,29
 278 89 278 89 298 89 c 0,30,0
 326 89 326 89 349.5 98 c 128,-1,1
218 119 m 1,32,-1
 306 443 l 1,33,-1
 298 443 l 2,34,35
 179 443 179 443 179 262 c 0,36,31
 179 161 179 161 218 119 c 1,32,-1
EndSplineSet
Substitution2: "'smcp' Lowercase to Small Capitals lookup 27 subtable" uni023C.sc
Substitution2: "'aalt' Access All Alternates lookup 0 subtable" uni023C.sc
EndChar

StartChar: d
Encoding: 100 100 398
Width: 599
GlyphClass: 2
Flags: W
AnchorPoint: "Anchor-18" 302 265 basechar 0
AnchorPoint: "Anchor-17" 532 741 basechar 0
AnchorPoint: "Anchor-16" 299 741 basechar 0
AnchorPoint: "Anchor-15" 0 0 basechar 0
AnchorPoint: "Anchor-14" 308 0 basechar 0
LayerCount: 2
Fore
SplineSet
522 741 m 1,0,-1
 522 0 l 1,1,-1
 409 0 l 1,2,-1
 400 67 l 1,3,4
 375 29 375 29 336.5 7 c 128,-1,5
 298 -15 298 -15 249 -15 c 0,6,7
 152 -15 152 -15 100 60 c 128,-1,8
 48 135 48 135 48 264 c 0,9,10
 48 345 48 345 74 408.5 c 128,-1,11
 100 472 100 472 148.5 508 c 128,-1,12
 197 544 197 544 261 544 c 0,13,14
 337 544 337 544 394 487 c 1,15,-1
 394 755 l 1,16,-1
 522 741 l 1,0,-1
345 98.5 m 128,-1,18
 371 115 371 115 394 150 c 1,19,-1
 394 392 l 1,20,21
 371 420 371 420 347.5 434 c 128,-1,22
 324 448 324 448 293 448 c 0,23,24
 242 448 242 448 212.5 402.5 c 128,-1,25
 183 357 183 357 183 265 c 0,26,27
 183 167 183 167 209 124.5 c 128,-1,28
 235 82 235 82 285 82 c 0,29,17
 319 82 319 82 345 98.5 c 128,-1,18
EndSplineSet
Substitution2: "'smcp' Lowercase to Small Capitals lookup 27 subtable" d.sc
Substitution2: "'aalt' Access All Alternates lookup 0 subtable" d.sc
EndChar

StartChar: eth
Encoding: 240 240 399
Width: 575
GlyphClass: 2
Flags: W
AnchorPoint: "Anchor-18" 0 0 basechar 0
AnchorPoint: "Anchor-17" 0 0 basechar 0
AnchorPoint: "Anchor-16" 301 741 basechar 0
AnchorPoint: "Anchor-15" 0 0 basechar 0
AnchorPoint: "Anchor-14" 281 0 basechar 0
LayerCount: 2
Fore
SplineSet
485.5 502.5 m 128,-1,1
 526 407 526 407 526 271 c 0,2,3
 526 188 526 188 496.5 123 c 128,-1,4
 467 58 467 58 411.5 21.5 c 128,-1,5
 356 -15 356 -15 281 -15 c 0,6,7
 214 -15 214 -15 160 14.5 c 128,-1,8
 106 44 106 44 74.5 100.5 c 128,-1,9
 43 157 43 157 43 234 c 0,10,11
 43 299 43 299 68 355 c 128,-1,12
 93 411 93 411 139.5 444 c 128,-1,13
 186 477 186 477 248 477 c 0,14,15
 331 477 331 477 387 421 c 1,16,17
 374 475 374 475 348 516.5 c 128,-1,18
 322 558 322 558 277 593 c 1,19,-1
 215 532 l 1,20,-1
 132 571 l 1,21,-1
 196 639 l 1,22,23
 148 656 148 656 95 666 c 1,24,-1
 121 754 l 1,25,26
 202 740 202 740 269 712 c 1,27,-1
 340 788 l 1,28,-1
 409 728 l 1,29,-1
 349 668 l 1,30,0
 445 598 445 598 485.5 502.5 c 128,-1,1
366 126.5 m 128,-1,32
 396 172 396 172 396 261 c 2,33,-1
 395 326 l 1,34,35
 351 384 351 384 278 384 c 0,36,37
 174 384 174 384 174 238 c 0,38,39
 174 160 174 160 202.5 120.5 c 128,-1,40
 231 81 231 81 281 81 c 0,41,31
 336 81 336 81 366 126.5 c 128,-1,32
EndSplineSet
Substitution2: "'smcp' Lowercase to Small Capitals lookup 27 subtable" eth.sc
Substitution2: "'aalt' Access All Alternates lookup 0 subtable" eth.sc
EndChar

StartChar: uni0238
Encoding: 568 568 400
Width: 873
GlyphClass: 2
Flags: W
AnchorPoint: "Anchor-18" 0 0 basechar 0
AnchorPoint: "Anchor-17" 0 0 basechar 0
AnchorPoint: "Anchor-16" 436 741 basechar 0
AnchorPoint: "Anchor-15" 0 0 basechar 0
AnchorPoint: "Anchor-14" 436 0 basechar 0
LayerCount: 2
Fore
SplineSet
775 470.5 m 128,-1,1
 824 397 824 397 824 265 c 0,2,3
 824 183 824 183 799 119.5 c 128,-1,4
 774 56 774 56 729 20.5 c 128,-1,5
 684 -15 684 -15 625 -15 c 0,6,7
 584 -15 584 -15 551.5 6.5 c 128,-1,8
 519 28 519 28 496 65 c 1,9,-1
 487 0 l 1,10,-1
 389 0 l 1,11,-1
 380 67 l 1,12,13
 355 29 355 29 318.5 7 c 128,-1,14
 282 -15 282 -15 239 -15 c 0,15,16
 149 -15 149 -15 98.5 60.5 c 128,-1,17
 48 136 48 136 48 264 c 0,18,19
 48 345 48 345 73 408.5 c 128,-1,20
 98 472 98 472 143.5 508 c 128,-1,21
 189 544 189 544 248 544 c 0,22,23
 284 544 284 544 316.5 526 c 128,-1,24
 349 508 349 508 374 474 c 1,25,-1
 374 741 l 1,26,-1
 502 755 l 1,27,-1
 502 469 l 1,28,29
 555 544 555 544 641 544 c 0,30,0
 726 544 726 544 775 470.5 c 128,-1,1
327 99 m 128,-1,32
 351 116 351 116 374 150 c 1,33,-1
 374 385 l 1,34,35
 333 448 333 448 279 448 c 0,36,37
 236 448 236 448 209.5 402 c 128,-1,38
 183 356 183 356 183 265 c 0,39,40
 183 82 183 82 275 82 c 0,41,31
 303 82 303 82 327 99 c 128,-1,32
663 126 m 128,-1,43
 690 171 690 171 690 265 c 0,44,45
 690 448 690 448 600 448 c 0,46,47
 568 448 568 448 545 430.5 c 128,-1,48
 522 413 522 413 502 382 c 1,49,-1
 502 154 l 1,50,51
 523 117 523 117 543.5 99 c 128,-1,52
 564 81 564 81 595 81 c 0,53,42
 636 81 636 81 663 126 c 128,-1,43
EndSplineSet
EndChar

StartChar: dcroat
Encoding: 273 273 403
Width: 606
GlyphClass: 2
Flags: W
AnchorPoint: "Anchor-18" 302 265 basechar 0
AnchorPoint: "Anchor-17" 532 741 basechar 0
AnchorPoint: "Anchor-16" 299 741 basechar 0
AnchorPoint: "Anchor-15" 0 0 basechar 0
AnchorPoint: "Anchor-14" 308 0 basechar 0
LayerCount: 2
Fore
SplineSet
592 683 m 1,0,-1
 592 601 l 1,1,-1
 522 601 l 1,2,-1
 522 0 l 1,3,-1
 409 0 l 1,4,-1
 400 67 l 1,5,6
 375 29 375 29 336.5 7 c 128,-1,7
 298 -15 298 -15 249 -15 c 0,8,9
 152 -15 152 -15 100 60 c 128,-1,10
 48 135 48 135 48 264 c 0,11,12
 48 345 48 345 74 408.5 c 128,-1,13
 100 472 100 472 148.5 508 c 128,-1,14
 197 544 197 544 261 544 c 0,15,16
 337 544 337 544 394 487 c 1,17,-1
 394 601 l 1,18,-1
 248 601 l 1,19,-1
 248 683 l 1,20,-1
 394 683 l 1,21,-1
 394 755 l 1,22,-1
 522 741 l 1,23,-1
 522 683 l 1,24,-1
 592 683 l 1,0,-1
345 98.5 m 128,-1,26
 371 115 371 115 394 150 c 1,27,-1
 394 392 l 1,28,29
 371 420 371 420 347.5 434 c 128,-1,30
 324 448 324 448 293 448 c 0,31,32
 242 448 242 448 212.5 402.5 c 128,-1,33
 183 357 183 357 183 265 c 0,34,35
 183 167 183 167 209 124.5 c 128,-1,36
 235 82 235 82 285 82 c 0,37,25
 319 82 319 82 345 98.5 c 128,-1,26
EndSplineSet
Substitution2: "'smcp' Lowercase to Small Capitals lookup 27 subtable" dcroat.sc
Substitution2: "'aalt' Access All Alternates lookup 0 subtable" dcroat.sc
EndChar

StartChar: uni0221
Encoding: 545 545 404
Width: 766
GlyphClass: 2
Flags: W
AnchorPoint: "Anchor-18" 0 0 basechar 0
AnchorPoint: "Anchor-17" 0 0 basechar 0
AnchorPoint: "Anchor-16" 383 741 basechar 0
AnchorPoint: "Anchor-15" 0 0 basechar 0
AnchorPoint: "Anchor-14" 383 -206 basechar 0
LayerCount: 2
Fore
SplineSet
746.5 206 m 128,-1,1
 779 176 779 176 779 126 c 0,2,3
 779 59 779 59 728.5 22 c 128,-1,4
 678 -15 678 -15 597 -15 c 0,5,6
 573 -15 573 -15 541 -10 c 1,7,-1
 509 -80 l 1,8,-1
 440 -52 l 1,9,-1
 473 16 l 1,10,11
 432 41 432 41 412 83 c 1,12,13
 352 -15 352 -15 249 -15 c 0,14,15
 152 -15 152 -15 100 60 c 128,-1,16
 48 135 48 135 48 264 c 0,17,18
 48 346 48 346 74 409.5 c 128,-1,19
 100 473 100 473 148.5 508.5 c 128,-1,20
 197 544 197 544 263 544 c 0,21,22
 337 544 337 544 394 487 c 1,23,-1
 394 755 l 1,24,-1
 522 741 l 1,25,-1
 522 167 l 2,26,27
 522 140 522 140 526 127 c 1,28,29
 551 184 551 184 582.5 210 c 128,-1,30
 614 236 614 236 663 236 c 0,31,0
 714 236 714 236 746.5 206 c 128,-1,1
345.5 99 m 128,-1,33
 371 116 371 116 395 151 c 1,34,35
 394 159 394 159 394 174 c 2,36,-1
 394 392 l 1,37,38
 371 420 371 420 347.5 434 c 128,-1,39
 324 448 324 448 294 448 c 0,40,41
 242 448 242 448 212.5 402.5 c 128,-1,42
 183 357 183 357 183 265 c 0,43,44
 183 167 183 167 209 124.5 c 128,-1,45
 235 82 235 82 285 82 c 0,46,32
 320 82 320 82 345.5 99 c 128,-1,33
682 128 m 0,48,49
 682 142 682 142 674 150.5 c 128,-1,50
 666 159 666 159 651 159 c 0,51,52
 631 159 631 159 616 143 c 128,-1,53
 601 127 601 127 582 84 c 1,54,55
 590 83 590 83 609 83 c 0,56,47
 682 83 682 83 682 128 c 0,48,49
EndSplineSet
EndChar

StartChar: uni018D
Encoding: 397 397 407
Width: 578
GlyphClass: 2
Flags: W
AnchorPoint: "Anchor-18" 0 0 basechar 0
AnchorPoint: "Anchor-17" 0 0 basechar 0
AnchorPoint: "Anchor-16" 289 529 basechar 0
AnchorPoint: "Anchor-15" 0 0 basechar 0
AnchorPoint: "Anchor-14" 289 -206 basechar 0
LayerCount: 2
Fore
SplineSet
459 6.5 m 128,-1,1
 480 -26 480 -26 480 -71 c 0,2,3
 480 -112 480 -112 458 -146 c 128,-1,4
 436 -180 436 -180 391.5 -200 c 128,-1,5
 347 -220 347 -220 283 -220 c 0,6,7
 176 -220 176 -220 98 -162 c 1,8,-1
 159 -90 l 1,9,10
 187 -109 187 -109 213.5 -118 c 128,-1,11
 240 -127 240 -127 272 -127 c 0,12,13
 314 -127 314 -127 334 -111 c 128,-1,14
 354 -95 354 -95 354 -69 c 0,15,16
 354 -49 354 -49 345.5 -35.5 c 128,-1,17
 337 -22 337 -22 314.5 -8.5 c 128,-1,18
 292 5 292 5 245 25 c 0,19,20
 140 68 140 68 91.5 126.5 c 128,-1,21
 43 185 43 185 43 284 c 0,22,23
 43 358 43 358 73 417 c 128,-1,24
 103 476 103 476 158.5 510 c 128,-1,25
 214 544 214 544 289 544 c 0,26,27
 402 544 402 544 468.5 476 c 128,-1,28
 535 408 535 408 535 289 c 0,29,30
 535 215 535 215 495 159.5 c 128,-1,31
 455 104 455 104 383 69 c 1,32,0
 438 39 438 39 459 6.5 c 128,-1,1
189.5 203 m 128,-1,34
 201 172 201 172 229.5 149 c 128,-1,35
 258 126 258 126 312 101 c 1,36,37
 358 135 358 135 379.5 179 c 128,-1,38
 401 223 401 223 401 285 c 0,39,40
 401 447 401 447 290 447 c 0,41,42
 235 447 235 447 206.5 406 c 128,-1,43
 178 365 178 365 178 283 c 0,44,33
 178 234 178 234 189.5 203 c 128,-1,34
EndSplineSet
EndChar

StartChar: uni02A4
Encoding: 676 676 408
Width: 989
GlyphClass: 2
Flags: W
AnchorPoint: "Anchor-18" 302 265 basechar 0
AnchorPoint: "Anchor-17" 532 741 basechar 0
AnchorPoint: "Anchor-16" 575 741 basechar 0
AnchorPoint: "Anchor-15" 0 0 basechar 0
AnchorPoint: "Anchor-14" 708 -206 basechar 0
LayerCount: 2
Fore
SplineSet
907 155.5 m 128,-1,1
 965 105 965 105 965 8 c 0,2,3
 965 -58 965 -58 934 -109 c 128,-1,4
 903 -160 903 -160 845.5 -189 c 128,-1,5
 788 -218 788 -218 710 -218 c 0,6,7
 636 -218 636 -218 581 -193.5 c 128,-1,8
 526 -169 526 -169 485 -121 c 1,9,-1
 556 -54 l 1,10,11
 591 -88 591 -88 625.5 -103 c 128,-1,12
 660 -118 660 -118 704 -118 c 0,13,14
 764 -118 764 -118 797.5 -84.5 c 128,-1,15
 831 -51 831 -51 831 14 c 0,16,17
 831 75 831 75 798 101.5 c 128,-1,18
 765 128 765 128 692 128 c 2,19,-1
 606 128 l 1,20,-1
 606 209 l 1,21,-1
 792 430 l 1,22,-1
 522 430 l 1,23,-1
 522 0 l 1,24,-1
 409 0 l 1,25,-1
 400 67 l 1,26,27
 375 29 375 29 336.5 7 c 128,-1,28
 298 -15 298 -15 249 -15 c 0,29,30
 152 -15 152 -15 100 60 c 128,-1,31
 48 135 48 135 48 264 c 0,32,33
 48 345 48 345 74 408.5 c 128,-1,34
 100 472 100 472 148.5 508 c 128,-1,35
 197 544 197 544 261 544 c 0,36,37
 337 544 337 544 394 487 c 1,38,-1
 394 755 l 1,39,-1
 522 741 l 1,40,-1
 522 529 l 1,41,-1
 937 529 l 1,42,-1
 937 438 l 1,43,-1
 740 210 l 1,44,0
 849 206 849 206 907 155.5 c 128,-1,1
345 98.5 m 128,-1,46
 371 115 371 115 394 150 c 1,47,-1
 394 392 l 1,48,49
 371 420 371 420 347.5 434 c 128,-1,50
 324 448 324 448 293 448 c 0,51,52
 242 448 242 448 212.5 402.5 c 128,-1,53
 183 357 183 357 183 265 c 0,54,55
 183 167 183 167 209 124.5 c 128,-1,56
 235 82 235 82 285 82 c 0,57,45
 319 82 319 82 345 98.5 c 128,-1,46
EndSplineSet
EndChar

StartChar: uni0257
Encoding: 599 599 409
Width: 599
GlyphClass: 2
Flags: W
AnchorPoint: "Anchor-18" 0 0 basechar 0
AnchorPoint: "Anchor-17" 0 0 basechar 0
AnchorPoint: "Anchor-16" 316 741 basechar 0
AnchorPoint: "Anchor-15" 0 0 basechar 0
AnchorPoint: "Anchor-14" 300 0 basechar 0
LayerCount: 2
Fore
SplineSet
691 717 m 1,1,-1
 650 637 l 1,2,3
 631 648 631 648 615 653 c 128,-1,4
 599 658 599 658 579 658 c 0,5,6
 522 658 522 658 522 590 c 2,7,-1
 522 0 l 1,8,-1
 409 0 l 1,9,-1
 400 67 l 1,10,11
 375 29 375 29 336.5 7 c 128,-1,12
 298 -15 298 -15 249 -15 c 0,13,14
 152 -15 152 -15 100 60 c 128,-1,15
 48 135 48 135 48 264 c 0,16,17
 48 346 48 346 74 409.5 c 128,-1,18
 100 473 100 473 148.5 508.5 c 128,-1,19
 197 544 197 544 263 544 c 0,20,21
 337 544 337 544 394 487 c 1,22,-1
 394 584 l 2,23,24
 394 664 394 664 439 709.5 c 128,-1,25
 484 755 484 755 565 755 c 0,26,0
 635 755 635 755 691 717 c 1,1,-1
345 98.5 m 128,-1,28
 371 115 371 115 394 150 c 1,29,-1
 394 392 l 1,30,31
 371 420 371 420 347.5 434 c 128,-1,32
 324 448 324 448 294 448 c 0,33,34
 242 448 242 448 212.5 402.5 c 128,-1,35
 183 357 183 357 183 265 c 0,36,37
 183 167 183 167 209 124.5 c 128,-1,38
 235 82 235 82 285 82 c 0,39,27
 319 82 319 82 345 98.5 c 128,-1,28
EndSplineSet
Substitution2: "'smcp' Lowercase to Small Capitals lookup 27 subtable" uni0257.sc
Substitution2: "'aalt' Access All Alternates lookup 0 subtable" uni0257.sc
EndChar

StartChar: uni0256
Encoding: 598 598 411
Width: 599
GlyphClass: 2
Flags: W
AnchorPoint: "Anchor-18" 0 0 basechar 0
AnchorPoint: "Anchor-17" 0 0 basechar 0
AnchorPoint: "Anchor-16" 459 741 basechar 0
AnchorPoint: "Anchor-15" 0 0 basechar 0
AnchorPoint: "Anchor-14" 300 -206 basechar 0
LayerCount: 2
Fore
SplineSet
699 -177 m 1,0,1
 647 -218 647 -218 570 -218 c 0,2,3
 489 -218 489 -218 441.5 -173 c 128,-1,4
 394 -128 394 -128 394 -43 c 2,5,-1
 394 58 l 1,6,7
 369 24 369 24 332 4.5 c 128,-1,8
 295 -15 295 -15 249 -15 c 0,9,10
 152 -15 152 -15 100 60 c 128,-1,11
 48 135 48 135 48 264 c 0,12,13
 48 346 48 346 74 409.5 c 128,-1,14
 100 473 100 473 148.5 508.5 c 128,-1,15
 197 544 197 544 263 544 c 0,16,17
 337 544 337 544 394 487 c 1,18,-1
 394 755 l 1,19,-1
 522 741 l 1,20,-1
 522 -54 l 2,21,22
 522 -121 522 -121 582 -121 c 0,23,24
 603 -121 603 -121 618.5 -116 c 128,-1,25
 634 -111 634 -111 654 -101 c 1,26,-1
 699 -177 l 1,0,1
345 98.5 m 128,-1,28
 371 115 371 115 394 150 c 1,29,-1
 394 392 l 1,30,31
 371 420 371 420 347.5 434 c 128,-1,32
 324 448 324 448 294 448 c 0,33,34
 242 448 242 448 212.5 402.5 c 128,-1,35
 183 357 183 357 183 265 c 0,36,37
 183 167 183 167 209 124.5 c 128,-1,38
 235 82 235 82 285 82 c 0,39,27
 319 82 319 82 345 98.5 c 128,-1,28
EndSplineSet
Substitution2: "'smcp' Lowercase to Small Capitals lookup 27 subtable" uni0256.sc
Substitution2: "'aalt' Access All Alternates lookup 0 subtable" uni0256.sc
EndChar

StartChar: uni018C
Encoding: 396 396 412
Width: 599
GlyphClass: 2
Flags: W
AnchorPoint: "Anchor-18" 0 0 basechar 0
AnchorPoint: "Anchor-17" 0 0 basechar 0
AnchorPoint: "Anchor-16" 300 741 basechar 0
AnchorPoint: "Anchor-15" 0 0 basechar 0
AnchorPoint: "Anchor-14" 300 0 basechar 0
LayerCount: 2
Fore
SplineSet
522 0 m 1,0,-1
 409 0 l 1,1,-1
 400 67 l 1,2,3
 375 29 375 29 336.5 7 c 128,-1,4
 298 -15 298 -15 249 -15 c 0,5,6
 152 -15 152 -15 100 59.5 c 128,-1,7
 48 134 48 134 48 261 c 0,8,9
 48 341 48 341 74 403.5 c 128,-1,10
 100 466 100 466 148.5 501.5 c 128,-1,11
 197 537 197 537 263 537 c 0,12,13
 337 537 337 537 394 480 c 1,14,-1
 394 647 l 1,15,-1
 181 647 l 1,16,-1
 181 741 l 1,17,-1
 522 741 l 1,18,-1
 522 0 l 1,0,-1
345 98.5 m 128,-1,20
 371 115 371 115 394 150 c 1,21,-1
 394 385 l 1,22,23
 371 413 371 413 347.5 427 c 128,-1,24
 324 441 324 441 294 441 c 0,25,26
 242 441 242 441 212.5 396 c 128,-1,27
 183 351 183 351 183 261 c 0,28,29
 183 166 183 166 209 124 c 128,-1,30
 235 82 235 82 285 82 c 0,31,19
 319 82 319 82 345 98.5 c 128,-1,20
EndSplineSet
Substitution2: "'smcp' Lowercase to Small Capitals lookup 27 subtable" uni018C.sc
Substitution2: "'aalt' Access All Alternates lookup 0 subtable" uni018C.sc
EndChar

StartChar: uni02A3
Encoding: 675 675 414
Width: 951
GlyphClass: 2
Flags: W
AnchorPoint: "Anchor-18" 302 265 basechar 0
AnchorPoint: "Anchor-17" 532 741 basechar 0
AnchorPoint: "Anchor-16" 476 741 basechar 0
AnchorPoint: "Anchor-15" 0 0 basechar 0
AnchorPoint: "Anchor-14" 476 0 basechar 0
LayerCount: 2
Fore
SplineSet
928 100 m 1,0,-1
 915 0 l 1,1,-1
 409 0 l 1,2,-1
 400 67 l 1,3,4
 375 29 375 29 336.5 7 c 128,-1,5
 298 -15 298 -15 249 -15 c 0,6,7
 152 -15 152 -15 100 60 c 128,-1,8
 48 135 48 135 48 264 c 0,9,10
 48 345 48 345 74 408.5 c 128,-1,11
 100 472 100 472 148.5 508 c 128,-1,12
 197 544 197 544 261 544 c 0,13,14
 337 544 337 544 394 487 c 1,15,-1
 394 755 l 1,16,-1
 522 741 l 1,17,-1
 522 529 l 1,18,-1
 924 529 l 1,19,-1
 924 437 l 1,20,-1
 661 100 l 1,21,-1
 928 100 l 1,0,-1
345 98.5 m 128,-1,23
 371 115 371 115 394 150 c 1,24,-1
 394 392 l 1,25,26
 371 420 371 420 347.5 434 c 128,-1,27
 324 448 324 448 293 448 c 0,28,29
 242 448 242 448 212.5 402.5 c 128,-1,30
 183 357 183 357 183 265 c 0,31,32
 183 167 183 167 209 124.5 c 128,-1,33
 235 82 235 82 285 82 c 0,34,22
 319 82 319 82 345 98.5 c 128,-1,23
522 429 m 1,35,-1
 522 92 l 1,36,-1
 784 429 l 1,37,-1
 522 429 l 1,35,-1
EndSplineSet
EndChar

StartChar: uni02A5
Encoding: 677 677 416
Width: 1004
GlyphClass: 2
Flags: W
AnchorPoint: "Anchor-18" 302 265 basechar 0
AnchorPoint: "Anchor-17" 532 741 basechar 0
AnchorPoint: "Anchor-16" 502 741 basechar 0
AnchorPoint: "Anchor-15" 0 0 basechar 0
AnchorPoint: "Anchor-14" 502 -206 basechar 0
LayerCount: 2
Fore
SplineSet
823 0 m 1,1,2
 818 -39 818 -39 818 -125 c 1,3,-1
 738 -125 l 1,4,5
 738 -49 738 -49 743 0 c 1,6,-1
 409 0 l 1,7,-1
 400 67 l 1,8,9
 375 29 375 29 336.5 7 c 128,-1,10
 298 -15 298 -15 249 -15 c 0,11,12
 152 -15 152 -15 100 60 c 128,-1,13
 48 135 48 135 48 264 c 0,14,15
 48 345 48 345 74 408.5 c 128,-1,16
 100 472 100 472 148.5 508 c 128,-1,17
 197 544 197 544 261 544 c 0,18,19
 337 544 337 544 394 487 c 1,20,-1
 394 755 l 1,21,-1
 522 741 l 1,22,-1
 522 529 l 1,23,-1
 923 529 l 1,24,-1
 923 440 l 1,25,-1
 660 100 l 1,26,-1
 758 100 l 1,27,28
 790 242 790 242 907 242 c 0,29,30
 957 242 957 242 989.5 213.5 c 128,-1,31
 1022 185 1022 185 1022 135 c 0,32,0
 1022 2 1022 2 823 0 c 1,1,2
345 98.5 m 128,-1,34
 371 115 371 115 394 150 c 1,35,-1
 394 392 l 1,36,37
 371 420 371 420 347.5 434 c 128,-1,38
 324 448 324 448 293 448 c 0,39,40
 242 448 242 448 212.5 402.5 c 128,-1,41
 183 357 183 357 183 265 c 0,42,43
 183 167 183 167 209 124.5 c 128,-1,44
 235 82 235 82 285 82 c 0,45,33
 319 82 319 82 345 98.5 c 128,-1,34
522 429 m 1,46,-1
 522 95 l 1,47,-1
 780 429 l 1,48,-1
 522 429 l 1,46,-1
907.5 109.5 m 128,-1,50
 928 118 928 118 928 140 c 0,51,52
 928 169 928 169 898 169 c 0,53,54
 877 169 877 169 862 153.5 c 128,-1,55
 847 138 847 138 839 100 c 1,56,49
 887 101 887 101 907.5 109.5 c 128,-1,50
EndSplineSet
EndChar

StartChar: e
Encoding: 101 101 417
Width: 549
GlyphClass: 2
Flags: W
AnchorPoint: "Anchor-18" 0 0 basechar 0
AnchorPoint: "Anchor-17" 0 0 basechar 0
AnchorPoint: "Anchor-16" 281 529 basechar 0
AnchorPoint: "Anchor-15" 418 8 basechar 0
AnchorPoint: "Anchor-14" 293 0 basechar 0
LayerCount: 2
Fore
SplineSet
508 225 m 1,1,-1
 176 225 l 1,2,3
 182 148 182 148 216 115 c 128,-1,4
 250 82 250 82 306 82 c 0,5,6
 341 82 341 82 372 93.5 c 128,-1,7
 403 105 403 105 438 129 c 1,8,-1
 491 56 l 1,9,10
 403 -15 403 -15 295 -15 c 0,11,12
 174 -15 174 -15 108.5 59 c 128,-1,13
 43 133 43 133 43 261 c 0,14,15
 43 342 43 342 71 406.5 c 128,-1,16
 99 471 99 471 152 507.5 c 128,-1,17
 205 544 205 544 278 544 c 0,18,19
 389 544 389 544 450 473.5 c 128,-1,20
 511 403 511 403 511 277 c 0,21,0
 511 267 511 267 508 225 c 1,1,-1
384 314 m 2,22,23
 384 453 384 453 281 453 c 0,24,25
 234 453 234 453 207.5 418.5 c 128,-1,26
 181 384 181 384 176 308 c 1,27,-1
 384 308 l 1,28,-1
 384 314 l 2,22,23
EndSplineSet
Substitution2: "'smcp' Lowercase to Small Capitals lookup 27 subtable" e.sc
Substitution2: "'aalt' Access All Alternates lookup 0 subtable" e.sc
EndChar

